<?xml version="1.0" standalone="no"?>
<!DOCTYPE svg PUBLIC "-//W3C//DTD SVG 1.1//EN" "http://www.w3.org/Graphics/SVG/1.1/DTD/svg11.dtd" >
<svg>
<metadata>
Created by FontForge 20120731 at Fri Nov 22 14:13:39 2013
 By World Wide Web Server
Copyright (c) 2010 by Jonathan Hill. All rights reserved.
</metadata>
<defs>
<font id="Lintel-Medium" horiz-adv-x="613" >
  <font-face 
    font-family="Lintel Medium"
    font-weight="500"
    font-stretch="normal"
    units-per-em="1000"
    panose-1="0 0 6 0 0 0 0 0 0 0"
    ascent="750"
    descent="-250"
    x-height="500.95"
    cap-height="700"
    bbox="-78.0107 -224 1070.47 1041.42"
    underline-thickness="50"
    underline-position="-50"
    stemh="79"
    stemv="88"
    unicode-range="U+0020-FB02"
  />
<missing-glyph horiz-adv-x="500" 
d="M0 0v700h500v-700h-500zM250 395l170 255h-340zM280 350l170 -255v510zM80 50h340l-170 255zM50 605v-510l170 255z" />
    <glyph glyph-name="f_f" unicode="ff" horiz-adv-x="592" 
d="M355.27 501v41.541c0 126.98 87.0098 168.61 169.6 168.61c16.25 0 31.8203 -1.5498 46.9199 -4.30957v-68.9102c-12.8799 1.99023 -24.3398 3.12012 -33.9902 3.12012c-4.37012 0 -8.37012 -0.230469 -11.96 -0.720703
c-47.2598 -2.99023 -85.3096 -32.6406 -85.6895 -104.671v-34.6699h122.91v-66.0303h-122.91v-434.97h-84.8799v434.97h-205.93v-434.97h-84.8799v542.55c0 126.98 87.0098 168.61 169.6 168.61c16.25 0 31.8096 -1.5498 46.9092 -4.30957v-68.9102
c-12.8799 1.99023 -24.3398 3.12012 -33.9795 3.12012c-4.37012 0 -8.37012 -0.230469 -11.96 -0.720703c-47.46 -3.04004 -85.3799 -32.9502 -85.6895 -105.3v-34.0303h205.93z" />
    <glyph glyph-name="f_f_i" unicode="ffi" horiz-adv-x="795" 
d="M355.6 501l0.00976562 41.5498c0 113.43 74.8896 168.91 176.37 168.91c77.4102 0 138.25 -25.1396 156.79 -31.8496v-62.2305s-60.2598 23.75 -139.2 23.75c-51.5098 0 -108.81 -16.6699 -109.079 -109.6v-30.54h293.1v-501h-84.8799v434.97h-208.22v-434.97h-84.8799
v434.97h-206.26v-434.97h-84.8799v542.55c0 126.98 87.0098 168.61 169.59 168.61c16.25 0 31.8203 -1.5498 46.9199 -4.30957v-68.9102c-12.8799 1.99023 -24.3398 3.12012 -33.9902 3.12012c-4.37012 0 -8.37012 -0.230469 -11.96 -0.720703
c-47.9199 -3.16992 -85.5 -33.6699 -85.6904 -106.72v-32.6104h206.26z" />
    <glyph glyph-name="f_f_j" unicode="ffj" horiz-adv-x="795" 
d="M355.6 501l0.00878906 41.54c0 113.44 74.8799 168.91 176.36 168.91c77.4199 0 138.25 -25.1396 156.8 -31.8398v-62.2305s-60.2598 23.75 -139.2 23.75c-50.3301 0 -108.561 -15.9502 -109.08 -107.92v-32.2197h293.1v-550c0 -81 -51.5898 -130 -125.54 -143
c-12.2998 -3 -24.8994 -4 -38.1689 -4l-1.71973 69c12.6201 1 22.9199 3 31.7598 5c41.5801 15 48.79 53 48.79 87v469.97h-208.22v-434.97h-84.8799v434.97h-206.26v-434.97h-84.8799v542.55c0 126.98 87.0098 168.61 169.59 168.61
c16.25 0 31.8203 -1.5498 46.9199 -4.30957v-68.9102c-12.8799 1.99023 -24.3398 3.12012 -33.9902 3.12012c-4.37012 0 -8.37012 -0.230469 -11.96 -0.720703c-47.6699 -3.09961 -85.4395 -33.2695 -85.6895 -105.93v-33.4004h206.26z" />
    <glyph glyph-name="f_f_l" unicode="ffl" horiz-adv-x="792" 
d="M355.6 501.06l0.00976562 41.5508c0 113.44 74.8896 168.91 176.37 168.91c122.61 0 201.61 -51.3096 201.61 -51.3096v-660.14h-84.8799v618.54c-37.25 14.75 -73.1699 22.5898 -111.979 22.5898c-39.8701 0 -96.0703 -18.2305 -96.25 -107.19v-32.9502h122.91v-66.0303
h-122.91v-434.97h-84.8799v434.97h-206.26v-434.97h-84.8799v542.55c0 126.98 87.0098 168.61 169.6 168.61c16.25 0 31.8096 -1.5498 46.9092 -4.30957v-68.9102c-12.8799 1.99023 -24.3398 3.12012 -33.9795 3.12012c-4.37012 0 -8.37012 -0.230469 -11.96 -0.720703
c-47.75 -3.12012 -85.46 -33.4004 -85.6904 -106.19v-33.1504h206.26z" />
    <glyph glyph-name="fi" unicode="fi" horiz-adv-x="504" 
d="M64.46 0v542.55c0 113.43 74.8799 168.91 176.36 168.91c77.4199 0 138.25 -25.1396 156.8 -31.8496v-62.2305s-60.2598 23.75 -139.2 23.75c-50.5098 0 -108.6 -16.0596 -109.08 -108.17v-31.96h293.11v-501h-84.8799v434.97h-208.23v-434.97h-84.8799z" />
    <glyph glyph-name="fl" unicode="fl" horiz-adv-x="501" 
d="M64.46 0l0.00878906 542.539c0 113.44 74.8799 168.91 176.36 168.91c122.62 0 201.62 -51.3096 201.62 -51.3096v-660.14h-84.8799v618.54c-37.2598 14.75 -73.1699 22.5898 -111.979 22.5898c-40.79 0 -96.21 -19.21 -96.25 -108.7v-31.4297h122.91v-66.0303h-122.91
v-434.97h-84.8799z" />
    <glyph glyph-name=".notdef" horiz-adv-x="500" 
d="M0 0v700h500v-700h-500zM250 395l170 255h-340zM280 350l170 -255v510zM80 50h340l-170 255zM50 605v-510l170 255z" />
    <glyph glyph-name="A" unicode="A" 
d="M586.01 0h-92.4102l-71.4697 220.35h-231.53l-72.04 -220.35h-91.3301l236.49 700h85.29zM212.1 299.15h188.539l-94.2695 289.6z" />
    <glyph glyph-name="Aacute" unicode="&#xc1;" 
d="M337.53 782.38h-58.5801l54.5195 119.17h83.3701zM586.01 -0h-92.4102l-71.4697 220.35h-231.53l-72.04 -220.35h-91.3301l236.49 700h85.29zM212.1 299.15h188.539l-94.2695 289.6z" />
    <glyph glyph-name="Abreve" unicode="&#x102;" 
d="M403.73 902.59h42.29c0 -77.4502 -60.9805 -133.32 -138.961 -133.32c-77.9902 0 -138.96 55.8701 -138.96 133.32h42.2695c2.98047 -48.9004 44.3809 -85.2305 96.6807 -85.2305c51.7305 0 93.7002 36.3301 96.6807 85.2305zM586.021 -0h-92.4102l-71.4697 220.35
h-231.53l-72.04 -220.35h-91.3301l236.49 700h85.29zM212.11 299.15h188.539l-94.2695 289.6z" />
    <glyph glyph-name="Acaron" unicode="&#x1cd;" 
d="M349.79 773.71h-81.5303l-127.49 139.52h73.1396l94.71 -101.11l92.0801 101.11h73.4004zM586 -0h-92.4102l-71.4697 220.35h-231.53l-72.04 -220.35h-91.3301l236.49 700h85.29zM212.09 299.15h188.539l-94.2695 289.6z" />
    <glyph glyph-name="Acircumflex" unicode="&#xc2;" 
d="M474.9 771.41h-73.4004l-92.0703 101.11l-94.7197 -101.11h-73.1299l127.48 139.52h81.5195zM586.01 0h-92.4102l-71.46 220.35h-231.53l-72.04 -220.35h-91.3301l236.49 700h85.29zM212.1 299.15h188.539l-94.2695 289.6z" />
    <glyph glyph-name="Adieresis" unicode="&#xc4;" 
d="M217.34 874.1c22.8896 0 40.9609 -18.0596 40.9609 -42.2295c0 -23.3203 -18.0703 -42.2402 -41.3906 -42.2402c-23.7402 0 -42.6602 18.9199 -42.6602 42.2402c0 24.1699 18.9199 42.2295 43.0898 42.2295zM403.201 874.1c22.9004 0 40.96 -18.0596 40.96 -42.2295
c0 -23.3203 -18.0596 -42.2402 -41.3799 -42.2402c-23.75 0 -42.6602 18.9199 -42.6602 42.2402c0 24.1699 18.9102 42.2295 43.0801 42.2295zM586.011 -0h-92.4102l-71.4697 220.35h-231.53l-72.04 -220.35h-91.3301l236.49 700h85.29zM212.101 299.15h188.539
l-94.2695 289.6z" />
    <glyph glyph-name="Agrave" unicode="&#xc0;" 
d="M353.97 781.96h-58.5703l-79.3096 119.16h83.3604zM586.01 -0h-92.4102l-71.4697 220.35h-231.53l-72.04 -220.35h-91.3301l236.49 700h85.29zM212.1 299.15h188.539l-94.2695 289.6z" />
    <glyph glyph-name="Amacron" unicode="&#x100;" 
d="M427.68 808.78h-242.62v47.5098h242.62v-47.5098zM586 0h-92.4102l-71.46 220.35h-231.53l-72.04 -220.35h-91.3301l236.49 700h85.29zM212.09 299.15h188.539l-94.2695 289.6z" />
    <glyph glyph-name="Aogonek" unicode="&#x104;" horiz-adv-x="649" 
d="M585.98 0l-45.3164 -4.00098c-58.6396 -48.7598 -65.6797 -81.3799 -65.6797 -102.46c0 -35.2598 23.7695 -50.5801 52.6992 -50.5801c28.6396 0 50.7793 16.79 69.209 43.04l35.8896 -15c-27.0498 -45 -69.8701 -72 -122.51 -72c-40.4004 0 -94.6807 21 -94.6807 87
c0 24 9.63965 66 77.9795 114.04l-71.4404 220.23h-231.53l-72.04 -220.27h-91.3301l236.49 699.92h85.29zM212.104 299.079h188.539l-94.2695 289.6z" />
    <glyph glyph-name="Aring" unicode="&#xc5;" 
d="M307.04 952.91c62.96 0 117.38 -53.4297 117.38 -117.17c0 -62.7695 -53.9102 -117.18 -117.391 -117.18c-63.5 0 -117.38 54.8799 -117.38 117.18c0 63.2598 54.4102 117.17 117.391 117.17zM307.03 907.411c-40.2598 0 -72.0303 -31.4199 -72.0303 -71.6699
c0 -40.0098 31.8799 -72.2402 72.0303 -72.2402c39.5801 0 71.4502 32.2305 71.4502 72.2402c0 40.25 -31.7598 71.6699 -71.4502 71.6699zM585.999 0.000976562h-92.4102l-71.46 220.35h-231.53l-72.04 -220.35h-91.3301l236.49 700h85.29zM212.089 299.151h188.539
l-94.2695 289.6z" />
    <glyph glyph-name="Atilde" unicode="&#xc3;" 
d="M172.76 797.53l-31.3887 42.2705c20.1104 21.2598 62.4199 56.4297 105.22 56.4297c50.2197 0 83.8896 -40.75 126.909 -40.75c28.4004 0 54.9502 24.8701 68.1699 38.6504l31.0801 -42.8398c-16.0801 -14.9404 -56.9404 -47.8105 -96.8701 -47.8105
c-50.2197 0 -85.4502 39.5996 -130.45 39.5996c-28.7998 0 -56.0098 -26.5898 -72.6699 -45.5498zM586.011 0.000976562h-92.4102l-71.46 220.35h-231.53l-72.04 -220.35h-91.3301l236.49 700h85.29zM212.101 299.151h188.539l-94.2695 289.6z" />
    <glyph glyph-name="AE" unicode="&#xc6;" horiz-adv-x="777" 
d="M733.09 621.2l-347.971 -0.000976562l3.29004 -232.26h314.78v-78.7998h-310.06l3.26953 -231.34h337.56v-78.7998h-417.03l-4.05957 220.35h-122.27l-72.04 -220.35h-91.3301l236.49 700h469.37v-78.7998zM212.1 299.14h96.0898l-5.83984 278.12z" />
    <glyph glyph-name="B" unicode="B" horiz-adv-x="604" 
d="M81.5898 700.03l271.659 0.00195312c116.86 0 182.391 -83.4502 182.391 -180.311c0 -82.5303 -30.0596 -139.311 -86.0898 -167.101c67.2002 -26.2305 103.49 -89.9707 103.49 -161.641c0 -123 -66.9004 -190.98 -183.79 -190.98h-287.66v700.03zM169.929 389.802
h162.839c74.2305 0 114.591 41.0801 114.591 119.64c0 61.2598 -39.6396 111.71 -113.149 111.71h-164.28v-231.35zM169.838 309.901l-0.000976562 -231.35h180.2c74.2402 0 114.601 41.0801 114.601 119.64c0 61.2598 -39.6396 111.71 -113.149 111.71h-181.65z" />
    <glyph glyph-name="C" unicode="C" horiz-adv-x="563" 
d="M65.8496 228.14l-0.0107422 249.109c0 158.65 102.11 238.71 244.46 238.71c104.3 0 176.42 -46.3496 210.25 -120.649l-65.0703 -31.0596c-25.3896 47.2002 -76.2393 72.9199 -138.609 72.9199c-94.1797 0 -162.76 -52.2305 -162.76 -159.921v-249.11
c0 -107.69 68.5801 -159.921 162.76 -159.921c62.3701 0 113.22 25.7197 138.62 72.9102l65.0703 -31.0596c-33.8301 -74.2998 -105.95 -121.069 -210.25 -121.069c-142.35 0 -244.46 80.4805 -244.46 239.141z" />
    <glyph glyph-name="Cacute" unicode="&#x106;" horiz-adv-x="563" 
d="M310.27 782.39h-58.5811l54.5303 119.16h83.3604zM65.8389 228.14v249.109c0 158.65 102.11 238.71 244.46 238.71c104.3 0 176.42 -46.3496 210.24 -120.649l-65.0596 -31.0596c-25.4004 47.2002 -76.25 72.9199 -138.62 72.9199
c-94.1699 0 -162.76 -52.2305 -162.76 -159.921v-249.11c0 -107.69 68.5898 -159.921 162.76 -159.921c62.3799 0 113.229 25.7197 138.619 72.9102l65.0703 -31.0596c-33.8301 -74.2998 -105.95 -121.069 -210.25 -121.069c-142.35 0 -244.46 80.4805 -244.46 239.141z" />
    <glyph glyph-name="Ccaron" unicode="&#x10c;" horiz-adv-x="563" 
d="M321.63 773.71h-81.5293l-127.48 139.52h73.1299l94.7197 -101.11l92.0703 101.11h73.4102zM65.8408 228.14v249.109c0 158.65 102.11 238.71 244.46 238.71c104.3 0 176.42 -46.3496 210.24 -120.649l-65.0596 -31.0596
c-25.4004 47.2002 -76.25 72.9199 -138.62 72.9199c-94.1699 0 -162.76 -52.2305 -162.76 -159.921v-249.11c0 -107.69 68.5898 -159.921 162.76 -159.921c62.3799 0 113.229 25.7197 138.619 72.9102l65.0703 -31.0596
c-33.8301 -74.2998 -105.95 -121.069 -210.25 -121.069c-142.35 0 -244.46 80.4805 -244.46 239.141z" />
    <glyph glyph-name="Ccedilla" unicode="&#xc7;" horiz-adv-x="563" 
d="M65.8496 228.14l-0.0224609 249.099c0 158.65 102.11 238.71 244.46 238.71c104.3 0 176.42 -46.3496 210.25 -120.649l-65.0703 -31.0596c-25.3896 47.2002 -76.2393 72.9199 -138.609 72.9199c-94.1797 0 -162.76 -52.2305 -162.76 -159.921v-249.11
c0 -107.69 68.5801 -159.921 162.76 -159.921c62.3701 0 113.22 25.7197 138.62 72.9102l65.0703 -31.0596c-31.1797 -65.3096 -92.0693 -108.22 -178.789 -117.069c-15.1201 -2 -30.6904 -3 -46.6602 -2l-27.1104 -38c11.6201 3.32031 24.5703 5.26074 37.5703 5.26074
c48.3203 0 92.8301 -23.0898 92.8301 -81.25c0 -74 -67.0801 -96 -129.96 -96c-40.0596 0 -78.9395 14 -108.499 25l16.8398 39c28.8496 -15 60.5498 -21 85.4502 -23c39.4805 -1 76.7402 16 76.7402 53c0 29 -21.4902 45 -53.1104 45c-16.7002 0 -37.7998 -4 -68.0195 -18
l-17.21 18l52.29 74c-111.7 19.5 -187.061 97.7402 -187.061 234.141z" />
    <glyph glyph-name="Cdotaccent" unicode="&#x10a;" horiz-adv-x="563" 
d="M296.99 874.05c22.8896 0 40.9609 -18.0596 40.9609 -42.2295c0 -23.3203 -18.0703 -42.2402 -41.3906 -42.2402c-23.7402 0 -42.6602 18.9199 -42.6602 42.2402c0 24.1699 18.9199 42.2295 43.0898 42.2295zM65.8516 228.13l-0.0107422 249.109
c0 158.66 102.11 238.71 244.46 238.71c104.3 0 176.42 -46.3398 210.25 -120.64l-65.0703 -31.0596c-25.3896 47.1904 -76.2393 72.9102 -138.609 72.9102c-94.1797 0 -162.76 -52.2305 -162.76 -159.921v-249.11c0 -107.69 68.5801 -159.921 162.76 -159.921
c62.3701 0 113.22 25.7197 138.62 72.9199l65.0703 -31.0596c-33.8301 -74.2998 -105.95 -121.069 -210.25 -121.069c-142.35 0 -244.46 80.4805 -244.46 239.131z" />
    <glyph glyph-name="D" unicode="D" horiz-adv-x="631" 
d="M81.5898 700h236.52c163.86 0 247.091 -103.62 247.091 -237.8v-249.03c0 -163.89 -110.98 -213.17 -228.851 -213.17h-254.76v700zM169.85 621.2v-542.41h166.5c83.1602 0 140.59 28.8203 140.59 134.38v249.03c0 96.2803 -51.9805 159 -158.83 159h-148.26z" />
    <glyph glyph-name="Eth" unicode="&#xd0;" horiz-adv-x="650" 
d="M100.25 700l236.51 0.000976562c163.86 0 247.091 -103.62 247.091 -237.8v-249.03c0 -163.89 -110.98 -213.17 -228.851 -213.17h-254.75v310.1h-90.25v78.7998h90.25v311.1zM188.5 621.201l0.00976562 -232.301h148.37v-78.7998h-148.37v-231.31h166.49
c83.1602 0 140.59 28.8203 140.59 134.37v249.03c0 96.29 -51.9805 159.01 -158.83 159.01h-148.26z" />
    <glyph glyph-name="Dcaron" unicode="&#x10e;" horiz-adv-x="631" 
d="M358.22 773.71h-81.5293l-127.48 139.52h73.1299l94.7197 -101.11l92.0703 101.11h73.4102zM81.5801 700h236.52c163.86 0 247.091 -103.62 247.091 -237.8v-249.03c0 -163.89 -110.98 -213.17 -228.851 -213.17h-254.76v700zM169.84 621.2v-542.41h166.5
c83.1602 0 140.59 28.8203 140.59 134.38v249.03c0 96.2803 -51.9805 159 -158.83 159h-148.26z" />
    <glyph glyph-name="Dcroat" unicode="&#x110;" horiz-adv-x="645" 
d="M98.2197 700h236.51c163.87 0 247.09 -103.62 247.09 -237.8v-249.03c0 -163.89 -110.97 -213.17 -228.84 -213.17h-254.76v325.96h-86.0898v47.5098h86.0898v326.53zM186.479 621.2v-247.73h152.63v-47.5098h-152.63v-247.16h166.49
c83.1602 0 140.59 28.8203 140.59 134.37v249.03c0 96.2803 -51.9805 159 -158.83 159h-148.25z" />
    <glyph glyph-name="E" unicode="E" horiz-adv-x="567" 
d="M519.1 621.2l-349.249 -0.000976562v-232.26h322.79v-78.7998h-322.79v-231.34h354.72v-78.7998h-442.98v700h437.51v-78.7998z" />
    <glyph glyph-name="Eacute" unicode="&#xc9;" horiz-adv-x="567" 
d="M324.17 782.38h-58.5801l54.5195 119.17h83.3701zM519.1 621.2l-349.249 -0.000976562v-232.26h322.79v-78.7998h-322.79v-231.34h354.72v-78.7998h-442.98v700h437.51v-78.7998z" />
    <glyph glyph-name="Ecaron" unicode="&#x11a;" horiz-adv-x="567" 
d="M317.48 773.71h-81.5293l-127.48 139.52h73.1299l94.7197 -101.11l92.0703 101.11h73.4102zM519.091 621.2l-349.25 0.00878906v-232.26h322.8v-78.7998h-322.8v-231.35h354.73v-78.7998h-442.98v700h437.5v-78.7998z" />
    <glyph glyph-name="Ecircumflex" unicode="&#xca;" horiz-adv-x="567" 
d="M442.59 771.41h-73.3896l-92.0801 101.11l-94.71 -101.11h-73.1396l127.49 139.52h81.5195zM519.11 621.2l-349.249 -0.000976562v-232.26h322.79v-78.7998h-322.79v-231.34h354.72v-78.7998h-442.98v700h437.51v-78.7998z" />
    <glyph glyph-name="Edieresis" unicode="&#xcb;" horiz-adv-x="567" 
d="M185.03 874.1c22.9004 0 40.96 -18.0596 40.96 -42.2295c0 -23.3203 -18.0596 -42.2402 -41.3799 -42.2402c-23.75 0 -42.6602 18.9199 -42.6602 42.2402c0 24.1699 18.9102 42.2295 43.0801 42.2295zM370.9 874.1c22.8896 0 40.9609 -18.0596 40.9609 -42.2295
c0 -23.3203 -18.0703 -42.2402 -41.3906 -42.2402c-23.7402 0 -42.6602 18.9199 -42.6602 42.2402c0 24.1699 18.9199 42.2295 43.0898 42.2295zM519.102 621.199l-349.25 -0.000976562v-232.26h322.8v-78.7998h-322.8v-231.34h354.73v-78.7998h-442.98v700h437.5v-78.7998z
" />
    <glyph glyph-name="Edotaccent" unicode="&#x116;" horiz-adv-x="567" 
d="M283.58 873.88c22.8896 0 40.9609 -18.0596 40.9609 -42.2295c0 -23.3203 -18.0703 -42.2402 -41.3906 -42.2402c-23.7402 0 -42.6602 18.9199 -42.6602 42.2402c0 24.1699 18.9199 42.2295 43.0898 42.2295zM519.101 621.2l-349.249 0.00878906v-232.26h322.79v-78.7998
h-322.79v-231.35h354.72v-78.7998h-442.98v700h437.51v-78.7998z" />
    <glyph glyph-name="Egrave" unicode="&#xc8;" horiz-adv-x="567" 
d="M356.61 781.96h-58.5801l-79.3096 119.16h83.3701zM519.101 621.2l-349.249 -0.000976562v-232.26h322.79v-78.7998h-322.79v-231.34h354.72v-78.7998h-442.98v700h437.51v-78.7998z" />
    <glyph glyph-name="Emacron" unicode="&#x112;" horiz-adv-x="567" 
d="M424.22 808.78h-242.62v47.5098h242.62v-47.5098zM518.93 621.2l-349.249 -0.000976562v-232.26h322.79v-78.7998h-322.79v-231.34h354.72v-78.7998h-442.98v700h437.51v-78.7998z" />
    <glyph glyph-name="Eogonek" unicode="&#x118;" horiz-adv-x="592" 
d="M518.95 621.67h-348.938v-232.01h322.51v-78.7803h-322.51v-231.1h354.41v-78.7803h-88.2402c-15.9199 -17.2998 -75.3896 -62.5498 -75.3896 -110.25c0 -35.3604 23.7002 -49.79 52.6299 -49.79c28.6201 0 50.7305 16.79 69.1504 43.04l35.8799 -15
c-27.1104 -45 -69.9102 -72 -122.44 -72c-40.3604 0 -94.6104 20 -94.6104 86c0 49 54.5596 98 77.2793 117.6h-296.91v699.46h437.18v-78.3896z" />
    <glyph glyph-name="F" unicode="F" horiz-adv-x="553" 
d="M511.07 621.2l-341.221 -0.000976562v-232.26h309.29v-78.7998h-309.29v-310.14h-88.2598v700h429.48v-78.7998z" />
    <glyph glyph-name="G" unicode="G" horiz-adv-x="629" 
d="M65.8496 216.36l-0.00878906 260.888c0 158.65 100.71 238.71 246.18 238.71c106.76 0 179 -46.1201 212.92 -120.14l-70.2197 -31.7803c-28.3301 48.4297 -71.0205 73.1201 -140.91 73.1201c-99.3701 0 -159.71 -48.1797 -159.71 -159.92v-260.88
c0 -111.38 78.8301 -148.06 157.01 -148.06c78.8799 0 152.63 36.4404 152.63 148.061v87.4902h-123.67v74.9697h211.93v-378.82h-66.5498l-2.92969 77.4404c-37.4199 -62.7695 -110.68 -88.4395 -180.79 -88.4395c-111.9 0 -235.881 64.1904 -235.881 227.36z" />
    <glyph glyph-name="Gbreve" unicode="&#x11e;" horiz-adv-x="629" 
d="M411.44 902.59h42.2793c0 -77.4502 -60.9697 -133.32 -138.96 -133.32c-77.9805 0 -138.961 55.8701 -138.961 133.32h42.2803c2.98047 -48.9004 44.3809 -85.2305 96.6807 -85.2305c51.7305 0 93.7002 36.3301 96.6807 85.2305zM65.8496 216.359l-0.00878906 260.888
c0 158.65 100.71 238.71 246.18 238.71c106.76 0 179 -46.1201 212.92 -120.14l-70.2197 -31.7803c-28.3301 48.4297 -71.0205 73.1201 -140.91 73.1201c-99.3701 0 -159.71 -48.1797 -159.71 -159.92v-260.88c0 -111.38 78.8301 -148.06 157.01 -148.06
c78.8799 0 152.63 36.4404 152.63 148.061v87.4902h-123.67v74.9697h211.93v-378.82h-66.5498l-2.92969 77.4404c-37.4199 -62.7695 -110.68 -88.4395 -180.79 -88.4395c-111.9 0 -235.881 64.1904 -235.881 227.36z" />
    <glyph glyph-name="Gcommaaccent" unicode="&#x122;" horiz-adv-x="629" 
d="M65.8496 216.36l-0.00878906 260.888c0 158.65 100.71 238.71 246.18 238.71c106.76 0 179 -46.1201 212.92 -120.14l-70.2197 -31.7803c-28.3301 48.4297 -71.0205 73.1201 -140.91 73.1201c-99.3701 0 -159.71 -48.1797 -159.71 -159.92v-260.88
c0 -111.38 78.8301 -148.06 157.01 -148.06c78.8799 0 152.63 36.4404 152.63 148.061v87.4902h-123.67v74.9697h211.93v-378.82h-66.5498l-2.92969 77.4404c-37.4199 -62.7695 -110.68 -88.4395 -180.79 -88.4395c-111.9 0 -235.881 64.1904 -235.881 227.36z
M266.251 -206.002l18.3408 53c-8.23047 7 -13.7402 17 -13.7402 27c0 18 15.3799 34 33.7197 34c18.3301 0 33.7197 -16 33.7197 -34c0 -5 -1.41992 -10 -3.90039 -15l-30.5801 -65h-37.5596z" />
    <glyph glyph-name="Gdotaccent" unicode="&#x120;" horiz-adv-x="629" 
d="M303.97 876.57c22.8896 0 40.9609 -18.0596 40.9609 -42.2295c0 -23.3203 -18.0703 -42.2402 -41.3906 -42.2402c-23.7402 0 -42.6602 18.9199 -42.6602 42.2402c0 24.1699 18.9199 42.2295 43.0898 42.2295zM65.8506 216.36l-0.00878906 260.888
c0 158.65 100.71 238.71 246.18 238.71c106.76 0 179 -46.1201 212.92 -120.14l-70.2197 -31.7803c-28.3301 48.4297 -71.0205 73.1201 -140.91 73.1201c-99.3701 0 -159.71 -48.1797 -159.71 -159.92v-260.88c0 -111.38 78.8301 -148.06 157.01 -148.06
c78.8799 0 152.63 36.4404 152.63 148.061v87.4902h-123.67v74.9697h211.93v-378.82h-66.5498l-2.92969 77.4404c-37.4199 -62.7695 -110.68 -88.4395 -180.79 -88.4395c-111.9 0 -235.881 64.1904 -235.881 227.36z" />
    <glyph glyph-name="H" unicode="H" horiz-adv-x="652" 
d="M570.3 0h-88.2598v310.14h-312.19v-310.14h-88.2598v700h88.2598v-311.06h312.19v311.06h88.2598v-700z" />
    <glyph glyph-name="Hbar" unicode="&#x126;" horiz-adv-x="687" 
d="M587.67 557.57h63.5996v-47.5703h-63.5996v-510h-88.25v310.15h-312.19v-310.15h-88.2598v510h-63.46v47.5703h63.46v142.43h88.2598v-142.43h312.19v142.43h88.25v-142.43zM187.229 510v-121.05h312.19v121.05h-312.19z" />
    <glyph glyph-name="I" unicode="I" horiz-adv-x="251" 
d="M169.85 0h-88.2598v700h88.2598v-700z" />
    <glyph glyph-name="IJ" unicode="&#x132;" horiz-adv-x="598" 
d="M169.85 0h-88.2598v700h88.2598v-700zM548.41 699.52l0.00878906 -488.648c0 -145.36 -93.3096 -219.761 -226.52 -219.761c-12.2695 0 -24.8799 0.629883 -37.79 1.88965v78.9404c9.66992 -0.94043 19.1299 -1.4209 28.3301 -1.4209
c84.9404 0 147.721 40.7598 147.721 140.34v488.66h88.25z" />
    <glyph glyph-name="Iacute" unicode="&#xcd;" horiz-adv-x="251" 
d="M139.32 782.38h-58.5801l54.5195 119.17h83.3701zM169.851 -0h-88.2598v700h88.2598v-700z" />
    <glyph glyph-name="Icaron" unicode="&#x1cf;" horiz-adv-x="251" 
d="M168.78 773.71h-81.5303l-127.26 139.52h73.1602l94.4697 -101.11l92.0703 101.11h73.4102zM169.84 -0h-88.25v700h88.25v-700z" />
    <glyph glyph-name="Icircumflex" unicode="&#xce;" horiz-adv-x="251" 
d="M293.89 771.41h-73.3984l-92.0703 101.11l-94.4697 -101.11h-72.9502l127.06 139.52h81.5195zM169.852 0h-88.25v700h88.25v-700z" />
    <glyph glyph-name="Idieresis" unicode="&#xcf;" horiz-adv-x="251" 
d="M36.3301 874.1c22.9004 0 40.96 -18.0596 40.96 -42.2295c0 -23.3203 -18.0596 -42.2402 -41.3799 -42.2402c-23.9404 0 -42.9102 18.9199 -42.9102 42.2402c0 24.1699 18.9697 42.2295 43.3301 42.2295zM222.2 874.1c22.8896 0 40.9609 -18.0596 40.9609 -42.2295
c0 -23.3203 -18.0703 -42.2402 -41.3906 -42.2402c-23.7402 0 -42.6602 18.9199 -42.6602 42.2402c0 24.1699 18.9199 42.2295 43.0898 42.2295zM169.852 -0h-88.25v700h88.25v-700z" />
    <glyph glyph-name="Idotaccent" unicode="&#x130;" horiz-adv-x="251" 
d="M127.17 876.72c22.8896 0 40.9609 -18.0596 40.9609 -42.2295c0 -23.3203 -18.0703 -42.2402 -41.3906 -42.2402c-23.7402 0 -42.6602 18.9199 -42.6602 42.2402c0 24.1699 18.9199 42.2295 43.0898 42.2295zM169.851 -0h-88.2598v700h88.2598v-700z" />
    <glyph glyph-name="Igrave" unicode="&#xcc;" horiz-adv-x="251" 
d="M183.31 781.96h-58.5703l-79.3096 119.16h83.3604zM169.85 -0h-88.25v700h88.25v-700z" />
    <glyph glyph-name="Imacron" unicode="&#x12a;" horiz-adv-x="251" 
d="M246.67 816.02h-242.62v47.5098h242.62v-47.5098zM169.85 -0h-88.2598v700h88.2598v-700z" />
    <glyph glyph-name="Iogonek" unicode="&#x12e;" horiz-adv-x="251" 
d="M169.85 700l0.000976562 -700c-63.9297 -51.8799 -71.7793 -86.5303 -71.7793 -107.25c0 -35.4102 23.7305 -50.79 52.7002 -50.79c28.6396 0 50.7793 16.79 69.209 43.04l35.8896 -15c-27.04 -45 -69.8496 -72 -122.52 -72c-40.4004 0 -94.6807 21 -94.6807 87
c0 23 11.04 66 73.8896 112l-30.9697 3v700h88.2598z" />
    <glyph glyph-name="J" unicode="J" horiz-adv-x="347" 
d="M297.28 699.51l0.00878906 -488.648c0 -145.36 -93.3096 -219.761 -226.52 -219.761c-12.2695 0 -24.8799 0.629883 -37.79 1.89941v78.9297c9.66992 -0.929688 19.1299 -1.41016 28.3301 -1.41016c84.9404 0 147.721 40.7598 147.721 140.34v488.65h88.25z" />
    <glyph glyph-name="K" unicode="K" horiz-adv-x="605" 
d="M297.87 405.92l280.262 -405.92h-106.94l-229.11 336.69l-72.2305 -86.96v-249.73h-88.2598v700h88.2598v-317.73l257.5 317.73h111.02z" />
    <glyph glyph-name="Kcommaaccent" unicode="&#x136;" horiz-adv-x="605" 
d="M297.87 405.91l280.262 -405.921h-106.94l-229.11 336.7l-72.2305 -86.9697v-249.72h-88.2598v700h88.2598v-317.73l257.5 317.73h111.02zM259.021 -206.011l18.3408 53c-8.23047 7 -13.7402 17 -13.7402 27c0 18 15.3799 34 33.7197 34
c18.3301 0 33.7197 -16 33.7197 -34c0 -5 -1.41992 -10 -3.90039 -15l-30.5801 -65h-37.5596z" />
    <glyph glyph-name="L" unicode="L" horiz-adv-x="482" 
d="M169.85 78.7998h283.08v-78.7998h-371.34v700h88.2598v-621.2z" />
    <glyph glyph-name="Lacute" unicode="&#x139;" horiz-adv-x="482" 
d="M162.81 782.38h-58.5801l54.5195 119.17h83.3701zM169.84 78.79h283.09v-78.7998h-371.34v700h88.25v-621.2z" />
    <glyph glyph-name="Lcaron" unicode="&#x13d;" horiz-adv-x="482" 
d="M304.28 623.6l24.9102 74.5596c-11.4102 8.82031 -18.96 22.7402 -18.96 38.1104c0 26.7197 22.3203 49.04 49.0508 49.04c26.7197 0 49.04 -22.3203 49.04 -49.04c0 -8.16992 -2.08008 -15.9199 -5.74023 -22.75l-42.3604 -89.9199h-55.9404zM169.841 78.7891h283.09
v-78.7998h-371.34v700h88.25v-621.2z" />
    <glyph glyph-name="Lcommaaccent" unicode="&#x13b;" horiz-adv-x="482" 
d="M169.85 78.7998h283.08v-78.7998h-371.34v700h88.2598v-621.2zM217.97 -206l18.3398 53c-8.21973 7 -13.7393 17 -13.7393 27c0 18 15.3896 34 33.7197 34c18.3398 0 33.7197 -16 33.7197 -34c0 -5 -1.41016 -10 -3.89062 -15l-30.5898 -65h-37.5596z" />
    <glyph glyph-name="Ldot" unicode="&#x13f;" horiz-adv-x="482" 
d="M169.85 78.7998h283.08v-78.7998h-371.34v700h88.2598v-621.2zM331.8 442.79c26.7197 0 49.04 -22.3203 49.04 -49.0508c0 -26.7197 -22.3203 -49.0293 -49.04 -49.0293c-26.7305 0 -49.1406 22.3096 -49.1406 49.0293c0 26.7305 22.4102 49.0508 49.1406 49.0508z" />
    <glyph glyph-name="Lslash" unicode="&#x141;" horiz-adv-x="535" 
d="M222.86 417.86l130 58.4795l32.8398 -69.79l-162.85 -73.3799v-254.37h283.09v-78.7998h-371.34v293.87l-95.4102 -42.7803l-29.2002 70.9004l124.61 55.8799v322.13h88.2598v-282.14z" />
    <glyph glyph-name="M" unicode="M" horiz-adv-x="748" 
d="M669.23 0h-87.3496v496.3l-175.49 -456.71h-65.2402l-174.34 456.71v-496.3h-87.3496v700h89.1396l205.75 -529.96l205.74 529.96h89.1396v-700z" />
    <glyph glyph-name="N" unicode="N" horiz-adv-x="633" 
d="M556.65 0h-92.0801l-299.72 522.97v-522.97h-88.2598v700h87.8496l303.95 -531.75v531.75h88.2598v-700z" />
    <glyph glyph-name="Nacute" unicode="&#x143;" horiz-adv-x="633" 
d="M331.82 779.83h-58.5703l54.5195 119.17h83.3604zM556.65 0h-92.0801l-299.72 522.97v-522.97h-88.2598v700h87.8496l303.95 -531.75v531.75h88.2598v-700z" />
    <glyph glyph-name="Ncaron" unicode="&#x147;" horiz-adv-x="633" 
d="M357.27 773.71h-81.5293l-127.48 139.52h73.1299l94.7197 -101.11l92.0703 101.11h73.4102zM556.641 -0h-92.0801l-299.72 522.97v-522.97h-88.2598v700h87.8496l303.95 -531.75v531.75h88.2598v-700z" />
    <glyph glyph-name="Ncommaaccent" unicode="&#x145;" horiz-adv-x="633" 
d="M556.65 0h-92.0801l-299.72 522.97v-522.97h-88.2598v700h87.8496l303.95 -531.75v531.75h88.2598v-700zM267.53 -206l18.3408 53c-8.23047 7 -13.7402 17 -13.7402 27c0 18 15.3799 34 33.7197 34c18.3301 0 33.7197 -16 33.7197 -34c0 -5 -1.41992 -10 -3.90039 -15
l-30.5801 -65h-37.5596z" />
    <glyph glyph-name="Eng" unicode="&#x14a;" horiz-adv-x="633" 
d="M556.65 700l-0.00878906 -760c0 -77 -48.6299 -119 -108.8 -136c-15.6602 -6 -33.6406 -10 -54.9004 -12l-1.73047 69c19.1396 2 33.7695 6 45.2598 13c24.8398 15 32.8994 40 34.7695 63v51l-306.39 534.97v-522.97h-88.2598v700h87.8496l303.95 -531.76v531.76h88.2598
z" />
    <glyph glyph-name="Ntilde" unicode="&#xd1;" horiz-adv-x="633" 
d="M180.25 797.53l-31.3887 42.2705c20.0996 21.2598 62.4092 56.4297 105.209 56.4297c50.2305 0 83.9004 -40.75 126.92 -40.75c28.4004 0 54.9502 24.8701 68.1602 38.6504l31.0898 -42.8398c-16.0898 -14.9404 -56.9395 -47.8105 -96.8691 -47.8105
c-50.2305 0 -85.4609 39.5996 -130.451 39.5996c-28.8096 0 -56.0098 -26.5898 -72.6699 -45.5498zM556.651 0.000976562h-92.0693l-299.73 522.97v-522.97h-88.25v700h87.8398l303.96 -531.75v531.75h88.25v-700z" />
    <glyph glyph-name="O" unicode="O" horiz-adv-x="620" 
d="M65.8496 215.33l-0.00976562 260.89c0 158.66 100.71 238.71 246.18 238.71c156.06 0 242.529 -95.5801 242.529 -239.62v-259.98c0 -169.52 -131.17 -227.329 -243.439 -227.329c-111.16 0 -245.26 57.5996 -245.26 227.33zM466.29 215.34l0.00195312 259.969
c0 102.76 -52.7305 160.83 -154.271 160.83c-98.4805 0 -157.921 -49.0098 -157.921 -159.92v-260.88c0 -111.38 78.8301 -148.06 157.01 -148.06c78.8799 0 155.18 36.4404 155.18 148.061z" />
    <glyph glyph-name="Oacute" unicode="&#xd3;" horiz-adv-x="620" 
d="M326.55 779.83h-58.5801l54.5195 119.17h83.3701zM65.8398 215.34l-0.000976562 260.89c0 158.65 100.7 238.71 246.181 238.71c156.06 0 242.529 -95.5801 242.529 -239.63v-259.97c0 -169.52 -131.18 -227.34 -243.439 -227.34
c-111.17 0 -245.27 57.5996 -245.27 227.34zM466.289 215.34l-0.00878906 259.979c0 102.75 -52.7305 160.82 -154.271 160.82c-98.4697 0 -157.92 -49.0098 -157.92 -159.91v-260.89c0 -111.38 78.8301 -148.05 157.01 -148.05c78.8896 0 155.189 36.4404 155.189 148.051z
" />
    <glyph glyph-name="Ocaron" unicode="&#x1d1;" horiz-adv-x="620" 
d="M352.94 773.71h-81.5303l-127.49 139.52h73.1396l94.71 -101.11l92.0801 101.11h73.4004zM65.8398 215.34l-0.000976562 260.89c0 158.65 100.7 238.71 246.181 238.71c156.06 0 242.529 -95.5801 242.529 -239.63v-259.97c0 -169.52 -131.18 -227.34 -243.439 -227.34
c-111.17 0 -245.27 57.5996 -245.27 227.34zM466.289 215.34l-0.00878906 259.979c0 102.75 -52.7305 160.82 -154.271 160.82c-98.4697 0 -157.92 -49.0098 -157.92 -159.91v-260.89c0 -111.38 78.8301 -148.05 157.01 -148.05c78.8896 0 155.189 36.4404 155.189 148.051z
" />
    <glyph glyph-name="Ocircumflex" unicode="&#xd4;" horiz-adv-x="620" 
d="M478.05 771.41h-73.4004l-92.0703 101.11l-94.7197 -101.11h-73.1299l127.48 139.52h81.5195zM65.8594 215.33l-0.00976562 260.89c0 158.66 100.71 238.71 246.18 238.71c156.06 0 242.529 -95.5801 242.529 -239.62v-259.98
c0 -169.52 -131.17 -227.329 -243.439 -227.329c-111.16 0 -245.26 57.5996 -245.26 227.33zM466.3 215.34l0.00195312 259.969c0 102.76 -52.7305 160.83 -154.271 160.83c-98.4805 0 -157.921 -49.0098 -157.921 -159.92v-260.88
c0 -111.38 78.8301 -148.06 157.01 -148.06c78.8799 0 155.18 36.4404 155.18 148.061z" />
    <glyph glyph-name="Odieresis" unicode="&#xd6;" horiz-adv-x="620" 
d="M220.49 874.1c22.8896 0 40.9609 -18.0596 40.9609 -42.2295c0 -23.3203 -18.0703 -42.2402 -41.3906 -42.2402c-23.7402 0 -42.6602 18.9199 -42.6602 42.2402c0 24.1699 18.9199 42.2295 43.0898 42.2295zM406.352 874.1c22.9004 0 40.96 -18.0596 40.96 -42.2295
c0 -23.3203 -18.0596 -42.2402 -41.3799 -42.2402c-23.75 0 -42.6602 18.9199 -42.6602 42.2402c0 24.1699 18.9102 42.2295 43.0801 42.2295zM65.8516 215.33l-0.00976562 260.89c0 158.66 100.71 238.71 246.18 238.71c156.06 0 242.529 -95.5801 242.529 -239.62v-259.98
c0 -169.52 -131.17 -227.329 -243.439 -227.329c-111.16 0 -245.26 57.5996 -245.26 227.33zM466.292 215.34l0.00195312 259.969c0 102.76 -52.7305 160.83 -154.271 160.83c-98.4805 0 -157.921 -49.0098 -157.921 -159.92v-260.88
c0 -111.38 78.8301 -148.06 157.01 -148.06c78.8799 0 155.18 36.4404 155.18 148.061z" />
    <glyph glyph-name="Ograve" unicode="&#xd2;" horiz-adv-x="620" 
d="M366.67 781.96h-58.5801l-79.3096 119.16h83.3701zM65.8496 215.33l-0.000976562 260.89c0 158.66 100.7 238.71 246.181 238.71c156.06 0 242.529 -95.5801 242.529 -239.62v-259.98c0 -169.52 -131.18 -227.329 -243.439 -227.329
c-111.17 0 -245.27 57.5996 -245.27 227.33zM466.299 215.34l-0.00878906 259.969c0 102.76 -52.7305 160.83 -154.271 160.83c-98.4697 0 -157.92 -49.0098 -157.92 -159.92v-260.88c0 -111.38 78.8301 -148.06 157.01 -148.06c78.8896 0 155.189 36.4404 155.189 148.061z
" />
    <glyph glyph-name="Ohungarumlaut" unicode="&#x150;" horiz-adv-x="620" 
d="M264.64 781.54h-55.2803l50.6699 120.01h78.0801zM399.419 781.54h-55.29l50.6699 120.01h78.0898zM65.8486 215.33l-0.00976562 260.89c0 158.66 100.71 238.71 246.18 238.71c156.06 0 242.529 -95.5801 242.529 -239.62v-259.98
c0 -169.52 -131.17 -227.329 -243.439 -227.329c-111.16 0 -245.26 57.5996 -245.26 227.33zM466.289 215.34l0.00195312 259.969c0 102.76 -52.7305 160.83 -154.271 160.83c-98.4805 0 -157.921 -49.0098 -157.921 -159.92v-260.88
c0 -111.38 78.8301 -148.06 157.01 -148.06c78.8799 0 155.18 36.4404 155.18 148.061z" />
    <glyph glyph-name="Omacron" unicode="&#x14c;" horiz-adv-x="620" 
d="M431.51 808.78h-242.62v47.5098h242.62v-47.5098zM65.8496 215.33l-0.00976562 260.89c0 158.66 100.71 238.71 246.18 238.71c156.06 0 242.529 -95.5801 242.529 -239.62v-259.98c0 -169.52 -131.17 -227.329 -243.439 -227.329
c-111.16 0 -245.26 57.5996 -245.26 227.33zM466.29 215.34l0.00195312 259.969c0 102.76 -52.7305 160.83 -154.271 160.83c-98.4805 0 -157.921 -49.0098 -157.921 -159.92v-260.88c0 -111.38 78.8301 -148.06 157.01 -148.06c78.8799 0 155.18 36.4404 155.18 148.061z
" />
    <glyph glyph-name="Oslash" unicode="&#xd8;" horiz-adv-x="620" 
d="M491.41 750l-26.9824 -77.6611c58.8604 -41.3203 90.1201 -110.41 90.1201 -197.021v-259.98c0 -169.52 -131.17 -227.329 -243.439 -227.329c-26.3203 0 -53.9199 3.23047 -80.7295 10.4102l-16.8096 -48.4102h-84.5703l28.0498 80.7803
c-52.7695 34.96 -91.1992 93.6904 -91.1992 184.551v260.89c0 158.65 100.71 238.71 246.18 238.71c28.8604 0 55.3301 -3.26953 79.3203 -9.50977l15.4805 44.5703h84.5801zM154.098 476.229l0.000976562 -260.88c0 -44.2803 12.46 -76.75 32.3799 -99.8096l178.6 514.28
c-15.8701 4.17969 -33.5605 6.31934 -53.0605 6.31934c-98.4697 0 -157.92 -49.0098 -157.92 -159.91zM466.289 215.349v259.969c0 46.3799 -10.7402 83.6602 -31.8701 110.61l-177.81 -511.99c17.5 -4.59961 36.0195 -6.64941 54.5 -6.64941
c78.8799 0 155.18 36.4404 155.18 148.061z" />
    <glyph glyph-name="Otilde" unicode="&#xd5;" horiz-adv-x="620" 
d="M175.91 797.53l-31.3779 42.2705c20.1104 21.2598 62.4199 56.4297 105.22 56.4297c50.2197 0 83.8896 -40.75 126.909 -40.75c28.4102 0 54.96 24.8701 68.1699 38.6504l31.0801 -42.8398c-16.0801 -14.9404 -56.9404 -47.8105 -96.8701 -47.8105
c-50.2305 0 -85.4609 39.5996 -130.451 39.5996c-28.8096 0 -56.0195 -26.5898 -72.6797 -45.5498zM65.8623 215.331l-0.000976562 260.89c0 158.66 100.7 238.71 246.181 238.71c156.06 0 242.529 -95.5801 242.529 -239.62v-259.98
c0 -169.52 -131.18 -227.329 -243.439 -227.329c-111.17 0 -245.27 57.5996 -245.27 227.33zM466.312 215.341l-0.00878906 259.969c0 102.76 -52.7305 160.83 -154.271 160.83c-98.4697 0 -157.92 -49.0098 -157.92 -159.92v-260.88
c0 -111.38 78.8301 -148.06 157.01 -148.06c78.8896 0 155.189 36.4404 155.189 148.061z" />
    <glyph glyph-name="OE" unicode="&#x152;" horiz-adv-x="945" 
d="M45.7402 216.36v260.888c0 158.65 100.7 238.71 246.181 238.71c79.9199 0 137.979 -29.7998 171.119 -80.2295v64.2695h440.95v-78.7998h-352.69v-232.26h322.79v-78.7998h-322.79v-231.35h353.57v-78.7998h-441.83v66.0703
c-38.7002 -55.8496 -108.13 -77.0596 -172.03 -77.0596c-111.17 0 -245.27 57.6201 -245.27 227.36zM446.19 210.038l-0.00976562 266.3c0 102.75 -52.7305 160.82 -154.271 160.82c-98.4697 0 -157.92 -49.0098 -157.92 -159.91v-260.89
c0 -111.38 78.8301 -148.05 157.01 -148.05c77.1602 0 155.19 39.8799 155.19 141.729z" />
    <glyph glyph-name="P" unicode="P" horiz-adv-x="602" 
d="M81.5898 700h259.26c134.44 0 207.78 -94.6797 207.78 -200.56c0 -133.58 -76.2002 -211.061 -209.61 -211.011h-169.17v-288.43h-88.2598v700zM169.85 621.21l0.000976562 -253.76h168.21c81.4199 0 125.689 45.0596 125.689 131.229
c0 67.1904 -43.4805 122.53 -124.11 122.53h-169.79z" />
    <glyph glyph-name="Thorn" unicode="&#xde;" horiz-adv-x="602" 
d="M169.85 561.24l171 -0.00976562c134.45 0 207.79 -94.6797 207.79 -200.56c0 -133.57 -76.2002 -211.051 -209.62 -211.001h-169.17v-149.67h-88.2598v700h88.2598v-138.76zM169.85 482.44l0.000976562 -253.771h168.21c81.4297 0 125.699 45.0703 125.699 131.23
c0 67.2002 -43.4805 122.54 -124.12 122.54h-169.79z" />
    <glyph glyph-name="Q" unicode="Q" horiz-adv-x="620" 
d="M554.55 475.31l-0.00976562 -259.971c0 -67.2598 -20.6504 -116.939 -52.5703 -152.39l52.5801 -58.54l-46.1299 -38.4102l-53.0195 58.9004c-43.5195 -26.0596 -95.6797 -36.8994 -144.29 -36.8994c-111.17 0 -245.27 57.5996 -245.27 227.34v260.88
c0 158.66 100.71 238.71 246.18 238.71c156.06 0 242.529 -95.5801 242.529 -239.62zM355.57 225.929l88.2314 -98.2412c14.0898 21.8896 22.4795 50.6299 22.4795 87.6396v259.98c0 102.75 -52.7305 160.82 -154.271 160.82c-98.4697 0 -157.92 -49.0098 -157.92 -159.91
v-260.89c0 -111.38 78.8301 -148.05 157.01 -148.05c31.4102 0 62.4102 5.76953 88.3398 19.7695l-89.9902 99.9805z" />
    <glyph glyph-name="R" unicode="R" 
d="M81.5898 700h259.261c134.45 0 207.79 -93.4502 207.79 -198.05c0 -110.81 -53.6699 -178.84 -151.04 -196.25h-27.1699l192.06 -305.7h-103.07l-179.42 293.72h-110.15v-293.72h-88.2598v700zM169.851 621.2l0.000976562 -248.471h168.21
c81.4297 0 125.699 44.29 125.699 128.61c0 65.7598 -43.4805 119.91 -124.12 119.86h-169.79z" />
    <glyph glyph-name="Racute" unicode="&#x154;" 
d="M317.99 779.83h-58.5801l54.5195 119.17h83.3701zM81.5898 700h259.261c134.45 0 207.79 -93.4502 207.79 -198.05c0 -110.81 -53.6699 -178.84 -151.04 -196.25h-27.1699l192.06 -305.7h-103.07l-179.42 293.72h-110.15v-293.72h-88.2598v700zM169.851 621.2
l0.000976562 -248.471h168.21c81.4297 0 125.699 44.29 125.699 128.61c0 65.7598 -43.4805 119.91 -124.12 119.86h-169.79z" />
    <glyph glyph-name="Rcaron" unicode="&#x158;" 
d="M349.18 773.71h-81.5303l-127.49 139.52h73.1396l94.71 -101.11l92.0801 101.11h73.4004zM81.5791 700h259.261c134.45 0 207.79 -93.4502 207.79 -198.05c0 -110.81 -53.6699 -178.84 -151.04 -196.25h-27.1699l192.06 -305.7h-103.07l-179.42 293.72h-110.15v-293.72
h-88.2598v700zM169.84 621.2l0.000976562 -248.471h168.21c81.4297 0 125.699 44.29 125.699 128.61c0 65.7598 -43.4805 119.91 -124.12 119.86h-169.79z" />
    <glyph glyph-name="Rcommaaccent" unicode="&#x156;" 
d="M81.5898 700l259.261 -0.00878906c134.45 0 207.79 -93.4404 207.79 -198.051c0 -109.97 -52.9805 -177.569 -149.16 -194.26l-29.0498 -1.98047l192.06 -305.7h-103.07l-179.42 293.72h-110.15v-293.72h-88.2598v700zM169.851 621.201l0.000976562 -248.471h168.21
c81.4297 0 125.699 44.2803 125.699 128.61c0 65.75 -43.4805 119.91 -124.12 119.86h-169.79zM260.512 -206.01l18.3408 53c-8.23047 7 -13.7402 17 -13.7402 27c0 18 15.3799 34 33.7197 34c18.3301 0 33.7197 -16 33.7197 -34c0 -5 -1.41992 -10 -3.90039 -15
l-30.5801 -65h-37.5596z" />
    <glyph glyph-name="S" unicode="S" horiz-adv-x="576" 
d="M40.9502 193.85l84.1191 0.273438c1.71973 -65.5703 49.5801 -125.051 163.71 -125.051c110.45 0 159.75 50.3096 159.75 123.96c0 76.5801 -77.6504 99.0303 -172.091 128.5c-123.75 38.1797 -220.61 78.3594 -220.61 196.26c0 123.46 93.2695 193.34 230.55 193.34
c135.83 0 232.271 -68.79 233.421 -195.03h-84.2998c-1.15039 80.5596 -66.4902 116.729 -149.12 116.729c-83.6904 0 -144.79 -40.5996 -144.79 -108.33c0 -62.4004 57.6904 -89.0605 164.54 -119.041c143.49 -39 227.9 -96 227.9 -212.3
c0 -110.42 -67.0898 -204.16 -241.939 -204.16c-158.14 0 -249.409 90.4697 -251.14 204.85z" />
    <glyph glyph-name="Sacute" unicode="&#x15a;" horiz-adv-x="576" 
d="M299.09 779.83h-58.5801l54.5195 119.17h83.3701zM40.9502 193.85l84.1191 0.273438c1.71973 -65.5703 49.5801 -125.051 163.71 -125.051c110.45 0 159.75 50.3096 159.75 123.96c0 76.5801 -77.6504 99.0303 -172.091 128.5
c-123.75 38.1797 -220.61 78.3594 -220.61 196.26c0 123.46 93.2695 193.34 230.55 193.34c135.83 0 232.271 -68.79 233.421 -195.03h-84.2998c-1.15039 80.5596 -66.4902 116.729 -149.12 116.729c-83.6904 0 -144.79 -40.5996 -144.79 -108.33
c0 -62.4004 57.6904 -89.0605 164.54 -119.041c143.49 -39 227.9 -96 227.9 -212.3c0 -110.42 -67.0898 -204.16 -241.939 -204.16c-158.14 0 -249.409 90.4697 -251.14 204.85z" />
    <glyph glyph-name="Scaron" unicode="&#x160;" horiz-adv-x="576" 
d="M330.28 773.71h-81.5293l-127.48 139.52h73.1299l94.7197 -101.11l92.0703 101.11h73.4102zM40.9512 193.85l84.1064 0.260742c1.73047 -65.5596 49.5908 -125.05 163.711 -125.05c110.45 0 159.75 50.3203 159.75 123.971c0 76.5801 -77.6504 99.0205 -172.091 128.501
c-123.75 38.1797 -220.6 78.3496 -220.6 196.25c0 123.47 93.2598 193.34 230.55 193.34c135.82 0 232.261 -68.79 233.411 -195.021h-84.2998c-1.15039 80.5498 -66.4805 116.729 -149.11 116.729c-83.7002 0 -144.8 -40.6104 -144.8 -108.33
c0 -62.4004 57.6904 -89.0703 164.54 -119.051c143.5 -39 227.9 -96 227.9 -212.3c0 -110.41 -67.0898 -204.15 -241.939 -204.15c-158.14 0 -249.409 90.46 -251.129 204.85z" />
    <glyph glyph-name="Scedilla" unicode="&#x15e;" horiz-adv-x="576" 
d="M40.9502 193.85l84.1201 0.270508c1.71973 -65.5596 49.5801 -125.05 163.71 -125.05c110.45 0 159.75 50.3203 159.75 123.971c0 76.5801 -77.6504 99.0205 -172.091 128.501c-123.75 38.1797 -220.61 78.3496 -220.61 196.25c0 123.47 93.2695 193.34 230.55 193.34
c135.83 0 232.271 -68.79 233.421 -195.021h-84.2998c-1.15039 80.5498 -66.4902 116.72 -149.12 116.72c-83.6904 0 -144.79 -40.6104 -144.79 -108.33c0 -62.4004 57.6904 -89.0703 164.54 -119.051c143.49 -39 227.9 -96 227.9 -212.3
c0 -108.65 -64.9199 -201.15 -233.18 -204.15l-25.0498 -35c13.2197 5 28.4102 7 43.4102 6c46.0596 0 86.9795 -26 86.9795 -82c0 -74 -67.0801 -96 -129.96 -96c-40.0596 0 -78.9395 14 -108.499 26l16.8398 38c30.2197 -15.7197 63.5693 -22.0498 88.9189 -22.0498
c38.1699 0 73.2695 16.1299 73.2695 52.0498c0 29 -21.4805 45 -53.1104 45c-16.7002 0 -37.7998 -4 -68.0195 -18l-17.21 18l48.8203 69c-137.54 11.9199 -214.63 99.3096 -216.29 203.85z" />
    <glyph glyph-name="Scommaaccent" unicode="&#x218;" horiz-adv-x="584" 
d="M40.9502 193.85l84.1084 0.00195312c1.73047 -65.5703 49.5908 -125.051 163.711 -125.051c110.45 0 159.75 50.3096 159.75 123.96c0 76.5801 -77.6504 99.0303 -172.091 128.5c-123.75 38.1797 -220.6 78.3594 -220.6 196.26c0 123.46 93.2598 193.34 230.55 193.34
c135.82 0 232.261 -68.79 233.411 -195.03h-84.2998c-1.15039 80.5596 -66.4805 116.729 -149.11 116.729c-83.7002 0 -144.8 -40.5996 -144.8 -108.33c0 -62.5498 58.0195 -89.1699 165.069 -119.22c143.34 -38.6699 227.38 -95.7295 227.38 -211.85
c0 -110.42 -67.0898 -204.16 -241.939 -204.16c-158.14 0 -249.409 90.4697 -251.14 204.85zM253.059 -206.009l18.3398 53c-8.21973 7 -13.7393 17 -13.7393 27c0 18 15.3799 34 33.7197 34c18.3301 0 33.7197 -16 33.7197 -34c0 -5 -1.41992 -10 -3.90039 -15
l-30.5801 -65h-37.5596z" />
    <glyph glyph-name="T" unicode="T" horiz-adv-x="530" 
d="M489.15 621.2h-186.09v-621.2h-88.2598v621.2h-179.7v78.7998h454.05v-78.7998z" />
    <glyph glyph-name="Tbar" unicode="&#x166;" horiz-adv-x="530" 
d="M489.15 621.2h-186.09v-237.44h98.3398v-47.5098h-98.3398v-336.25h-88.2598v336.25h-91.9502v47.5098h91.9502v237.44h-179.7v78.7998h454.05v-78.7998z" />
    <glyph glyph-name="Tcaron" unicode="&#x164;" horiz-adv-x="530" 
d="M307.73 773.71h-81.5293l-127.48 139.52h73.1299l94.7197 -101.11l92.0703 101.11h73.4102zM489.142 621.2h-186.09v-621.2h-88.2598v621.2h-179.7v78.7998h454.05v-78.7998z" />
    <glyph glyph-name="Tcedilla" unicode="&#x162;" horiz-adv-x="530" 
d="M489.15 621.2l-186.082 -0.00976562v-621.2l-25.3604 -3l-28.0898 -39c11.9199 3.48047 25.3203 6.2002 38.7402 6.2002c47.9502 0 91.6504 -24.8604 91.6504 -82.1904c0 -74 -67.0801 -97 -129.96 -97c-40.0596 0 -78.9395 15 -108.499 26l16.8398 39
c28.8496 -16 60.5498 -21 85.4502 -23c39.4805 -1 76.7402 16 76.7402 52c0 30 -21.4902 46 -53.1104 46c-16.7002 0 -37.7998 -4 -68.0195 -18l-17.21 18l51.8301 73l-19.2695 2v621.2h-179.7v78.7998h454.05v-78.7998z" />
    <glyph glyph-name="uni021A" unicode="&#x21a;" horiz-adv-x="524" 
d="M489.15 621.2h-186.09v-621.2h-88.2598v621.2h-179.7v78.7998h454.05v-78.7998zM220.341 -206l18.3398 53c-8.21973 7 -13.7393 17 -13.7393 27c0 18 15.3896 34 33.7197 34c18.3398 0 33.7197 -16 33.7197 -34c0 -5 -1.41016 -10 -3.89062 -15l-30.5898 -65h-37.5596z
" />
    <glyph glyph-name="U" unicode="U" horiz-adv-x="627" 
d="M558.81 700.47l0.000976562 -484.091c0 -169.55 -131.2 -227.38 -243.44 -227.38c-111.13 0 -245.26 57.6104 -245.26 227.38v484.09h88.25v-484.09c0 -111.38 78.8301 -148.05 157.01 -148.05c78.8896 0 155.189 36.4404 155.189 148.051v484.09h88.25z" />
    <glyph glyph-name="Uacute" unicode="&#xda;" horiz-adv-x="627" 
d="M324.47 779.83h-58.5703l54.5195 119.17h83.3604zM558.81 700.47l0.000976562 -484.091c0 -169.55 -131.2 -227.38 -243.44 -227.38c-111.13 0 -245.26 57.6104 -245.26 227.38v484.09h88.25v-484.09c0 -111.38 78.8301 -148.05 157.01 -148.05
c78.8896 0 155.189 36.4404 155.189 148.051v484.09h88.25z" />
    <glyph glyph-name="Ucaron" unicode="&#x1d3;" horiz-adv-x="627" 
d="M355.37 773.71h-81.5303l-127.49 139.52h73.1396l94.71 -101.11l92.0801 101.11h73.4004zM558.8 700.47l0.000976562 -484.091c0 -169.55 -131.2 -227.38 -243.44 -227.38c-111.13 0 -245.26 57.6104 -245.26 227.38v484.09h88.25v-484.09
c0 -111.38 78.8301 -148.05 157.01 -148.05c78.8896 0 155.189 36.4404 155.189 148.051v484.09h88.25z" />
    <glyph glyph-name="Ucircumflex" unicode="&#xdb;" horiz-adv-x="627" 
d="M480.48 771.41h-73.4004l-92.0703 101.11l-94.7197 -101.11h-73.1299l127.48 139.52h81.5195zM558.82 700.47l0.000976562 -484.091c0 -169.56 -131.21 -227.38 -243.44 -227.38c-111.14 0 -245.27 57.6104 -245.27 227.38v484.09h88.2598v-484.09
c0 -111.38 78.8301 -148.06 157.01 -148.06c78.8799 0 155.18 36.4404 155.18 148.061v484.09h88.2598z" />
    <glyph glyph-name="Udieresis" unicode="&#xdc;" horiz-adv-x="627" 
d="M222.92 874.11c22.8896 0 40.9609 -18.0703 40.9609 -42.2402c0 -23.3203 -18.0703 -42.2305 -41.3906 -42.2305c-23.7402 0 -42.6602 18.9102 -42.6602 42.2305c0 24.1699 18.9199 42.2402 43.0898 42.2402zM408.781 874.11c22.9004 0 40.96 -18.0703 40.96 -42.2402
c0 -23.3203 -18.0596 -42.2305 -41.3799 -42.2305c-23.75 0 -42.6602 18.9102 -42.6602 42.2305c0 24.1699 18.9102 42.2402 43.0801 42.2402zM558.812 700.471l0.000976562 -484.091c0 -169.55 -131.2 -227.38 -243.44 -227.38c-111.13 0 -245.26 57.6104 -245.26 227.38
v484.09h88.25v-484.09c0 -111.38 78.8301 -148.05 157.01 -148.05c78.8896 0 155.189 36.4404 155.189 148.051v484.09h88.25z" />
    <glyph glyph-name="Udieresisacute" unicode="&#x1d7;" horiz-adv-x="647" 
d="M357.95 894.1h-58.5703l54.5195 119.17h83.3604zM235.689 859.43c22.8896 0 40.9609 -18.0703 40.9609 -42.2402c0 -23.3203 -18.0703 -42.2305 -41.3906 -42.2305c-23.7402 0 -42.6602 18.9102 -42.6602 42.2305c0 24.1699 18.9199 42.2402 43.0898 42.2402z
M421.551 859.43c22.9004 0 40.96 -18.0703 40.96 -42.2402c0 -23.3203 -18.0596 -42.2305 -41.3799 -42.2305c-23.75 0 -42.6602 18.9102 -42.6602 42.2305c0 24.1699 18.9102 42.2402 43.0801 42.2402zM558.811 700.47l0.000976562 -484.091
c0 -169.55 -131.2 -227.38 -243.44 -227.38c-111.13 0 -245.26 57.6104 -245.26 227.38v484.09h88.25v-484.09c0 -111.38 78.8301 -148.05 157.01 -148.05c78.8896 0 155.189 36.4404 155.189 148.051v484.09h88.25z" />
    <glyph glyph-name="Udieresiscaron" unicode="&#x1d9;" horiz-adv-x="627" 
d="M355.37 901.9h-81.5303l-127.49 139.52h73.1396l94.71 -101.12l92.0801 101.12h73.4004zM222.91 865.49c22.9004 0 40.96 -18.0703 40.96 -42.2402c0 -23.3203 -18.0596 -42.2305 -41.3799 -42.2305c-23.75 0 -42.6602 18.9102 -42.6602 42.2305
c0 24.1699 18.9102 42.2402 43.0801 42.2402zM408.78 865.49c22.8896 0 40.9609 -18.0703 40.9609 -42.2402c0 -23.3203 -18.0703 -42.2305 -41.3906 -42.2305c-23.7402 0 -42.6602 18.9102 -42.6602 42.2305c0 24.1699 18.9199 42.2402 43.0898 42.2402zM558.812 700.471
l0.000976562 -484.091c0 -169.56 -131.21 -227.38 -243.44 -227.38c-111.14 0 -245.27 57.6104 -245.27 227.38v484.09h88.2598v-484.09c0 -111.38 78.8301 -148.06 157.01 -148.06c78.8799 0 155.18 36.4404 155.18 148.061v484.09h88.2598z" />
    <glyph glyph-name="Udieresisgrave" unicode="&#x1db;" horiz-adv-x="647" 
d="M371.53 894.45h-58.5801l-79.2402 119.17h83.29zM235.69 859.42c22.8896 0 40.9609 -18.0596 40.9609 -42.2295c0 -23.3203 -18.0703 -42.2402 -41.3906 -42.2402c-23.7402 0 -42.6602 18.9199 -42.6602 42.2402c0 24.1699 18.9199 42.2295 43.0898 42.2295z
M421.552 859.42c22.9004 0 40.96 -18.0596 40.96 -42.2295c0 -23.3203 -18.0596 -42.2402 -41.3799 -42.2402c-23.75 0 -42.6602 18.9199 -42.6602 42.2402c0 24.1699 18.9102 42.2295 43.0801 42.2295zM558.812 700.47l0.000976562 -484.091
c0 -169.56 -131.2 -227.38 -243.44 -227.38c-111.13 0 -245.26 57.6104 -245.26 227.38v484.09h88.25v-484.09c0 -111.38 78.8301 -148.06 157.01 -148.06c78.8896 0 155.189 36.4404 155.189 148.061v484.09h88.25z" />
    <glyph glyph-name="Udieresismacron" unicode="&#x1d5;" horiz-adv-x="647" 
d="M448.58 909.13h-242.62v47.5098h242.62v-47.5098zM235.69 859.42c22.8896 0 40.9609 -18.0596 40.9609 -42.2295c0 -23.3203 -18.0703 -42.2402 -41.3906 -42.2402c-23.7402 0 -42.6602 18.9199 -42.6602 42.2402c0 24.1699 18.9199 42.2295 43.0898 42.2295z
M421.552 859.42c22.9004 0 40.96 -18.0596 40.96 -42.2295c0 -23.3203 -18.0596 -42.2402 -41.3799 -42.2402c-23.75 0 -42.6602 18.9199 -42.6602 42.2402c0 24.1699 18.9102 42.2295 43.0801 42.2295zM558.812 700.47l0.000976562 -484.091
c0 -169.56 -131.2 -227.38 -243.44 -227.38c-111.13 0 -245.26 57.6104 -245.26 227.38v484.09h88.25v-484.09c0 -111.38 78.8301 -148.06 157.01 -148.06c78.8896 0 155.189 36.4404 155.189 148.061v484.09h88.25z" />
    <glyph glyph-name="Ugrave" unicode="&#xd9;" horiz-adv-x="627" 
d="M365.52 781.96h-58.5801l-79.3096 119.16h83.3701zM558.81 700.47l0.000976562 -484.091c0 -169.56 -131.2 -227.38 -243.44 -227.38c-111.13 0 -245.26 57.6104 -245.26 227.38v484.09h88.25v-484.09c0 -111.38 78.8301 -148.06 157.01 -148.06
c78.8896 0 155.189 36.4404 155.189 148.061v484.09h88.25z" />
    <glyph glyph-name="Uhungarumlaut" unicode="&#x170;" horiz-adv-x="647" 
d="M277.28 781.54h-55.2803l50.6699 120.01h78.0801zM412.06 781.54h-55.29l50.6699 120.01h78.0898zM558.81 700.47l0.000976562 -484.091c0 -169.56 -131.2 -227.38 -243.44 -227.38c-111.13 0 -245.26 57.6104 -245.26 227.38v484.09h88.25v-484.09
c0 -111.38 78.8301 -148.06 157.01 -148.06c78.8896 0 155.189 36.4404 155.189 148.061v484.09h88.25z" />
    <glyph glyph-name="Umacron" unicode="&#x16a;" horiz-adv-x="647" 
d="M443.57 808.79h-242.61v47.5098h242.61v-47.5098zM558.81 700.47l0.000976562 -484.091c0 -169.55 -131.2 -227.38 -243.44 -227.38c-111.13 0 -245.26 57.6104 -245.26 227.38v484.09h88.25v-484.09c0 -111.38 78.8301 -148.05 157.01 -148.05
c78.8896 0 155.189 36.4404 155.189 148.051v484.09h88.25z" />
    <glyph glyph-name="Uogonek" unicode="&#x172;" horiz-adv-x="647" 
d="M570.3 700.47l0.00195312 -484.39c0 -132.15 -82.1396 -191.891 -164.68 -212.081c-64.3799 -52 -73.9297 -87 -75.3799 -110c-1.01953 -36.9902 23.1201 -52.04 52.6602 -52.04c28.6396 0 50.7793 16.7998 69.2197 43.04l35.8896 -15
c-27.0801 -45 -69.9102 -72 -122.521 -72c-40.4004 0 -94.6807 20 -94.6807 86c0 23 8.79004 59 62.7803 105c-31.2998 0 -52.0498 3 -75.1094 8c-90.9902 20.1201 -176.891 83.8203 -176.891 219.38v484.09h88.2598v-484.09c0 -111.38 78.8301 -148.05 157.01 -148.05
c78.8799 0 155.18 36.4404 155.18 148.051v484.09h88.2598z" />
    <glyph glyph-name="Uring" unicode="&#x16e;" horiz-adv-x="627" 
d="M312.62 952.91c62.96 0 117.38 -53.4297 117.38 -117.17c0 -62.7695 -53.9004 -117.18 -117.381 -117.18c-63.5098 0 -117.39 54.8799 -117.39 117.18c0 63.2598 54.4102 117.17 117.391 117.17zM312.61 907.411c-40.2598 0 -72.0205 -31.4199 -72.0205 -71.6699
c0 -40.0098 31.8799 -72.2402 72.0303 -72.2402c39.5703 0 71.4502 32.2305 71.4502 72.2402c0 40.25 -31.7695 71.6699 -71.46 71.6699zM558.81 700.481l0.000976562 -484.091c0 -169.56 -131.21 -227.38 -243.44 -227.38c-111.14 0 -245.27 57.6104 -245.27 227.38v484.09
h88.2598v-484.09c0 -111.38 78.8301 -148.06 157.01 -148.06c78.8799 0 155.18 36.4404 155.18 148.061v484.09h88.2598z" />
    <glyph glyph-name="V" unicode="V" horiz-adv-x="592" 
d="M351.19 0h-126.021l-209.43 700h91l180.86 -605.46l180.86 605.46h91.0498z" />
    <glyph glyph-name="W" unicode="W" horiz-adv-x="829" 
d="M637.43 0h-112.707l-109.4 498.35l-109.41 -498.35h-112.7l-165.98 700h91.8896l130.77 -589.8l122.68 589.8h85.5l122.68 -590.38l129.04 590.38h92.4697z" />
    <glyph glyph-name="Wacute" unicode="&#x1e82;" horiz-adv-x="829" 
d="M446.79 779.08h-58.5801l54.5195 119.16h83.3701zM637.43 0h-112.708l-109.41 498.35l-109.4 -498.35h-112.71l-165.98 700h91.9004l130.77 -589.8l122.68 589.8h85.4902l122.68 -590.38l129.05 590.38h92.4697z" />
    <glyph glyph-name="Wcircumflex" unicode="&#x174;" horiz-adv-x="829" 
d="M582.65 771.41h-73.3896l-92.0801 101.11l-94.71 -101.11h-73.1396l127.49 139.52h81.5195zM637.44 0h-112.708l-109.41 498.35l-109.4 -498.35h-112.71l-165.98 700h91.9004l130.77 -589.8l122.68 589.8h85.4902l122.68 -590.38l129.05 590.38h92.4697z" />
    <glyph glyph-name="Wdieresis" unicode="&#x1e84;" horiz-adv-x="829" 
d="M325.09 874.1c22.9004 0 40.96 -18.0596 40.96 -42.2295c0 -23.3203 -18.0596 -42.2402 -41.3799 -42.2402c-23.75 0 -42.6602 18.9199 -42.6602 42.2402c0 24.1699 18.9102 42.2295 43.0801 42.2295zM510.96 874.1c22.8896 0 40.9609 -18.0596 40.9609 -42.2295
c0 -23.3203 -18.0703 -42.2402 -41.3906 -42.2402c-23.7402 0 -42.6602 18.9199 -42.6602 42.2402c0 24.1699 18.9199 42.2295 43.0898 42.2295zM637.431 -0h-112.707l-109.4 498.35l-109.41 -498.35h-112.7l-165.98 700h91.8896l130.77 -589.8l122.68 589.8h85.5
l122.68 -590.38l129.04 590.38h92.4697z" />
    <glyph glyph-name="Wgrave" unicode="&#x1e80;" horiz-adv-x="829" 
d="M449.67 781.53h-58.5693l-79.2402 119.16h83.29zM637.44 0h-112.708l-109.41 498.35l-109.4 -498.35h-112.71l-165.98 700h91.9004l130.77 -589.8l122.68 589.8h85.4902l122.68 -590.38l129.05 590.38h92.4697z" />
    <glyph glyph-name="X" unicode="X" horiz-adv-x="628" 
d="M374.75 362.75l225.84 -362.75h-103.53l-183.41 293.23l-181.76 -293.23h-104.66l226.86 362.78l-209.49 337.22h101.76l167.16 -279.28l167.15 279.28h103.59z" />
    <glyph glyph-name="Y" unicode="Y" horiz-adv-x="594" 
d="M340.55 325.43l-0.00976562 -325.43h-88.25v323.68l-225.07 376.32h101.59l167.15 -291.71l167.16 291.71h103.72z" />
    <glyph glyph-name="Yacute" unicode="&#xdd;" horiz-adv-x="594" 
d="M308.42 779.83h-58.5703l54.5195 119.17h83.3604zM340.55 325.43l-0.00976562 -325.43h-88.25v323.68l-225.07 376.32h101.59l167.15 -291.71l167.16 291.71h103.72z" />
    <glyph glyph-name="Ycircumflex" unicode="&#x176;" horiz-adv-x="594" 
d="M464.73 771.41h-73.4004l-92.0703 101.11l-94.7197 -101.11h-73.1299l127.48 139.52h81.5195zM340.561 325.43l-0.00976562 -325.43h-88.25v323.68l-225.07 376.32h101.59l167.15 -291.71l167.16 291.71h103.72z" />
    <glyph glyph-name="Ydieresis" unicode="&#x178;" horiz-adv-x="594" 
d="M207.17 874.1c22.8896 0 40.9609 -18.0596 40.9609 -42.2295c0 -23.3203 -18.0703 -42.2402 -41.3906 -42.2402c-23.7402 0 -42.6602 18.9199 -42.6602 42.2402c0 24.1699 18.9199 42.2295 43.0898 42.2295zM393.031 874.1c22.9004 0 40.96 -18.0596 40.96 -42.2295
c0 -23.3203 -18.0596 -42.2402 -41.3799 -42.2402c-23.75 0 -42.6602 18.9199 -42.6602 42.2402c0 24.1699 18.9102 42.2295 43.0801 42.2295zM340.551 325.43l-0.00976562 -325.43h-88.25v323.68l-225.07 376.32h101.59l167.15 -291.71l167.16 291.71h103.72z" />
    <glyph glyph-name="Ygrave" unicode="&#x1ef2;" horiz-adv-x="594" 
d="M350.03 781.96h-58.5811l-79.3096 119.16h83.3604zM340.549 325.43l-0.0117188 -325.43h-88.2598v323.68l-225.06 376.32h101.58l167.16 -291.71l167.15 291.71h103.73z" />
    <glyph glyph-name="Z" unicode="Z" horiz-adv-x="583" 
d="M535.38 643.66l-373.76 -564.86h379.24v-78.7998h-498.63v56.3301l373.76 564.87h-351.46v78.7998h470.85v-56.3398z" />
    <glyph glyph-name="Zacute" unicode="&#x179;" horiz-adv-x="583" 
d="M320.81 779.83h-58.5811l54.5303 119.17h83.3604zM535.379 643.66l-373.761 -564.86h379.23v-78.7998h-498.62v56.3301l373.76 564.87h-351.47v78.7998h470.86v-56.3398z" />
    <glyph glyph-name="Zcaron" unicode="&#x17d;" horiz-adv-x="583" 
d="M336.86 773.71h-81.5293l-127.48 139.52h73.1299l94.7197 -101.11l92.0703 101.11h73.4102zM535.371 643.66l-373.76 -564.86h379.24v-78.7998h-498.63v56.3301l373.76 564.87h-351.46v78.7998h470.85v-56.3398z" />
    <glyph glyph-name="Zdotaccent" unicode="&#x17b;" horiz-adv-x="583" 
d="M304.47 876.54c22.9004 0 40.96 -18.0703 40.96 -42.2402c0 -23.3203 -18.0596 -42.2305 -41.3799 -42.2305c-23.75 0 -42.6602 18.9102 -42.6602 42.2305c0 24.1699 18.9102 42.2402 43.0801 42.2402zM535.38 643.66l-373.76 -564.86h379.24v-78.7998h-498.63v56.3301
l373.76 564.87h-351.46v78.7998h470.85v-56.3398z" />
    <glyph glyph-name="a" unicode="a" horiz-adv-x="497" 
d="M111.93 409.76l-43.3125 43.1504c33.6797 31.0596 84.5 56.3896 160.98 56.3896c180.65 0 211.301 -101.89 211.301 -209.359v-301.95h-66.5303l-1.9502 26.2803c-38.6797 -22.8799 -88.1992 -34.2803 -136.239 -34.2803c-103.95 2 -196.07 45.3896 -196.07 173.26
c0 133.97 103.76 166.77 208.2 166.77c33.4102 0 71.4805 -3.92969 107.711 -8.92969c-1.16992 62.1797 -20.96 118.569 -134.63 118.569c-43.4805 0 -80.1602 -11.1396 -109.46 -29.8994zM356.018 82.5605l-0.0107422 179.151
c-31.4502 4.09961 -64.2705 7.51953 -95.04 7.51953c-77.2695 0 -142.229 -21.1904 -142.229 -105.98c0 -80.6904 58.8096 -105.99 131.29 -105.99c37.6104 0 76.5801 9.58008 105.99 25.2998z" />
    <glyph glyph-name="a.ss01" horiz-adv-x="504" 
d="M442.76 0l-66.5312 0.00976562l-1.9502 26c-38.6797 -22.8799 -88.1992 -34 -136.239 -34c-96.5596 0 -192.189 45.1299 -192.189 171.34v171.49c0 130.28 90.0195 174.19 183.949 174.19c49.6504 0 103.32 -13.5703 144.471 -32.8799l1.9502 24.8496h66.54v-501z
M357.889 82.5498l0.0107422 338.058c-27.6299 11.8701 -70.4102 21.8105 -112.18 21.8105c-69.4902 0 -114.98 -29.5898 -114.98 -113.05v-166.93c0.419922 -70.0996 48.2295 -103.439 119.529 -103.439c38.4805 0 76.9404 8.65039 107.62 23.5508z" />
    <glyph glyph-name="aacute" unicode="&#xe1;" horiz-adv-x="497" 
d="M269.67 580.83h-58.5703l54.5195 119.17h83.3604zM111.93 409.76l-43.3125 43.1514c33.6797 31.0596 84.5 56.3994 160.98 56.3994c180.65 0 211.301 -101.9 211.301 -209.36v-301.95h-66.5303l-1.9502 26.2695c-38.6797 -22.8799 -88.1992 -34.2695 -136.239 -34.2695
c-103.95 2 -196.07 45.3799 -196.07 173.26c0 133.97 103.76 166.77 208.2 166.77c33.4102 0 71.4805 -3.92969 107.711 -8.92969c-1.16992 62.1699 -20.96 118.57 -134.63 118.57c-43.4805 0 -80.1602 -11.1504 -109.46 -29.9102zM356.018 82.5713l-0.0107422 179.139
c-31.4502 4.11035 -64.2705 7.53027 -95.04 7.53027c-77.2695 0 -142.229 -21.2002 -142.229 -105.99c0 -80.6797 58.8096 -105.979 131.29 -105.979c37.6104 0 76.5801 9.57031 105.99 25.3008z" />
    <glyph glyph-name="abreve" unicode="&#x103;" horiz-adv-x="497" 
d="M353.32 703.59h42.2793c0 -77.4502 -60.9697 -133.32 -138.96 -133.32c-77.9805 0 -138.961 55.8701 -138.961 133.32h42.2803c2.98047 -48.9004 44.3809 -85.2305 96.6807 -85.2305c51.7305 0 93.7002 36.3301 96.6807 85.2305zM111.93 409.76l-43.3125 43.1504
c33.6797 31.0596 84.5 56.3896 160.98 56.3896c180.65 0 211.301 -101.89 211.301 -209.359v-301.95h-66.5303l-1.9502 26.2803c-38.6797 -22.8799 -88.1992 -34.2803 -136.239 -34.2803c-103.95 2 -196.07 45.3896 -196.07 173.26c0 133.97 103.76 166.77 208.2 166.77
c33.4102 0 71.4805 -3.92969 107.711 -8.92969c-1.16992 62.1797 -20.96 118.569 -134.63 118.569c-43.4805 0 -80.1602 -11.1396 -109.46 -29.8994zM356.018 82.5605l-0.0107422 179.151c-31.4502 4.09961 -64.2705 7.51953 -95.04 7.51953
c-77.2695 0 -142.229 -21.1904 -142.229 -105.98c0 -80.6904 58.8096 -105.99 131.29 -105.99c37.6104 0 76.5801 9.58008 105.99 25.2998z" />
    <glyph glyph-name="acaron" unicode="&#x1ce;" horiz-adv-x="497" 
d="M299.38 574.71h-81.5303l-127.49 139.52h73.1396l94.71 -101.11l92.0801 101.11h73.4004zM111.92 409.76l-43.3125 43.1514c33.6797 31.0596 84.5 56.3994 160.98 56.3994c180.65 0 211.301 -101.9 211.301 -209.36v-301.95h-66.5303l-1.9502 26.2695
c-38.6797 -22.8799 -88.1992 -34.2695 -136.239 -34.2695c-103.95 2 -196.07 45.3799 -196.07 173.26c0 133.97 103.76 166.77 208.2 166.77c33.4102 0 71.4805 -3.92969 107.711 -8.92969c-1.16992 62.1699 -20.96 118.57 -134.63 118.57
c-43.4805 0 -80.1602 -11.1504 -109.46 -29.9102zM356.008 82.5713l-0.0107422 179.139c-31.4502 4.11035 -64.2705 7.53027 -95.04 7.53027c-77.2695 0 -142.229 -21.2002 -142.229 -105.99c0 -80.6797 58.8096 -105.979 131.29 -105.979
c37.6104 0 76.5801 9.57031 105.99 25.3008z" />
    <glyph glyph-name="acircumflex" unicode="&#xe2;" horiz-adv-x="497" 
d="M424.49 572.41h-73.4004l-92.0703 101.11l-94.7197 -101.11h-73.1299l127.48 139.52h81.5195zM111.939 409.76l-43.3115 43.1504c33.6699 31.0596 84.4902 56.3896 160.971 56.3896c180.66 0 211.311 -101.89 211.311 -209.359v-301.95h-66.54l-1.9502 26.2803
c-38.6699 -22.8799 -88.1895 -34.2803 -136.229 -34.2803c-103.95 2 -196.08 45.3896 -196.08 173.26c0 133.97 103.77 166.77 208.199 166.77c33.4102 0 71.4805 -3.92969 107.721 -8.92969c-1.16992 62.1797 -20.96 118.569 -134.64 118.569
c-43.4805 0 -80.1504 -11.1396 -109.45 -29.8994zM356.018 82.5605l-0.00195312 179.151c-31.46 4.09961 -64.2803 7.51953 -95.0498 7.51953c-77.2598 0 -142.22 -21.1904 -142.22 -105.98c0 -80.6904 58.7998 -105.99 131.28 -105.99
c37.6104 0 76.5908 9.58008 105.991 25.2998z" />
    <glyph glyph-name="adieresis" unicode="&#xe4;" horiz-adv-x="497" 
d="M166.93 675.1c22.8896 0 40.9609 -18.0596 40.9609 -42.2295c0 -23.3203 -18.0703 -42.2402 -41.3906 -42.2402c-23.7402 0 -42.6602 18.9199 -42.6602 42.2402c0 24.1699 18.9199 42.2295 43.0898 42.2295zM352.791 675.1c22.9004 0 40.96 -18.0596 40.96 -42.2295
c0 -23.3203 -18.0596 -42.2402 -41.3799 -42.2402c-23.75 0 -42.6602 18.9199 -42.6602 42.2402c0 24.1699 18.9102 42.2295 43.0801 42.2295zM111.931 409.76l-43.3125 43.1504c33.6797 31.0596 84.5 56.3896 160.98 56.3896c180.65 0 211.301 -101.89 211.301 -209.359
v-301.95h-66.5303l-1.9502 26.2803c-38.6797 -22.8799 -88.1992 -34.2803 -136.239 -34.2803c-103.95 2 -196.07 45.3896 -196.07 173.26c0 133.97 103.76 166.77 208.2 166.77c33.4102 0 71.4805 -3.92969 107.711 -8.92969
c-1.16992 62.1797 -20.96 118.569 -134.63 118.569c-43.4805 0 -80.1602 -11.1396 -109.46 -29.8994zM356.019 82.5605l-0.0107422 179.151c-31.4502 4.09961 -64.2705 7.51953 -95.04 7.51953c-77.2695 0 -142.229 -21.1904 -142.229 -105.98
c0 -80.6904 58.8096 -105.99 131.29 -105.99c37.6104 0 76.5801 9.58008 105.99 25.2998z" />
    <glyph glyph-name="agrave" unicode="&#xe0;" horiz-adv-x="497" 
d="M315.9 580.83h-58.5801l-79.3096 119.17h83.3701zM111.931 409.76l-43.3125 43.1514c33.6797 31.0596 84.5 56.3994 160.98 56.3994c180.65 0 211.301 -101.9 211.301 -209.36v-301.95h-66.5303l-1.9502 26.2695c-38.6797 -22.8799 -88.1992 -34.2695 -136.239 -34.2695
c-103.95 2 -196.07 45.3799 -196.07 173.26c0 133.97 103.76 166.77 208.2 166.77c33.4102 0 71.4805 -3.92969 107.711 -8.92969c-1.16992 62.1699 -20.96 118.57 -134.63 118.57c-43.4805 0 -80.1602 -11.1504 -109.46 -29.9102zM356.019 82.5713l-0.0107422 179.139
c-31.4502 4.11035 -64.2705 7.53027 -95.04 7.53027c-77.2695 0 -142.229 -21.2002 -142.229 -105.99c0 -80.6797 58.8096 -105.979 131.29 -105.979c37.6104 0 76.5801 9.57031 105.99 25.3008z" />
    <glyph glyph-name="amacron" unicode="&#x101;" horiz-adv-x="497" 
d="M377.27 604.25h-242.62v47.5098h242.62v-47.5098zM111.93 409.76l-43.3125 43.1504c33.6797 31.0596 84.5 56.3896 160.98 56.3896c180.65 0 211.301 -101.89 211.301 -209.359v-301.95h-66.5303l-1.9502 26.2803c-38.6797 -22.8799 -88.1992 -34.2803 -136.239 -34.2803
c-103.95 2 -196.07 45.3896 -196.07 173.26c0 133.97 103.76 166.77 208.2 166.77c33.4102 0 71.4805 -3.92969 107.711 -8.92969c-1.16992 62.1797 -20.96 118.569 -134.63 118.569c-43.4805 0 -80.1602 -11.1396 -109.46 -29.8994zM356.018 82.5605l-0.0107422 179.151
c-31.4502 4.09961 -64.2705 7.51953 -95.04 7.51953c-77.2695 0 -142.229 -21.1904 -142.229 -105.98c0 -80.6904 58.8096 -105.99 131.29 -105.99c37.6104 0 76.5801 9.58008 105.99 25.2998z" />
    <glyph glyph-name="aogonek" unicode="&#x105;" horiz-adv-x="497" 
d="M111.9 409.76l-43.2979 43.1504c33.6797 31.0596 84.5 56.3896 160.97 56.3896c180.66 0 211.311 -101.89 211.311 -209.359v-301.95l-19.0303 -3c-55.7402 -47.7197 -63.4307 -82.5293 -63.4307 -103.239c0 -35.4102 23.7305 -50.7998 52.6904 -50.7998
c28.6396 0 50.7793 16.8301 69.209 44.0498l35.8896 -16c-27.0498 -45 -69.8701 -72 -122.51 -72c-40.4004 0 -94.6807 21 -94.6807 87c0 23 8.80957 66 75.3096 114l-1.9502 26.2695c-38.6699 -22.8799 -88.1895 -34.2695 -136.229 -34.2695
c-103.95 2 -196.08 45.3896 -196.08 173.26c0 133.97 103.77 166.77 208.199 166.77c33.4102 0 71.4805 -3.92969 107.721 -8.92969c-1.16992 62.1797 -20.96 118.569 -134.63 118.569c-43.4805 0 -80.1602 -11.1504 -109.46 -29.9102zM356.003 82.5605l-0.00195312 179.151
c-31.46 4.09961 -64.2803 7.51953 -95.0498 7.51953c-77.2598 0 -142.22 -21.1904 -142.22 -105.98c0 -80.6904 58.7998 -105.99 131.28 -105.99c37.6104 0 76.5908 9.58008 105.991 25.2998z" />
    <glyph glyph-name="aring" unicode="&#xe5;" horiz-adv-x="497" 
d="M256.63 771.14c62.9502 0 117.389 -53.4297 117.389 -117.17c0 -62.8701 -53.8896 -117.18 -117.39 -117.18c-63.5098 0 -117.39 54.8799 -117.39 117.18c0 63.2598 54.4102 117.17 117.391 117.17zM256.628 725.63c-40.2598 0 -72.0312 -31.4199 -72.0312 -71.6699
c0 -40.0098 31.8799 -72.2402 72.0303 -72.2402c39.6504 0 71.4502 32.1602 71.4502 72.2402c0 40.25 -31.7695 71.6699 -71.4492 71.6699zM111.926 409.76l-43.3125 43.1504c33.6797 31.0596 84.5 56.3896 160.98 56.3896c180.65 0 211.301 -101.89 211.301 -209.359
v-301.95h-66.5303l-1.9502 26.2803c-38.6797 -22.8799 -88.1992 -34.2803 -136.239 -34.2803c-103.95 2 -196.07 45.3896 -196.07 173.26c0 133.97 103.76 166.77 208.2 166.77c33.4102 0 71.4805 -3.92969 107.711 -8.92969
c-1.16992 62.1797 -20.96 118.569 -134.63 118.569c-43.4805 0 -80.1602 -11.1396 -109.46 -29.8994zM356.014 82.5605l-0.0107422 179.151c-31.4502 4.09961 -64.2705 7.51953 -95.04 7.51953c-77.2695 0 -142.229 -21.1904 -142.229 -105.98
c0 -80.6904 58.8096 -105.99 131.29 -105.99c37.6104 0 76.5801 9.58008 105.99 25.2998z" />
    <glyph glyph-name="atilde" unicode="&#xe3;" horiz-adv-x="497" 
d="M122.35 598.53l-31.3789 42.2705c20.0996 21.2598 62.4092 56.4297 105.209 56.4297c50.2305 0 83.9004 -40.75 126.92 -40.75c28.4004 0 54.9502 24.8701 68.1602 38.6504l31.0898 -42.8398c-16.0898 -14.9404 -56.9395 -47.8105 -96.8691 -47.8105
c-50.2305 0 -85.4609 39.5996 -130.451 39.5996c-28.8096 0 -56.0195 -26.5898 -72.6797 -45.5498zM111.94 409.761l-43.3125 43.1504c33.6797 31.0596 84.5 56.3896 160.98 56.3896c180.65 0 211.301 -101.89 211.301 -209.359v-301.95h-66.5303l-1.9502 26.2803
c-38.6797 -22.8799 -88.1992 -34.2803 -136.239 -34.2803c-103.95 2 -196.07 45.3896 -196.07 173.26c0 133.97 103.76 166.77 208.2 166.77c33.4102 0 71.4805 -3.92969 107.711 -8.92969c-1.16992 62.1797 -20.96 118.569 -134.63 118.569
c-43.4805 0 -80.1602 -11.1396 -109.46 -29.8994zM356.028 82.5615l-0.0107422 179.151c-31.4502 4.09961 -64.2705 7.51953 -95.04 7.51953c-77.2695 0 -142.229 -21.1904 -142.229 -105.98c0 -80.6904 58.8096 -105.99 131.29 -105.99
c37.6104 0 76.5801 9.58008 105.99 25.2998z" />
    <glyph glyph-name="ae" unicode="&#xe6;" horiz-adv-x="810" 
d="M111.93 409.76l-43.3008 43.1504c33.6797 31.0596 84.4893 56.3896 160.749 56.3896c106.74 0 157.15 -36.1699 182.24 -85.0801c29.4102 55.6299 90.4404 85.6602 170.7 85.6602c125.92 0 187.12 -73.0703 187.12 -184.66v-104.61h-304.1v-69.04
c0 -66.2305 48.4102 -97.3203 110.03 -97.3203c40.46 0 86.5303 14.1201 125.04 39.7197l46.3203 -40.0098c-41.2598 -38.4902 -98.6602 -63.9707 -178.5 -63.9707c-55.6699 0 -100.08 15.1699 -127.33 46.2598v-38.2598h-66.5303l-1.9502 26.2803
c-37.5303 -22.3096 -85.3301 -34.2793 -136.24 -34.2793c-103.95 0 -196.07 45.3896 -196.07 173.26c0 133.97 103.76 166.77 208.2 166.77c33.4102 0 71.4805 -3.92969 107.711 -8.92969l-0.0195312 4.91016c-2.28027 60.0098 -23.6807 113.66 -134.61 113.66
c-43.4805 0 -80.1602 -11.1396 -109.46 -29.8994zM689.669 276.63l0.0107422 51.2998c0 86.0498 -53.6904 114.33 -108.801 114.33c-60.0996 0 -113.26 -30.1299 -113.26 -116.06v-49.5703h222.05zM356.04 82.5693l-0.0107422 179.139
c-31.4502 4.11035 -64.2705 7.53027 -95.04 7.53027c-77.2695 0 -142.229 -21.2002 -142.229 -105.99c0 -80.6797 58.8096 -105.979 131.29 -105.979c37.6104 0 76.5801 9.57031 105.99 25.3008z" />
    <glyph glyph-name="b" unicode="b" horiz-adv-x="504" 
d="M146.47 700v-216.901c35.1699 14.7803 82.5498 25.9707 127.02 25.9707c91.2197 0 185.01 -41.5996 185.01 -174.239v-171.49c0 -127.38 -97.8398 -171.34 -192.189 -171.34c-48.04 0 -97.5596 11.1201 -136.229 34l-1.9502 -26h-66.54v700h84.8799zM373.62 162.429
l0.0107422 166.932c0 83.4697 -45.4902 113.05 -114.98 113.05c-41.7695 0 -84.5498 -9.92969 -112.18 -21.7998v-338.07c30.6797 -14.9004 69.1396 -23.5508 107.62 -23.5508c71.2998 0 119.109 33.3398 119.529 103.439z" />
    <glyph glyph-name="c" unicode="c" horiz-adv-x="446" 
d="M45.8496 195.04v110.651c0 131.83 77.8896 204.19 199.859 204.19c73.9404 0 124.511 -30.1504 158.28 -77.04l-66.0596 -29.5098c-26.3096 24.46 -57.9199 36.7998 -92.2295 36.7998c-68.1299 0 -114.979 -41.6104 -114.979 -134.44v-110.66
c0 -92.8203 46.8496 -134.44 114.979 -134.44c34.3096 0 65.9199 12.3398 92.2295 36.7998l66.0596 -29.5c-33.7695 -46.9004 -84.3398 -76.8906 -158.28 -76.8906c-121.97 0 -199.859 72.21 -199.859 204.04z" />
    <glyph glyph-name="cacute" unicode="&#x107;" horiz-adv-x="446" 
d="M234.69 580.83h-58.5801l54.5195 119.17h83.3701zM45.8506 195.04v110.651c0 131.83 77.8896 204.19 199.859 204.19c73.9404 0 124.511 -30.1504 158.28 -77.04l-66.0596 -29.5098c-26.3096 24.46 -57.9199 36.7998 -92.2295 36.7998
c-68.1299 0 -114.979 -41.6104 -114.979 -134.44v-110.66c0 -92.8203 46.8496 -134.44 114.979 -134.44c34.3096 0 65.9199 12.3398 92.2295 36.7998l66.0596 -29.5c-33.7695 -46.9004 -84.3398 -76.8906 -158.28 -76.8906c-121.97 0 -199.859 72.21 -199.859 204.04z" />
    <glyph glyph-name="ccaron" unicode="&#x10d;" horiz-adv-x="446" 
d="M265.88 574.71h-81.5293l-127.48 139.52h73.1299l94.7197 -101.11l92.0703 101.11h73.4102zM45.8408 195.04v110.651c0 131.83 77.8896 204.19 199.859 204.19c73.9404 0 124.511 -30.1504 158.28 -77.04l-66.0596 -29.5098
c-26.3096 24.46 -57.9199 36.7998 -92.2295 36.7998c-68.1299 0 -114.979 -41.6104 -114.979 -134.44v-110.66c0 -92.8203 46.8496 -134.44 114.979 -134.44c34.3096 0 65.9199 12.3398 92.2295 36.7998l66.0596 -29.5
c-33.7695 -46.9004 -84.3398 -76.8906 -158.28 -76.8906c-121.97 0 -199.859 72.21 -199.859 204.04z" />
    <glyph glyph-name="ccedilla" unicode="&#xe7;" horiz-adv-x="446" 
d="M45.8496 195.04v110.651c0 131.83 77.8896 204.19 199.859 204.19c73.9404 0 124.511 -30.1504 158.28 -77.04l-66.0596 -29.5098c-26.3096 24.46 -57.9199 36.7998 -92.2295 36.7998c-68.1299 0 -114.979 -41.6104 -114.979 -134.44v-110.66
c0 -92.8203 46.8496 -134.44 114.979 -134.44c34.3096 0 65.9199 12.3398 92.2295 36.7998l66.0596 -29.5c-31 -34.71 -69.4199 -59.0195 -115.42 -68.8994c-14.75 -5 -31.4404 -7 -50.2803 -8l-26.8896 -36c10.7998 3.70996 22.6494 5.76953 34.6191 5.76953
c4.16992 0 8.34961 -0.25 12.5 -0.759766c44.2002 -2 83.2705 -27 83.2705 -81c0 -74 -67.0801 -97 -129.96 -97c-40.0596 0 -78.9395 15 -108.499 26l16.8398 39c28.8496 -16 60.5596 -21 85.46 -23c39.4805 -1 76.7305 16 76.7305 52c0 30 -21.4805 45 -53.1104 45
c-16.7002 0 -37.7998 -3 -68.0195 -17l-17.21 18l52.0098 73c-93.0703 17.8496 -150.181 87.1494 -150.181 200.039z" />
    <glyph glyph-name="cdotaccent" unicode="&#x10b;" horiz-adv-x="446" 
d="M224.21 675.11c22.9004 0 40.96 -18.0703 40.96 -42.2402c0 -23.3203 -18.0596 -42.2305 -41.3799 -42.2305c-23.75 0 -42.6602 18.9102 -42.6602 42.2305c0 24.1699 18.9102 42.2402 43.0801 42.2402zM45.8496 195.04v110.651c0 131.83 77.8896 204.19 199.859 204.19
c73.9404 0 124.511 -30.1504 158.28 -77.04l-66.0596 -29.5098c-26.3096 24.46 -57.9199 36.7998 -92.2295 36.7998c-68.1299 0 -114.979 -41.6104 -114.979 -134.44v-110.66c0 -92.8203 46.8496 -134.44 114.979 -134.44c34.3096 0 65.9199 12.3398 92.2295 36.7998
l66.0596 -29.5c-33.7695 -46.9004 -84.3398 -76.8906 -158.28 -76.8906c-121.97 0 -199.859 72.21 -199.859 204.04z" />
    <glyph glyph-name="d" unicode="d" horiz-adv-x="504" 
d="M442.76 0l-66.54 0.000976562l-1.9502 26c-38.6699 -22.8799 -88.1895 -34 -136.229 -34c-96.5596 0 -192.189 45.1299 -192.189 171.34v171.49c0 132.64 93.79 174.239 185.01 174.239c44.4697 0 91.8496 -11.1904 127.02 -25.9707v216.9h84.8799v-700zM357.88 82.5508
l0.0117188 338.06c-27.6299 11.8701 -70.3994 21.7998 -112.18 21.7998c-69.4902 0 -114.98 -29.5801 -114.98 -113.05v-166.93c0.429688 -70.0898 48.2393 -103.43 119.539 -103.43c38.4697 0 76.9395 8.63965 107.609 23.5498z" />
    <glyph glyph-name="eth" unicode="&#xf0;" horiz-adv-x="579" 
d="M494.93 687.82l-53.2217 -52.332c48.7402 -48.5898 70.79 -116.06 70.79 -180.649v-241.27c0 -125.37 -100.45 -225.57 -228.09 -225.57s-228.67 100.19 -228.67 225.57c0 118.9 97.9102 213 224.41 213c50.4004 0 113.761 -19.7402 152.081 -81.6602v115.29
c0 35.0996 -11.4404 78.5 -41.7002 110.44l-53.9297 -53.6904l-32.5 32.8604l49.8398 49.6396c-23.0703 16.2305 -53.8799 26.9502 -94.71 26.9502c-59.6396 0 -107 -23.71 -132.92 -45.9697l-51.4404 59.1797c30.2598 26.04 94.2402 65.5801 182.23 65.5801
c60.5801 0 109.58 -15.9199 147.43 -41.4697l57.9102 56.9502zM284.408 353.929c-84.5498 0 -143.789 -62.6494 -143.789 -143.029s59.79 -143.61 143.79 -143.61c84.0098 0 143.22 63.7998 143.22 143.609c-1.78027 84.3799 -60.9902 143.03 -143.221 143.03z" />
    <glyph glyph-name="dcaron" unicode="&#x10f;" 
d="M508.61 623.6l24.9102 74.5596c-11.4102 8.82031 -18.96 22.7402 -18.96 38.1104c0 26.7197 22.3203 49.04 49.0508 49.04c26.7197 0 49.04 -22.3203 49.04 -49.04c0 -8.16992 -2.08008 -15.9199 -5.74023 -22.75l-42.3604 -89.9199h-55.9404zM442.751 -0.0107422
l-66.5303 0.000976562l-1.9502 26c-38.6797 -22.8799 -88.1992 -34 -136.239 -34c-96.5596 0 -192.189 45.1299 -192.189 171.34v171.49c0 132.64 93.79 174.239 185.01 174.239c44.4697 0 91.8496 -11.1904 127.02 -25.9707v216.9h84.8799v-700zM357.881 82.54
l0.0107422 338.06c-27.6299 11.8701 -70.4102 21.7998 -112.18 21.7998c-69.4902 0 -114.98 -29.5801 -114.98 -113.05v-166.93c0.419922 -70.0898 48.2295 -103.43 119.529 -103.43c38.4805 0 76.9404 8.63965 107.62 23.5498z" />
    <glyph glyph-name="dcroat" unicode="&#x111;" horiz-adv-x="530" 
d="M442.76 627.98l63.3301 0.000976562v-47.4697h-63.3301v-580.51h-66.54l-1.9502 26c-38.6699 -22.8799 -88.2002 -34 -136.24 -34c-96.5596 0 -192.189 45.1299 -192.189 171.34v171.49c0 132.64 93.79 174.239 185.03 174.239c44.46 0 91.8398 -11.1904 127.01 -25.9707
v97.4102h-124.45v47.4697h124.45v72.0195h84.8799v-72.0195zM357.88 82.541l0.0117188 338.069c-27.6299 11.8701 -70.3994 21.7998 -112.18 21.7998c-69.4902 0 -114.98 -29.5801 -114.98 -113.05v-166.93c0.429688 -70.0898 48.2393 -103.43 119.539 -103.43
c38.4697 0 76.9395 8.63965 107.609 23.54z" />
    <glyph glyph-name="e" unicode="e" horiz-adv-x="473" 
d="M45.8496 161.16l0.00976562 162.349c0 117.19 74.4004 186.381 199.591 186.381c125.91 0 187.11 -73.0703 187.11 -184.66v-104.61h-304.1v-67.8896c0 -68.5098 44.2305 -97.3193 110.5 -97.3193c47.4697 0 90.2998 13.8096 124 38.0898l46.8799 -39.5303
c-41.25 -38.5 -98.6602 -63.9697 -177.351 -63.9697c-125.78 0 -186.641 72.1797 -186.641 171.16zM352.789 276.639l0.0107422 51.2998c0 86.0498 -53.6904 114.33 -108.801 114.33c-60.0996 0 -113.26 -30.1299 -113.26 -116.06v-49.5703h222.05z" />
    <glyph glyph-name="e.ss01" horiz-adv-x="473" 
d="M45.8496 161.16l0.00195312 162.35c0 110.35 65.9697 178.14 178.16 185.68c6.9502 0.459961 14.0703 0.700195 21.3701 0.700195c118.63 0 187.979 -69.6299 187.979 -166.34c0 -111.54 -84.4902 -149.91 -176.17 -149.91c-44.1201 0 -89.9004 8.88965 -128.73 22.79
v-63.7002c0 -68.5098 44.2305 -97.3193 110.5 -97.3193c47.4697 0 90.2998 13.8096 124 38.0898l46.8799 -39.5303c-41.25 -38.5 -98.6602 -63.9697 -177.351 -63.9697c-125.78 0 -186.641 72.1797 -186.641 171.16zM129.861 334.609v-57.0508
c25.9404 -12.8496 73.2705 -26.1895 118.021 -26.1895c56.7402 0 108.96 21.4404 108.96 92.21c0 62.2402 -40.8398 98.1104 -110.75 98.1104c-70.6504 0 -116.23 -36.75 -116.23 -107.08z" />
    <glyph glyph-name="eacute" unicode="&#xe9;" horiz-adv-x="473" 
d="M251.26 580.83h-58.5801l54.5195 119.17h83.3701zM45.8496 161.16l0.00976562 162.349c0 117.19 74.4004 186.381 199.591 186.381c125.91 0 187.11 -73.0703 187.11 -184.66v-104.61h-304.1v-67.8896c0 -68.5098 44.2305 -97.3193 110.5 -97.3193
c47.4697 0 90.2998 13.8096 124 38.0898l46.8799 -39.5303c-41.25 -38.5 -98.6602 -63.9697 -177.351 -63.9697c-125.78 0 -186.641 72.1797 -186.641 171.16zM352.789 276.639l0.0107422 51.2998c0 86.0498 -53.6904 114.33 -108.801 114.33
c-60.0996 0 -113.26 -30.1299 -113.26 -116.06v-49.5703h222.05z" />
    <glyph glyph-name="ecaron" unicode="&#x11b;" horiz-adv-x="473" 
d="M282.45 574.71h-81.5293l-127.48 139.52h73.1299l94.7197 -101.11l92.0703 101.11h73.4102zM45.8408 161.16l0.00976562 162.349c0 117.19 74.4004 186.381 199.591 186.381c125.91 0 187.11 -73.0703 187.11 -184.66v-104.61h-304.1v-67.8896
c0 -68.5098 44.2305 -97.3193 110.5 -97.3193c47.4697 0 90.2998 13.8096 124 38.0898l46.8799 -39.5303c-41.25 -38.5 -98.6602 -63.9697 -177.351 -63.9697c-125.78 0 -186.641 72.1797 -186.641 171.16zM352.78 276.639l0.0107422 51.2998
c0 86.0498 -53.6904 114.33 -108.801 114.33c-60.0996 0 -113.26 -30.1299 -113.26 -116.06v-49.5703h222.05z" />
    <glyph glyph-name="ecircumflex" unicode="&#xea;" horiz-adv-x="473" 
d="M407.57 572.41h-73.4004l-92.0703 101.11l-94.7197 -101.11h-73.1299l127.48 139.52h81.5195zM45.8604 161.16l0.00976562 162.349c0 117.19 74.4004 186.381 199.591 186.381c125.91 0 187.11 -73.0703 187.11 -184.66v-104.61h-304.1v-67.8896
c0 -68.5098 44.2305 -97.3193 110.5 -97.3193c47.4697 0 90.2998 13.8096 124 38.0898l46.8799 -39.5303c-41.25 -38.5 -98.6602 -63.9697 -177.351 -63.9697c-125.78 0 -186.641 72.1797 -186.641 171.16zM352.8 276.639l0.0107422 51.2998
c0 86.0498 -53.6904 114.33 -108.801 114.33c-60.0996 0 -113.26 -30.1299 -113.26 -116.06v-49.5703h222.05z" />
    <glyph glyph-name="edieresis" unicode="&#xeb;" horiz-adv-x="473" 
d="M150.01 675.11c22.8896 0 40.9609 -18.0703 40.9609 -42.2402c0 -23.3203 -18.0703 -42.2305 -41.3906 -42.2305c-23.7402 0 -42.6602 18.9102 -42.6602 42.2305c0 24.1699 18.9199 42.2402 43.0898 42.2402zM335.871 675.11c22.9004 0 40.96 -18.0703 40.96 -42.2402
c0 -23.3203 -18.0596 -42.2305 -41.3799 -42.2305c-23.75 0 -42.6602 18.9102 -42.6602 42.2305c0 24.1699 18.9102 42.2402 43.0801 42.2402zM45.8516 161.16l0.00976562 162.349c0 117.19 74.4004 186.381 199.591 186.381c125.92 0 187.12 -73.0703 187.12 -184.66
v-104.61h-304.11v-67.8896c0 -68.5098 44.2402 -97.3193 110.5 -97.3193c47.4805 0 90.3105 13.8096 124.001 38.0898l46.8896 -39.5303c-41.2598 -38.5 -98.6602 -63.9697 -177.351 -63.9697c-125.78 0 -186.65 72.1797 -186.65 171.16zM352.802 276.639
l0.000976562 51.2998c0 86.0498 -53.6904 114.33 -108.801 114.33c-60.0898 0 -113.26 -30.1299 -113.26 -116.06v-49.5703h222.06z" />
    <glyph glyph-name="edotaccent" unicode="&#x117;" horiz-adv-x="473" 
d="M240.78 675.11c22.9004 0 40.96 -18.0703 40.96 -42.2402c0 -23.3203 -18.0596 -42.2305 -41.3799 -42.2305c-23.75 0 -42.6602 18.9102 -42.6602 42.2305c0 24.1699 18.9102 42.2402 43.0801 42.2402zM45.8506 161.16l0.00976562 162.349
c0 117.19 74.4004 186.381 199.591 186.381c125.91 0 187.11 -73.0703 187.11 -184.66v-104.61h-304.1v-67.8896c0 -68.5098 44.2305 -97.3193 110.5 -97.3193c47.4697 0 90.2998 13.8096 124 38.0898l46.8799 -39.5303c-41.25 -38.5 -98.6602 -63.9697 -177.351 -63.9697
c-125.78 0 -186.641 72.1797 -186.641 171.16zM352.79 276.639l0.0107422 51.2998c0 86.0498 -53.6904 114.33 -108.801 114.33c-60.0996 0 -113.26 -30.1299 -113.26 -116.06v-49.5703h222.05z" />
    <glyph glyph-name="egrave" unicode="&#xe8;" horiz-adv-x="473" 
d="M305.47 580.83h-58.5693l-79.2402 119.17h83.29zM45.8506 161.16l0.00976562 162.349c0 117.19 74.4004 186.381 199.591 186.381c125.92 0 187.12 -73.0703 187.12 -184.66v-104.61h-304.11v-67.8896c0 -68.5098 44.2402 -97.3193 110.5 -97.3193
c47.4805 0 90.3105 13.8096 124.001 38.0898l46.8896 -39.5303c-41.2598 -38.5 -98.6602 -63.9697 -177.351 -63.9697c-125.78 0 -186.65 72.1797 -186.65 171.16zM352.801 276.639l0.000976562 51.2998c0 86.0498 -53.6904 114.33 -108.801 114.33
c-60.0898 0 -113.26 -30.1299 -113.26 -116.06v-49.5703h222.06z" />
    <glyph glyph-name="emacron" unicode="&#x113;" horiz-adv-x="473" 
d="M360.35 617.02h-242.62v47.5098h242.62v-47.5098zM45.8496 161.159l0.00976562 162.349c0 117.19 74.4004 186.381 199.591 186.381c125.92 0 187.12 -73.0703 187.12 -184.66v-104.61h-304.11v-67.8896c0 -68.5098 44.2402 -97.3193 110.5 -97.3193
c47.4805 0 90.3105 13.8096 124.001 38.0898l46.8896 -39.5303c-41.2598 -38.5 -98.6602 -63.9697 -177.351 -63.9697c-125.78 0 -186.65 72.1797 -186.65 171.16zM352.8 276.638l0.000976562 51.2998c0 86.0498 -53.6904 114.33 -108.801 114.33
c-60.0898 0 -113.26 -30.1299 -113.26 -116.06v-49.5703h222.06z" />
    <glyph glyph-name="eogonek" unicode="&#x119;" horiz-adv-x="473" 
d="M45.8496 161.16l-0.00195312 162.418c0 117.19 74.4004 186.381 199.591 186.381c125.91 0 187.11 -73.0703 187.11 -184.66v-104.61h-304.1v-67.8896c0 -68.5098 44.2305 -97.3193 110.5 -97.3193c47.4697 0 90.2998 13.8096 124 38.0898l46.8799 -39.5195
c-21.9805 -20.1504 -48.29 -36.7305 -79.5996 -48.0605c-58.6504 -49 -67.4902 -82 -68.8701 -104c-1.01953 -36.9902 23.1309 -53.04 52.6709 -53.04c28.6396 0 50.7793 16.7998 69.2197 43.04l35.8896 -15c-27.0596 -46 -69.8691 -73 -122.52 -73
c-40.4004 0 -94.6807 22 -94.6807 88c0 21 8.50977 55 56.8701 99c-19.6201 -1 -38.5098 0 -56.7295 2c-102.19 11.6504 -156.23 75.8105 -156.23 168.171zM352.777 276.718l0.0107422 51.29c0 86.0498 -53.6904 114.34 -108.801 114.34
c-60.0996 0 -113.26 -30.1299 -113.26 -116.06v-49.5703h222.05z" />
    <glyph glyph-name="f" unicode="f" horiz-adv-x="301" 
d="M64.46 0v542.551c0 126.97 87.0098 168.609 169.56 168.609c16.2598 0 31.8398 -1.5498 46.9502 -4.30957v-68.9102c-12.8799 1.99023 -24.3398 3.12012 -33.9795 3.12012c-4.37012 0 -8.37012 -0.230469 -11.96 -0.720703
c-48.46 -3.30957 -85.6104 -34.5293 -85.6904 -108.39v-30.9502h122.91v-66.04h-122.91v-434.96h-84.8799z" />
    <glyph glyph-name="g" unicode="g" horiz-adv-x="504" 
d="M45.8496 172.01l-0.0078125 165.351c0 127.38 97.8398 171.49 192.189 171.49c48.04 0 97.5596 -11.2695 136.239 -34.1494l1.9502 26h66.5303v-525.71c0 -117 -75.0303 -170 -173.5 -170c-63.6299 0 -125.11 19 -178.601 53l33.7197 49
c38.1602 -23.1904 79.5703 -37.0508 124.4 -37.0508c65.8096 0 107.189 24.4297 109.1 98.0498v57.6201c-34.1201 -16.1699 -82.8301 -25.6201 -128.561 -25.6201c-96.1602 0.429688 -183.46 44.1094 -183.46 172.02zM357.872 85.2607l-0.0117188 332.89
c-30.6699 14.9102 -69.1396 23.5498 -107.609 23.5498c-71.2998 0 -119.109 -33.3398 -119.539 -103.43v-161.76c0 -83.4697 45.4902 -113.05 114.98 -113.05c41.7803 0 84.5498 9.92969 112.18 21.7998z" />
    <glyph glyph-name="gbreve" unicode="&#x11f;" horiz-adv-x="504" 
d="M349.02 703.59h42.2793c0 -77.4502 -60.9697 -133.32 -138.96 -133.32c-77.9805 0 -138.961 55.8701 -138.961 133.32h42.2803c2.98047 -48.9004 44.3809 -85.2305 96.6807 -85.2305c51.7197 0 93.7002 36.3301 96.6807 85.2305zM45.8486 172.01l0.000976562 165.351
c0 127.38 97.8398 171.49 192.189 171.49c48.04 0 97.5596 -11.2695 136.229 -34.1494l1.9502 26h66.54v-525.71c0 -117 -75.0303 -170 -173.5 -170c-63.6299 0 -125.12 19 -178.61 53l33.7197 49c38.1602 -23.1904 79.5703 -37.0508 124.4 -37.0508
c65.8203 0 107.19 24.4297 109.11 98.0498v57.6201c-34.1299 -16.1699 -82.8301 -25.6201 -128.561 -25.6201c-96.1602 0.429688 -183.47 44.1094 -183.47 172.02zM357.88 85.2607l-0.0107422 332.89c-30.6797 14.9102 -69.1396 23.5498 -107.62 23.5498
c-71.2998 0 -119.109 -33.3398 -119.529 -103.43v-161.76c0 -83.4697 45.4902 -113.05 114.98 -113.05c41.7695 0 84.5498 9.92969 112.18 21.7998z" />
    <glyph glyph-name="gcommaaccent" unicode="&#x123;" horiz-adv-x="504" 
d="M300.18 707.99l-18.3398 -53.582c8.21973 -6.40039 13.7393 -16.0801 13.7393 -26.7598c0 -18.21 -15.3799 -33.7295 -33.7197 -33.7295s-33.7197 15.5098 -33.7197 33.7295c0 5.40039 1.41016 10.3809 3.89062 15.3613l30.5898 64.9805h37.5596zM45.8496 172.008
l-0.0078125 165.34c0 127.38 97.8398 171.5 192.189 171.5c48.04 0 97.5596 -11.2695 136.239 -34.1494l1.9502 26h66.5303v-525.71c0 -117 -75.0303 -170 -173.5 -170c-63.6299 0 -125.11 19 -178.601 53l33.7197 49c38.1602 -23.2002 79.5703 -37.0498 124.4 -37.0498
c65.8096 0 107.189 24.4297 109.1 98.0498v57.6104c-34.1201 -16.1699 -82.8301 -25.6104 -128.561 -25.6104c-96.1602 0.419922 -183.46 44.0996 -183.46 172.02zM357.872 85.2578l-0.0117188 332.888c-30.6699 14.9004 -69.1396 23.5508 -107.609 23.5508
c-71.2998 0 -119.109 -33.3398 -119.539 -103.439v-161.76c0 -83.46 45.4902 -113.05 114.98 -113.05c41.7803 0 84.5498 9.94043 112.18 21.8105z" />
    <glyph glyph-name="gdotaccent" unicode="&#x121;" horiz-adv-x="504" 
d="M253.4 675.1c22.9004 0 40.96 -18.0596 40.96 -42.2295c0 -23.3203 -18.0596 -42.2402 -41.3799 -42.2402c-23.75 0 -42.6602 18.9199 -42.6602 42.2402c0 24.1699 18.9102 42.2295 43.0801 42.2295zM45.8506 172.01l-0.0078125 165.351
c0 127.38 97.8398 171.49 192.189 171.49c48.04 0 97.5596 -11.2695 136.239 -34.1494l1.9502 26h66.5303v-525.71c0 -117 -75.0303 -170 -173.5 -170c-63.6299 0 -125.11 19 -178.601 53l33.7197 49c38.1602 -23.1904 79.5703 -37.0508 124.4 -37.0508
c65.8096 0 107.189 24.4297 109.1 98.0498v57.6201c-34.1201 -16.1699 -82.8301 -25.6201 -128.561 -25.6201c-96.1602 0.429688 -183.46 44.1094 -183.46 172.02zM357.873 85.2607l-0.0117188 332.89c-30.6699 14.9102 -69.1396 23.5498 -107.609 23.5498
c-71.2998 0 -119.109 -33.3398 -119.539 -103.43v-161.76c0 -83.4697 45.4902 -113.05 114.98 -113.05c41.7803 0 84.5498 9.92969 112.18 21.7998z" />
    <glyph glyph-name="h" unicode="h" horiz-adv-x="520" 
d="M151.47 700l0.0107422 -218.06c36.8604 18.21 81.3506 27.1299 124.07 27.1299c93.2695 0 187.96 -42.5303 187.96 -172.521v-336.56h-84.8799v331.66c0 78.8701 -45.4902 111.33 -116.13 111.33c-39.4805 0 -79.3809 -9.36035 -111.031 -24.1006v-418.88h-84.8799v700
h84.8799z" />
    <glyph glyph-name="hbar" unicode="&#x127;" horiz-adv-x="544" 
d="M175.5 623.58l170.04 -0.00195312v-46.8896h-170.04v-94.5195c36.8604 18.21 81.3506 27.1299 124.061 27.1299c93.2803 0 187.971 -42.5195 187.971 -172.52v-336.55h-84.8799v331.66c0 78.8701 -45.4902 111.32 -116.12 111.32
c-39.4805 0 -79.3809 -9.34961 -111.031 -24.0996v-418.88h-84.8799v576.47h-76.0303v46.8799h76.0303v76.6504h84.8799v-76.6504z" />
    <glyph glyph-name="i" unicode="i" horiz-adv-x="220" 
d="M113.14 709.35c26.6699 0 45.6299 -18.9502 45.6299 -45.6299c0 -24.5996 -16.7695 -46.54 -45.6299 -46.54c-26.6797 0 -46.5498 19.8701 -46.5498 46.54c0 28.8701 21.9502 45.6299 46.5498 45.6299zM155.12 0.0400391h-84.8799v500.91h84.8799v-500.91z" />
    <glyph glyph-name="dotlessi" unicode="&#x131;" horiz-adv-x="171" 
d="M129.84 0.0400391h-84.8799v500.91h84.8799v-500.91z" />
    <glyph glyph-name="iacute" unicode="&#xed;" horiz-adv-x="174" 
d="M94.5195 580.83h-58.5801l54.5195 119.17h83.3701zM129.84 0.0400391h-84.8799v500.91h84.8799v-500.91z" />
    <glyph glyph-name="icaron" unicode="&#x1d0;" horiz-adv-x="171" 
d="M131.13 574.71h-81.5205l-127.62 139.52h74l93.9805 -101.11l92.0703 101.11h73.4102zM129.84 0.0400391h-84.8799v500.91h84.8799v-500.91z" />
    <glyph glyph-name="icircumflex" unicode="&#xee;" horiz-adv-x="171" 
d="M256.25 572.41h-73.4004l-92.0801 101.11l-94.7695 -101.11h-73l127.41 139.52h81.5195zM129.85 0.0400391h-84.8799v500.91h84.8799v-500.91z" />
    <glyph glyph-name="idieresis" unicode="&#xef;" horiz-adv-x="171" 
d="M-2 675.1c23.29 0 41.3604 -18.0596 41.3604 -42.2295c0 -23.3203 -18.0703 -42.2402 -41.3604 -42.2402c-24 0 -43 18.9199 -43 42.2402c0 24.1699 19 42.2295 43 42.2295zM184.55 675.1c22.8896 0 40.9609 -18.0596 40.9609 -42.2295
c0 -23.3203 -18.0703 -42.2402 -41.3906 -42.2402c-23.7402 0 -42.6602 18.9199 -42.6602 42.2402c0 24.1699 18.9199 42.2295 43.0898 42.2295zM129.841 0.0400391h-84.8799v500.91h84.8799v-500.91z" />
    <glyph glyph-name="igrave" unicode="&#xec;" horiz-adv-x="171" 
d="M144.41 580.83h-58.5811l-79.1797 119.17h83.2305zM129.839 0.0400391h-84.8799v500.91h84.8799v-500.91z" />
    <glyph glyph-name="ij" unicode="&#x133;" horiz-adv-x="438" 
d="M330.97 709.4c26.6797 0 45.6299 -18.96 45.6299 -45.6299c0 -24.5996 -16.7598 -46.5498 -45.6299 -46.5498c-26.6699 0 -46.54 19.8701 -46.54 46.5498c0 28.8604 21.9404 45.6299 46.54 45.6299zM113.14 709.351c26.6699 0 45.6299 -18.9502 45.6299 -45.6299
c0 -24.5996 -16.7695 -46.54 -45.6299 -46.54c-26.6797 0 -46.5498 19.8701 -46.5498 46.54c0 28.8701 21.9502 45.6299 46.5498 45.6299zM372.96 501.001l-0.000976562 -550c0 -78 -49.9004 -124 -115.79 -139c-14.5195 -4 -30.2891 -7 -47.9092 -8l-1.73047 69
c16.46 2 29.4902 5 40.1807 9c34.6299 17 40.3701 51 40.3701 83v536h84.8799zM155.129 0.0410156h-84.8799v500.91h84.8799v-500.91z" />
    <glyph glyph-name="imacron" unicode="&#x12b;" horiz-adv-x="171" 
d="M207.06 604.25h-243.06v47.5098h243.06v-47.5098zM129.84 0.0400391h-84.8799v500.91h84.8799v-500.91z" />
    <glyph glyph-name="iogonek" unicode="&#x12f;" horiz-adv-x="171" 
d="M88.8896 675.1c22.8896 0 40.9609 -18.0596 40.9609 -42.2295c0 -23.3203 -18.0703 -42.2402 -41.3906 -42.2402c-23.7402 0 -42.6602 18.9199 -42.6602 42.2402c0 24.1699 18.9199 42.2295 43.0898 42.2295zM129.841 499.8l0.0107422 -499.8
c-64.0098 -51.6299 -72.0498 -86.2002 -72.0498 -108.24c0 -35.3799 23.8203 -49.8096 52.7803 -49.8096c28.6396 0 50.7793 16.7998 69.209 43.04l35.8896 -15c-27.04 -45 -69.8496 -72 -122.52 -72c-40.4004 0 -95.1602 20 -95.1602 86c0 23 11.5801 67 74.5303 113
l-27.5703 3.0498v499.76h84.8799z" />
    <glyph glyph-name="j" unicode="j" horiz-adv-x="218" 
d="M110.67 709.4c26.6797 0 45.6299 -18.96 45.6299 -45.6299c0 -24.5996 -16.7598 -46.5498 -45.6299 -46.5498c-26.6699 0 -46.54 19.8701 -46.54 46.5498c0 28.8604 21.9404 45.6299 46.54 45.6299zM152.66 501v-550c0 -78 -49.9004 -124 -115.801 -139
c-14.5098 -4 -30.29 -7 -47.8604 -8l-2 69c16.6904 2 29.7207 5 40.4111 9c34.6299 17 40.3701 51 40.3701 83v536h84.8799z" />
    <glyph glyph-name="k" unicode="k" horiz-adv-x="507" 
d="M151.47 297.31l206 210.9h102.87l-192.31 -205.92l222.34 -302.29h-95.5996l-176.69 243.82l-66.6104 -63v-180.82h-84.8799v700h84.8799v-402.69z" />
    <glyph glyph-name="kcommaaccent" unicode="&#x137;" horiz-adv-x="507" 
d="M151.47 297.31l206 210.9h102.87l-192.31 -205.92l222.34 -302.29h-95.5996l-176.69 243.82l-66.6104 -63v-180.82h-84.8799v700h84.8799v-402.69zM217.21 -206l18.3506 53c-8.23047 7 -13.7402 17 -13.7402 27c0 18 15.3799 34 33.71 34
c18.3398 0 33.7197 -16 33.7197 -34c0 -5 -1.41016 -10 -3.89062 -15l-30.5898 -65h-37.5596z" />
    <glyph glyph-name="l" unicode="l" horiz-adv-x="208" 
d="M151.47 0h-84.8799v700h84.8799v-700z" />
    <glyph glyph-name="lacute" unicode="&#x13a;" horiz-adv-x="208" 
d="M141.03 780.24h-58.5703l54.5195 119.17h83.3604zM151.47 0h-84.8799v700h84.8799v-700z" />
    <glyph glyph-name="lcaron" unicode="&#x13e;" horiz-adv-x="321" 
d="M217.32 623.6l24.9102 74.5596c-11.4102 8.82031 -18.96 22.7402 -18.96 38.1104c0 26.7197 22.3203 49.04 49.0508 49.04c26.7197 0 49.04 -22.3203 49.04 -49.04c0 -8.16992 -2.08008 -15.9199 -5.74023 -22.75l-42.3604 -89.9199h-55.9404zM151.461 -0.0107422
h-84.8799v700h84.8799v-700z" />
    <glyph glyph-name="lcommaaccent" unicode="&#x13c;" horiz-adv-x="208" 
d="M151.47 0h-84.8799v700h84.8799v-700zM71.9795 -206l18.3408 53c-8.23047 7 -13.7402 17 -13.7402 27c0 18 15.3799 34 33.7197 34c18.3301 0 33.7197 -16 33.7197 -34c0 -5 -1.41992 -10 -3.90039 -15l-30.5801 -65h-37.5596z" />
    <glyph glyph-name="ldot" unicode="&#x140;" horiz-adv-x="338" 
d="M151.47 0h-84.8799v700h84.8799v-700zM267.93 386.91c26.7305 0 49.0508 -22.3203 49.0508 -49.04c0 -26.7305 -22.3203 -49.0303 -49.0508 -49.0303c-26.7197 0 -49.1299 22.2998 -49.1299 49.0303c0 26.7197 22.4102 49.04 49.1299 49.04z" />
    <glyph glyph-name="lslash" unicode="&#x142;" horiz-adv-x="384" 
d="M218 418.26l129.12 58.0908l32.8496 -69.79l-161.97 -72.9902v-333.57h-88.2598v294.27l-96.29 -43.1699l-29.1904 70.9004l125.48 56.2695v321.73h88.2598v-281.74z" />
    <glyph glyph-name="m" unicode="m" horiz-adv-x="769" 
d="M127.58 501l1.93262 -25.4336c41.4199 22.3799 88.1797 33.5 132.239 33.5c55.6201 0 106.17 -17.5498 134.63 -51.1895c53.3896 32.5703 96.75 51.1904 151.59 51.1904c89.21 0 165.06 -57.3301 165.06 -172.51v-336.56h-84.1504v329.94
c0 76.5703 -32.8701 111.9 -94.1299 111.9c-32.3203 0 -50.6504 -4.25977 -111.61 -32.5801c7.58008 -17.0195 8.25 -55.2295 8.25 -80.1797v-329.09h-84.1396v348.32c0 66.8096 -36.3203 93.5195 -97.0107 93.5195c-38.25 0 -77.5098 -9.92969 -104.5 -22.9492v-418.88
h-84.1504v501h65.9902z" />
    <glyph glyph-name="n" unicode="n" horiz-adv-x="515" 
d="M128.13 501l1.9502 -26.0107c40.9902 22.96 90.8301 34.0703 138.07 34.0703c97.2998 0 190.35 -46.8301 190.35 -172.51v-336.56h-84.8799v331.66c0 78.2998 -46.6299 110.76 -117.84 110.76c-38.9102 0 -78.2305 -8.79004 -109.311 -23.5303v-418.88h-84.8799v501
h66.54z" />
    <glyph glyph-name="nacute" unicode="&#x144;" horiz-adv-x="515" 
d="M272.71 580.83h-58.5801l54.5195 119.17h83.3701zM128.13 501l1.9502 -26.0107c40.9902 22.96 90.8301 34.0703 138.07 34.0703c97.2998 0 190.35 -46.8301 190.35 -172.51v-336.56h-84.8799v331.66c0 78.2998 -46.6299 110.76 -117.84 110.76
c-38.9102 0 -78.2305 -8.79004 -109.311 -23.5303v-418.88h-84.8799v501h66.54z" />
    <glyph glyph-name="ncaron" unicode="&#x148;" horiz-adv-x="515" 
d="M303.9 574.71h-81.5293l-127.48 139.52h73.1299l94.7197 -101.11l92.0703 101.11h73.4102zM128.121 501l1.95996 -26.0107c40.9805 22.96 90.8301 34.0703 138.07 34.0703c97.2998 0 190.35 -46.8301 190.35 -172.51v-336.56h-84.8799v331.66
c0 78.2998 -46.6396 110.76 -117.85 110.76c-38.9004 0 -78.2305 -8.79004 -109.301 -23.5303v-418.88h-84.8799v501h66.5303z" />
    <glyph glyph-name="ncommaaccent" unicode="&#x146;" horiz-adv-x="515" 
d="M128.13 501l1.9502 -26.0107c40.9902 22.96 90.8301 34.0703 138.07 34.0703c97.2998 0 190.35 -46.8301 190.35 -172.51v-336.56h-84.8799v331.66c0 78.2998 -46.6299 110.76 -117.84 110.76c-38.9102 0 -78.2305 -8.79004 -109.311 -23.5303v-418.88h-84.8799v501
h66.54zM217.98 -206.011l18.3408 53c-8.23047 7 -13.7402 17 -13.7402 27c0 18 15.3799 34 33.7197 34c18.3301 0 33.7197 -16 33.7197 -34c0 -5 -1.41992 -10 -3.90039 -15l-30.5801 -65h-37.5596z" />
    <glyph glyph-name="eng" unicode="&#x14b;" horiz-adv-x="517" 
d="M128.13 501l1.95117 -26.001c40.9902 22.96 90.8301 34.0703 138.07 34.0703c97.2998 0 190.35 -46.8301 190.35 -172.51v-396.56c0 -79 -49.4102 -123 -113.061 -139c-15.0195 -4 -31.6592 -8 -50.6396 -9l-1.73047 69c17.1504 2 30.6201 5 41.5498 11
c33.5098 16 39 49 39 82v377.66c0 78.2998 -46.6299 110.75 -117.84 110.75c-38.9102 0 -78.2305 -8.78027 -109.311 -23.5303v-418.88h-84.8799v501h66.54z" />
    <glyph glyph-name="ntilde" unicode="&#xf1;" horiz-adv-x="515" 
d="M126.88 598.53l-31.3887 42.2705c20.0996 21.2598 62.4092 56.4297 105.209 56.4297c50.2305 0 83.9004 -40.75 126.92 -40.75c28.4102 0 54.96 24.8701 68.1699 38.6504l31.0801 -42.8398c-16.0801 -14.9404 -56.9297 -47.8105 -96.8594 -47.8105
c-50.2305 0 -85.4609 39.5996 -130.461 39.5996c-28.8096 0 -56.0098 -26.5898 -72.6699 -45.5498zM128.142 501.001l1.9502 -26.0107c40.9902 22.96 90.8301 34.0703 138.07 34.0703c97.2998 0 190.35 -46.8301 190.35 -172.51v-336.56h-84.8799v331.66
c0 78.2998 -46.6299 110.76 -117.84 110.76c-38.9102 0 -78.2305 -8.79004 -109.311 -23.5303v-418.88h-84.8799v501h66.54z" />
    <glyph glyph-name="o" unicode="o" horiz-adv-x="491" 
d="M45.8496 189.88l0.000976562 120.419c0 126.45 69.7305 200.74 201.83 200.74c128.85 0 197.449 -79.96 197.449 -200.75v-120.41c0 -98 -52.0898 -198.88 -198.27 -198.88c-145.32 0 -201.011 99.9004 -201.011 198.881zM360.251 189.889l0.000976562 120.41
c0 82.0303 -39.9004 130.99 -113.391 130.99c-77.9004 0 -116.131 -43.9102 -116.131 -130.99v-120.41c0 -68.5703 33.5195 -129.17 116.13 -129.17c82.0703 0 113.391 60.3896 113.391 129.17z" />
    <glyph glyph-name="oacute" unicode="&#xf3;" horiz-adv-x="491" 
d="M260.25 580.83h-58.5811l54.5303 119.17h83.3604zM45.8389 189.88l-0.000976562 120.419c0 126.45 69.7402 200.74 201.83 200.74c128.86 0 197.46 -79.96 197.46 -200.75v-120.41c0 -98 -52.0996 -198.88 -198.279 -198.88c-145.31 0 -201.01 99.9004 -201.01 198.881z
M360.248 189.889l0.000976562 120.41c0 82.0303 -39.9004 130.99 -113.4 130.99c-77.9004 0 -116.131 -43.9102 -116.131 -130.99v-120.41c0 -68.5703 33.5195 -129.17 116.13 -129.17c82.0703 0 113.4 60.3896 113.4 129.17z" />
    <glyph glyph-name="ocaron" unicode="&#x1d2;" horiz-adv-x="491" 
d="M288.68 574.71h-81.5293l-127.48 139.52h73.1299l94.7197 -101.11l92.0703 101.11h73.4102zM45.8408 189.88l-0.000976562 120.419c0 126.45 69.7402 200.74 201.83 200.74c128.86 0 197.46 -79.96 197.46 -200.75v-120.41c0 -98 -52.0996 -198.88 -198.279 -198.88
c-145.31 0 -201.01 99.9004 -201.01 198.881zM360.25 189.889l0.000976562 120.41c0 82.0303 -39.9004 130.99 -113.4 130.99c-77.9004 0 -116.131 -43.9102 -116.131 -130.99v-120.41c0 -68.5703 33.5195 -129.17 116.13 -129.17c82.0703 0 113.4 60.3896 113.4 129.17z
" />
    <glyph glyph-name="ocircumflex" unicode="&#xf4;" horiz-adv-x="491" 
d="M413.79 572.41h-73.3896l-92.0801 101.11l-94.71 -101.11h-73.1396l127.49 139.52h81.5195zM45.8604 189.88l0.000976562 120.419c0 126.45 69.7305 200.74 201.83 200.74c128.85 0 197.449 -79.96 197.449 -200.75v-120.41c0 -98 -52.0898 -198.88 -198.27 -198.88
c-145.32 0 -201.011 99.9004 -201.011 198.881zM360.262 189.889l0.000976562 120.41c0 82.0303 -39.9004 130.99 -113.391 130.99c-77.9004 0 -116.131 -43.9102 -116.131 -130.99v-120.41c0 -68.5703 33.5195 -129.17 116.13 -129.17
c82.0703 0 113.391 60.3896 113.391 129.17z" />
    <glyph glyph-name="odieresis" unicode="&#xf6;" horiz-adv-x="491" 
d="M156.23 675.1c22.9004 0 40.96 -18.0596 40.96 -42.2295c0 -23.3203 -18.0596 -42.2402 -41.3799 -42.2402c-23.75 0 -42.6602 18.9199 -42.6602 42.2402c0 24.1699 18.9102 42.2295 43.0801 42.2295zM342.101 675.1c22.8896 0 40.9609 -18.0596 40.9609 -42.2295
c0 -23.3203 -18.0703 -42.2402 -41.3906 -42.2402c-23.7402 0 -42.6602 18.9199 -42.6602 42.2402c0 24.1699 18.9199 42.2295 43.0898 42.2295zM45.8516 189.88l0.000976562 120.409c0 126.45 69.7305 200.74 201.83 200.74c128.85 0 197.449 -79.96 197.449 -200.74
v-120.41c0 -98 -52.0898 -198.88 -198.27 -198.88c-145.32 0 -201.011 99.9004 -201.011 198.881zM360.253 189.879l0.000976562 120.421c0 82.0195 -39.9004 130.989 -113.391 130.989c-77.9004 0 -116.131 -43.9199 -116.131 -131v-120.41
c0 -68.5596 33.5195 -129.17 116.13 -129.17c82.0703 0 113.391 60.4004 113.391 129.17z" />
    <glyph glyph-name="ograve" unicode="&#xf2;" horiz-adv-x="491" 
d="M311.7 580.83h-58.5801l-79.2402 119.17h83.29zM45.8506 189.88l-0.000976562 120.419c0 126.45 69.7402 200.74 201.83 200.74c128.86 0 197.46 -79.96 197.46 -200.75v-120.41c0 -98 -52.0996 -198.88 -198.279 -198.88c-145.31 0 -201.01 99.9004 -201.01 198.881z
M360.26 189.889l0.000976562 120.41c0 82.0303 -39.9004 130.99 -113.4 130.99c-77.9004 0 -116.131 -43.9102 -116.131 -130.99v-120.41c0 -68.5703 33.5195 -129.17 116.13 -129.17c82.0703 0 113.4 60.3896 113.4 129.17z" />
    <glyph glyph-name="ohungarumlaut" unicode="&#x151;" horiz-adv-x="491" 
d="M196.62 579.98h-55.29l50.6699 120.02h78.0898zM331.4 579.98h-55.29l50.6699 120.02h78.0898zM45.8408 189.881l-0.000976562 120.419c0 126.45 69.7402 200.74 201.83 200.74c128.86 0 197.46 -79.96 197.46 -200.75v-120.41c0 -98 -52.0996 -198.88 -198.279 -198.88
c-145.31 0 -201.01 99.9004 -201.01 198.881zM360.25 189.89l0.000976562 120.41c0 82.0303 -39.9004 130.99 -113.4 130.99c-77.9004 0 -116.131 -43.9102 -116.131 -130.99v-120.41c0 -68.5703 33.5195 -129.17 116.13 -129.17c82.0703 0 113.4 60.3896 113.4 129.17z" />
    <glyph glyph-name="omacron" unicode="&#x14d;" horiz-adv-x="491" 
d="M367.08 604.25h-242.61v47.5098h242.61v-47.5098zM45.8496 189.88l0.000976562 120.419c0 126.45 69.7305 200.74 201.83 200.74c128.85 0 197.449 -79.96 197.449 -200.75v-120.41c0 -98 -52.0898 -198.88 -198.27 -198.88c-145.32 0 -201.011 99.9004 -201.011 198.881
zM360.251 189.889l0.000976562 120.41c0 82.0303 -39.9004 130.99 -113.391 130.99c-77.9004 0 -116.131 -43.9102 -116.131 -130.99v-120.41c0 -68.5703 33.5195 -129.17 116.13 -129.17c82.0703 0 113.391 60.3896 113.391 129.17z" />
    <glyph glyph-name="oslash" unicode="&#xf8;" horiz-adv-x="491" 
d="M379.28 551l-22.6924 -65.4199c58.2197 -32.71 88.5498 -94.9697 88.5498 -175.29v-120.41c0 -98 -52.0898 -198.88 -198.27 -198.88c-21.8799 0 -41.7197 2.25977 -59.6494 6.4502l-16.4697 -47.4502h-59.04l23.4502 67.5898
c-63.1699 36.2598 -89.3096 104.49 -89.3096 172.29v120.41c0 126.45 69.7402 200.74 201.83 200.74c20.4102 0 39.3105 -2 56.6602 -5.86035l15.9004 45.8301h59.04zM130.738 310.29l0.000976562 -120.409c0 -36.6904 9.59961 -71.1006 31.1797 -95.1709l118.87 342.57
c-10.3604 2.63965 -21.6699 4 -33.9199 4c-77.9004 0 -116.131 -43.9102 -116.131 -130.99zM360.259 189.881v120.4c0 42 -10.46 75.3398 -30.5303 97.8701l-119 -342.95c10.8203 -2.91992 22.8398 -4.49023 36.1396 -4.49023c82.0703 0 113.391 60.3896 113.391 129.17z
" />
    <glyph glyph-name="otilde" unicode="&#xf5;" horiz-adv-x="491" 
d="M111.66 598.53l-31.3887 42.2705c20.0996 21.2598 62.4092 56.4297 105.209 56.4297c50.2305 0 83.9004 -40.75 126.92 -40.75c28.4004 0 54.9502 24.8701 68.1602 38.6504l31.0898 -42.8398c-16.0898 -14.9404 -56.9395 -47.8105 -96.8691 -47.8105
c-50.2305 0 -85.4609 39.5996 -130.451 39.5996c-28.8096 0 -56.0098 -26.5898 -72.6699 -45.5498zM45.8516 189.881l-0.000976562 120.419c0 126.45 69.7402 200.74 201.83 200.74c128.86 0 197.46 -79.96 197.46 -200.75v-120.41c0 -98 -52.0996 -198.88 -198.279 -198.88
c-145.31 0 -201.01 99.9004 -201.01 198.881zM360.261 189.89l0.000976562 120.41c0 82.0303 -39.9004 130.99 -113.4 130.99c-77.9004 0 -116.131 -43.9102 -116.131 -130.99v-120.41c0 -68.5703 33.5195 -129.17 116.13 -129.17c82.0703 0 113.4 60.3896 113.4 129.17z
" />
    <glyph glyph-name="oe" unicode="&#x153;" horiz-adv-x="788" 
d="M45.8496 189.03v120.41c0 125.5 68.7002 200.74 201.01 200.74c92.1904 0 140.73 -42.3203 154.521 -84.8301c12.6396 43.0898 63.8594 83.6797 157.579 83.6797c126.51 0 188 -72.8096 188 -184.659v-104.62h-304.1v-69.04c0 -66.2305 48.4102 -97.3105 110.03 -97.3105
c40.46 0 86.5303 14.1201 125.03 39.7197l46.3301 -40c-41.2598 -38.5 -98.6602 -64.1299 -178.5 -64.1299c-88.3604 0 -137.91 37 -146.53 80.0801c-13.7803 -35.04 -58.2998 -79.0703 -152.359 -79.0703c-145.32 0 -201.011 100.05 -201.011 199.03zM667.189 275.78
l0.000976562 51.29c0 86.0498 -53.6904 114.34 -108.801 114.34c-60.0898 0 -113.26 -30.1299 -113.26 -116.06v-49.5703h222.06zM360.261 185.011l0.00195312 124.431c0 82.0303 -39.9004 131 -113.4 131c-77.9004 0 -116.131 -43.9199 -116.131 -131v-120.41
c0 -68.5596 33.5303 -129.17 116.13 -129.17c80.3496 0 113.399 60.3896 113.399 125.149z" />
    <glyph glyph-name="p" unicode="p" horiz-adv-x="509" 
d="M133.13 500.42l1.96094 -25.998c38.6699 22.8799 88.1895 34.1494 136.229 34.1494c96.5596 0 192.189 -45.2803 192.189 -171.49v-171.49c0 -131.65 -92.4004 -173.591 -184.62 -174.591c-44.5898 0 -92.1396 11.4404 -127.42 26.3203v-218.32h-84.8799v701.42h66.54z
M378.631 171.062l-0.0107422 166.92c-0.419922 70.0996 -48.2295 103.439 -119.529 103.439c-38.4805 0 -76.9404 -8.63965 -107.62 -23.5498v-338.06c27.6299 -11.8701 70.4102 -21.7998 112.18 -21.7998c69.4902 0 114.98 29.5801 114.98 113.05z" />
    <glyph glyph-name="thorn" unicode="&#xfe;" horiz-adv-x="529" 
d="M154.34 699.17l0.0117188 -217.038c35.2695 15.0195 82.8291 26.1895 127.409 26.1895c92.2197 -0.419922 184.62 -42.6602 184.62 -174.311v-169.57c0 -130.19 -95.5 -172.44 -187.49 -172.44c-42.8604 0 -87.5508 8.71973 -124.551 27.0498v-198.05h-84.8799v878.17
h84.8799zM381.502 169.202l0.00976562 159.19c0 83.4697 -45.4902 113.05 -114.98 113.05c-41.7803 0 -84.5498 -9.92969 -112.18 -21.7998v-337.66c31.0703 -14.75 70.4004 -23.5303 109.301 -23.5303c71.21 0 117.85 32.4502 117.85 110.75z" />
    <glyph glyph-name="q" unicode="q" horiz-adv-x="504" 
d="M45.8496 165.59v171.619c0 127.38 97.8398 171.5 192.189 171.5c48.04 0 97.5596 -11.2695 136.229 -34.1494l1.9502 26h66.54v-701.57h-84.8799v218.47c-35.2803 -15.0195 -82.8301 -26.46 -127.42 -26.46c-92.2197 1 -184.609 42.9404 -184.609 174.591z
M357.88 79.9492l-0.0117188 338.058c-30.6699 14.9004 -69.1396 23.5508 -107.609 23.5508c-71.2998 0 -119.109 -33.3398 -119.539 -103.439v-166.93c0 -83.46 45.4902 -113.05 114.98 -113.05c41.7803 0 84.5498 9.94043 112.18 21.8105z" />
    <glyph glyph-name="r" unicode="r" horiz-adv-x="347" 
d="M128.13 505.68l3.31152 -67.0293c31.5303 50.8701 78.71 71.5703 144.67 71.5703c19.3301 0 37.6396 -1.79004 54.5693 -6.44043l-2.87012 -69.7402c-19.7402 4.67969 -37.8701 7.5498 -54.2197 7.5498c-5.65039 0 -11.0908 -0.349609 -16.3105 -1.08008
c-72.1504 -3.28027 -110.86 -47.71 -110.86 -131.18v-309.33h-84.8301v505.68h66.54z" />
    <glyph glyph-name="racute" unicode="&#x155;" horiz-adv-x="347" 
d="M185.3 580.83h-58.5811l54.5303 119.17h83.3604zM128.119 505.68l3.31152 -67.0303c31.5303 50.8701 78.71 71.5703 144.67 71.5703c19.3301 0 37.6396 -1.79004 54.5693 -6.44043l-2.87012 -69.7402c-19.7402 4.69043 -37.8701 7.55078 -54.2197 7.55078
c-5.65039 0 -11.0908 -0.339844 -16.3105 -1.07031c-72.1504 -3.29004 -110.86 -47.7197 -110.86 -131.189v-309.33h-84.8301v505.68h66.54z" />
    <glyph glyph-name="rcaron" unicode="&#x159;" horiz-adv-x="347" 
d="M216.5 574.71h-81.5293l-127.48 139.52h73.1299l94.7197 -101.11l92.0703 101.11h73.4102zM128.131 505.68l3.31152 -67.0303c31.5195 50.8701 78.6992 71.5703 144.669 71.5703c19.3203 0 37.6299 -1.79004 54.5703 -6.44043l-2.87988 -69.7402
c-19.7305 4.69043 -37.8701 7.55078 -54.21 7.55078c-5.66016 0 -11.1006 -0.339844 -16.3105 -1.07031c-72.1504 -3.29004 -110.87 -47.7197 -110.87 -131.189v-309.33h-84.8203v505.68h66.54z" />
    <glyph glyph-name="rcommaaccent" unicode="&#x157;" horiz-adv-x="347" 
d="M128.13 505.68l3.31152 -67.0293c31.5303 50.8701 78.71 71.5703 144.67 71.5703c19.3301 0 37.6396 -1.79004 54.5693 -6.44043l-2.87012 -69.7402c-19.7402 4.67969 -37.8701 7.5498 -54.2197 7.5498c-5.65039 0 -11.0908 -0.349609 -16.3105 -1.08008
c-72.1504 -3.28027 -110.86 -47.71 -110.86 -131.18v-309.33h-84.8301v505.68h66.54zM64.041 -206l18.3408 53c-8.23047 7 -13.7402 17 -13.7402 27c0 18 15.3799 34 33.7197 34c18.3301 0 33.7197 -16 33.7197 -34c0 -5 -1.41992 -10 -3.90039 -15l-30.5801 -65h-37.5596z
" />
    <glyph glyph-name="s" unicode="s" horiz-adv-x="451" 
d="M35.0996 137.46l82.79 -0.000976562c4.21973 -41.9199 35.3994 -80.1104 107.77 -80.1104c62.9004 0 102.42 33.9805 102.42 79.7207c0 56.25 -54.3398 71.46 -119.06 88.9404c-84.0195 20.7998 -161.8 46.8701 -161.8 141.23c0 77.3096 50.8701 144.359 178.78 144.359
c126.13 0 178.06 -66.1602 178.06 -144.67h-81.7197c0.0595703 34.4502 -25.4404 74.8906 -95.9209 74.8906c-70.3701 0 -95.9297 -40.2998 -95.9297 -74.71c0 -42.3604 43.4199 -60.6406 109.91 -77.7305c98.5596 -23.1699 173.29 -57.4902 173.29 -152.49
c0 -78.2998 -57.29 -148.89 -181.99 -148.89c-128.97 0 -193.729 64.5596 -196.6 149.46z" />
    <glyph glyph-name="sacute" unicode="&#x15b;" horiz-adv-x="451" 
d="M237.8 580.83h-58.5801l54.5195 119.17h83.3701zM35.1094 137.46l82.7773 -0.000976562c4.23047 -41.9199 35.4004 -80.1104 107.771 -80.1104c62.9102 0 102.43 33.9805 102.43 79.7207c0 56.25 -54.3496 71.46 -119.069 88.9404
c-84.0098 20.7998 -161.79 46.8701 -161.79 141.23c0 77.3096 50.8701 144.359 178.78 144.359c126.12 0 178.05 -66.1602 178.05 -144.67h-81.7197c0.0703125 34.4502 -25.4297 74.8906 -95.9199 74.8906c-70.3604 0 -95.9199 -40.2998 -95.9199 -74.71
c0 -42.3604 43.4199 -60.6406 109.9 -77.7305c98.5703 -23.1699 173.301 -57.4902 173.301 -152.49c0 -78.2998 -57.2998 -148.89 -182 -148.89c-128.97 0 -193.72 64.5596 -196.59 149.46z" />
    <glyph glyph-name="scaron" unicode="&#x161;" horiz-adv-x="451" 
d="M268.99 574.71h-81.5293l-127.48 139.52h73.1299l94.7197 -101.11l92.0703 101.11h73.4102zM35.1006 137.46l82.7773 -0.000976562c4.23047 -41.9199 35.4004 -80.1104 107.771 -80.1104c62.9102 0 102.43 33.9805 102.43 79.7207
c0 56.25 -54.3496 71.46 -119.069 88.9404c-84.0098 20.7998 -161.79 46.8701 -161.79 141.23c0 77.3096 50.8701 144.359 178.78 144.359c126.12 0 178.05 -66.1602 178.05 -144.67h-81.7197c0.0703125 34.4502 -25.4297 74.8906 -95.9199 74.8906
c-70.3604 0 -95.9199 -40.2998 -95.9199 -74.71c0 -42.3604 43.4199 -60.6406 109.9 -77.7305c98.5703 -23.1699 173.301 -57.4902 173.301 -152.49c0 -78.2998 -57.2998 -148.89 -182 -148.89c-128.97 0 -193.72 64.5596 -196.59 149.46z" />
    <glyph glyph-name="scedilla" unicode="&#x15f;" horiz-adv-x="451" 
d="M35.0996 137.46l82.7979 -0.000976562c4.21973 -41.9199 35.3994 -80.1104 107.77 -80.1104c62.9004 0 102.42 33.9805 102.42 79.7207c0 56.25 -54.3398 71.46 -119.06 88.9404c-84.0195 20.7998 -161.8 46.8701 -161.8 141.23
c0 77.3096 50.8701 144.359 178.78 144.359c126.13 0 178.06 -66.1602 178.06 -144.67h-81.7197c0.0595703 34.4502 -25.4404 74.8906 -95.9307 74.8906c-70.3604 0 -95.9199 -40.2998 -95.9199 -74.71c0 -42.3496 43.4199 -60.6396 109.9 -77.7197
c98.5703 -23.1699 173.301 -57.4902 173.301 -152.5c0 -61.6504 -37.2803 -116.931 -110.561 -137.891c-17.8203 -6 -38.5801 -10 -63.5801 -11l-25.0596 -34c12.4502 3.48047 26.3398 6.2002 40.2002 6.2002c46.9102 0 90.1904 -25.6299 90.1904 -82.2002
c0 -74 -67.0801 -97 -129.95 -97c-40.0596 0 -78.9395 15 -108.499 26l16.8398 39c28.8496 -16 60.5498 -21 85.4502 -23c39.4805 -1 76.7305 16 76.7305 52c0 29.1201 -20.2305 45.0498 -50.3301 45.0498c-17.0801 0 -38.8301 -2.24023 -70.79 -17.0498l-17.21 18
l48.9297 69c-105.88 10 -158.26 71.46 -160.96 147.46z" />
    <glyph glyph-name="scommaaccent" unicode="&#x219;" horiz-adv-x="451" 
d="M35.0996 137.46l82.7891 0.00976562c4.23047 -41.9199 35.4004 -80.1201 107.771 -80.1201c62.9102 0 102.43 33.9805 102.43 79.7305c0 56 -53.8496 71.29 -118.319 88.6904c-84.2598 20.8896 -162.55 46.8701 -162.55 141.47c0 77.3096 50.8701 144.359 178.78 144.359
c126.13 0 178.06 -66.1602 178.06 -144.67h-81.7197c0.0595703 34.4502 -25.4404 74.8906 -95.9209 74.8906c-70.3701 0 -95.9297 -40.2998 -95.9297 -74.71c0 -42.3604 43.4199 -60.6406 109.91 -77.7305c98.5596 -23.1699 173.29 -57.4902 173.29 -152.49
c0 -78.2998 -57.29 -148.89 -181.99 -148.89c-128.97 0 -193.729 64.5596 -196.6 149.46zM186.849 -206l18.3398 53c-8.21973 7 -13.7393 17 -13.7393 27c0 18 15.3799 34 33.7197 34c18.3301 0 33.7197 -16 33.7197 -34c0 -5 -1.41992 -10 -3.90039 -15l-30.5801 -65
h-37.5596z" />
    <glyph glyph-name="germandbls" unicode="&#xdf;" horiz-adv-x="568" 
d="M78.7197 0l-0.000976562 519.04c0 112.44 72.7197 190.271 207.02 190.271c136.74 0 203.48 -76.5098 203.48 -179.45c0 -79 -48.6201 -120.97 -83.0801 -134.18c46.5303 -14.3604 117.391 -70.8408 117.391 -176.601c0 -116.79 -88.2803 -219.09 -221.5 -219.09h-85.96
v79h85.96c78.1699 0 133.28 54.7305 133.28 139.75c0 82.21 -60.6396 136.08 -130.27 137.68l-12.5703 0.0400391v77.7998l12.2598 0.0498047c48.0703 1.36035 96.2705 38.3506 96.2705 100.351c0 67.6104 -42.25 95.6602 -115.9 95.6602
c-78.0898 0 -118.16 -46.2598 -118.16 -106.84v-523.48h-88.2197z" />
    <glyph glyph-name="t" unicode="t" horiz-adv-x="336" 
d="M149.34 501l122.922 -0.000976562v-69.75h-122.91v-232.57c0 -71.3701 26.0195 -116.96 82.1094 -133.18c13.9805 -4.01953 30.25 -6.10938 49.1797 -6.10938c5.96973 0 12.2002 0.209961 18.7197 0.629883v-69.0195c-8.58008 -0.669922 -17.1504 -1 -25.6504 -1
c-17.0098 0 -33.79 1.33008 -49.9902 4c-87.21 14.96 -159.26 70.75 -159.26 190.71v437.72h84.8799v-121.43z" />
    <glyph glyph-name="tbar" unicode="&#x167;" horiz-adv-x="336" 
d="M149.35 501l122.91 -0.0214844v-69.7402h-122.91v-87.0195h122.91v-58.6797h-122.91v-86.8701c0 -69.6699 24.4805 -114.89 78.3105 -131.989c19.3496 -6.08008 42.9893 -8.41992 71.6992 -6.66992v-69.0195c-8.34961 -0.610352 -16.6494 -0.94043 -24.8799 -0.94043
c-18.96 0 -37.5098 1.75977 -55.25 5.93945c-84.5498 15.4004 -154.76 70.7705 -154.76 188.721v437.5h84.8799v-121.21z" />
    <glyph glyph-name="tcaron" unicode="&#x165;" horiz-adv-x="336" 
d="M215.2 623.6l24.9189 74.5596c-11.4199 8.82031 -18.9697 22.7402 -18.9697 38.1104c0 26.7197 22.3203 49.04 49.0508 49.04c26.7197 0 49.04 -22.3203 49.04 -49.04c0 -8.16992 -2.08984 -15.9199 -5.75 -22.75l-42.3604 -89.9199h-55.9297zM149.35 500.989
l122.91 -0.000976562v-69.75h-122.9v-232.57c0 -71.3701 26.0098 -116.96 82.0996 -133.18c13.9902 -4.01953 30.2598 -6.10938 49.1797 -6.10938c5.96973 0 12.21 0.209961 18.7197 0.629883v-69.0195c-8.58008 -0.669922 -17.1396 -1 -25.6494 -1
c-17.0098 0 -33.7793 1.33008 -49.9795 4c-87.2197 14.96 -159.26 70.75 -159.26 190.71v437.72h84.8799v-121.43z" />
    <glyph glyph-name="tcedilla" unicode="&#x163;" horiz-adv-x="336" 
d="M149.34 501l122.917 -0.00878906v-69.75h-122.9v-232.57c0 -71.3701 26.0098 -116.95 82.0996 -133.181c13.9902 -4.01953 30.2598 -6.09961 49.1797 -6.09961c5.96973 0 12.21 0.209961 18.7197 0.629883v-69.0303c-8.58008 -0.660156 -17.1396 -1 -25.6494 -1
c-17.0098 0 -33.7793 1.33984 -49.9795 4c-13.5195 3 -26.5391 6.37012 -38.8887 11.0605l-26.5996 -37.0498c12.5098 4.34961 26.4697 7.18945 40.3896 7.18945c46.8398 0 90 -25.5801 90 -83.1904c0 -74 -67.0801 -96 -129.95 -96c-40.0596 0 -78.9395 14 -108.499 26
l16.8398 38c30.0703 -15.6396 63.25 -22.04 88.7305 -22.04c38.2402 0 73.4502 17.04 73.4502 52.04c0 29 -21.4805 45 -53.1104 45c-16.7002 0 -37.7998 -3 -68.0195 -17l-17.21 17l58.1904 82.9697c-51.0703 29.75 -84.5898 83.3701 -84.5898 166.74v437.72h84.8799
v-121.43z" />
    <glyph glyph-name="uni021B" unicode="&#x21b;" horiz-adv-x="336" 
d="M149.34 501l122.922 -0.000976562v-69.75h-122.9v-232.57c0 -71.3701 26.0098 -116.96 82.0996 -133.18c13.9902 -4.01953 30.2598 -6.10938 49.1797 -6.10938c5.96973 0 12.21 0.209961 18.7197 0.629883v-69.0195c-8.58008 -0.669922 -17.1504 -1 -25.6504 -1
c-17.0098 0 -33.79 1.33008 -49.9902 4c-87.21 14.96 -159.26 70.75 -159.26 190.71v437.72h84.8799v-121.43zM140.412 -206.001l18.3398 53c-8.21973 7 -13.7393 17 -13.7393 27c0 18 15.3896 34 33.7197 34c18.3398 0 33.7197 -16 33.7197 -34
c0 -5 -1.41016 -10 -3.89062 -15l-30.5898 -65h-37.5596z" />
    <glyph glyph-name="u" unicode="u" horiz-adv-x="510" 
d="M453.5 0l-66.5303 0.0107422l-1.9502 26c-40.6797 -22.79 -90.0898 -34 -137.3 -34c-97.5801 0 -191.13 46.4199 -191.13 172.439v336.55h84.8799v-331.66c0 -78.29 46.6396 -110.75 117.85 -110.75c38.9004 0 78.2305 8.78027 109.301 23.5303v418.88h84.8799v-501z" />
    <glyph glyph-name="uacute" unicode="&#xfa;" horiz-adv-x="510" 
d="M268.58 580.83h-58.5801l54.5195 119.17h83.3701zM453.5 0l-66.5303 0.0107422l-1.9502 26c-40.6797 -22.79 -90.0898 -34 -137.3 -34c-97.5801 0 -191.13 46.4199 -191.13 172.439v336.55h84.8799v-331.66c0 -78.29 46.6396 -110.75 117.85 -110.75
c38.9004 0 78.2305 8.78027 109.301 23.5303v418.88h84.8799v-501z" />
    <glyph glyph-name="ucaron" unicode="&#x1d4;" horiz-adv-x="510" 
d="M299.77 574.71h-81.5293l-127.48 139.52h73.1299l94.7197 -101.11l92.0703 101.11h73.4102zM453.5 -0l-66.54 0.0107422l-1.9502 26c-40.6797 -22.79 -90.0898 -34 -137.3 -34c-97.5801 0 -191.12 46.4199 -191.12 172.439v336.55h84.8799v-331.66
c0 -78.29 46.6299 -110.75 117.84 -110.75c38.9102 0 78.2305 8.78027 109.311 23.5303v418.88h84.8799v-501z" />
    <glyph glyph-name="ucircumflex" unicode="&#xfb;" horiz-adv-x="510" 
d="M424.88 572.41h-73.3896l-92.0801 101.11l-94.71 -101.11h-73.1396l127.49 139.52h81.5195zM453.51 0l-66.5303 0.0107422l-1.9502 26c-40.6797 -22.79 -90.0898 -34 -137.3 -34c-97.5801 0 -191.13 46.4199 -191.13 172.439v336.55h84.8799v-331.66
c0 -78.29 46.6396 -110.75 117.85 -110.75c38.9004 0 78.2305 8.78027 109.301 23.5303v418.88h84.8799v-501z" />
    <glyph glyph-name="udieresis" unicode="&#xfc;" horiz-adv-x="510" 
d="M167.32 675.11c22.9004 0 40.96 -18.0703 40.96 -42.2402c0 -23.3203 -18.0596 -42.2305 -41.3799 -42.2305c-23.75 0 -42.6602 18.9102 -42.6602 42.2305c0 24.1699 18.9102 42.2402 43.0801 42.2402zM353.19 675.11c22.8896 0 40.9609 -18.0703 40.9609 -42.2402
c0 -23.3203 -18.0703 -42.2305 -41.3906 -42.2305c-23.7402 0 -42.6602 18.9102 -42.6602 42.2305c0 24.1699 18.9199 42.2402 43.0898 42.2402zM453.501 0l-66.5303 0.0107422l-1.9502 26c-40.6797 -22.79 -90.0898 -34 -137.3 -34
c-97.5801 0 -191.13 46.4297 -191.13 172.439v336.56h84.8799v-331.66c0 -78.2998 46.6396 -110.76 117.85 -110.76c38.9004 0 78.2305 8.79004 109.301 23.5303v418.88h84.8799v-501z" />
    <glyph glyph-name="udieresisacute" unicode="&#x1d8;" horiz-adv-x="510" 
d="M277.2 730.32h-58.5801l54.5195 119.16h83.3701zM167.32 675.101c22.9004 0 40.96 -18.0596 40.96 -42.2295c0 -23.3203 -18.0596 -42.2402 -41.3799 -42.2402c-23.75 0 -42.6602 18.9199 -42.6602 42.2402c0 24.1699 18.9102 42.2295 43.0801 42.2295zM353.19 675.101
c22.8896 0 40.9609 -18.0596 40.9609 -42.2295c0 -23.3203 -18.0703 -42.2402 -41.3906 -42.2402c-23.7402 0 -42.6602 18.9199 -42.6602 42.2402c0 24.1699 18.9199 42.2295 43.0898 42.2295zM453.501 0.000976562l-66.5303 0.0107422l-1.9502 26
c-40.6797 -22.79 -90.0898 -34 -137.3 -34c-97.5801 0 -191.13 46.4199 -191.13 172.439v336.55h84.8799v-331.66c0 -78.29 46.6396 -110.75 117.85 -110.75c38.9004 0 78.2305 8.78027 109.301 23.5303v418.88h84.8799v-501z" />
    <glyph glyph-name="udieresiscaron" unicode="&#x1da;" horiz-adv-x="510" 
d="M299.77 715.74h-81.5293l-127.48 139.52h73.1299l94.7197 -101.11l92.0703 101.11h73.4102zM167.32 675.101c22.8896 0 40.9609 -18.0596 40.9609 -42.2295c0 -23.3203 -18.0703 -42.2402 -41.3906 -42.2402c-23.7402 0 -42.6602 18.9199 -42.6602 42.2402
c0 24.1699 18.9199 42.2295 43.0898 42.2295zM353.182 675.101c22.9004 0 40.96 -18.0596 40.96 -42.2295c0 -23.3203 -18.0596 -42.2402 -41.3799 -42.2402c-23.75 0 -42.6602 18.9199 -42.6602 42.2402c0 24.1699 18.9102 42.2295 43.0801 42.2295zM453.502 0.000976562
l-66.54 0.0107422l-1.9502 26c-40.6797 -22.79 -90.0898 -34 -137.3 -34c-97.5801 0 -191.12 46.4199 -191.12 172.439v336.55h84.8799v-331.66c0 -78.29 46.6299 -110.75 117.84 -110.75c38.9102 0 78.2305 8.78027 109.311 23.5303v418.88h84.8799v-501z" />
    <glyph glyph-name="udieresisgrave" unicode="&#x1dc;" horiz-adv-x="510" 
d="M310.83 730.88h-58.5811l-79.3096 119.16h83.3604zM162.639 676.81c22.8896 0 40.9609 -18.0703 40.9609 -42.2402c0 -23.3203 -18.0703 -42.2305 -41.3906 -42.2305c-23.7402 0 -42.6602 18.9102 -42.6602 42.2305c0 24.1699 18.9199 42.2402 43.0898 42.2402z
M348.5 676.81c22.9004 0 40.96 -18.0703 40.96 -42.2402c0 -23.3203 -18.0596 -42.2305 -41.3799 -42.2305c-23.75 0 -42.6602 18.9102 -42.6602 42.2305c0 24.1699 18.9102 42.2402 43.0801 42.2402zM453.5 -0l-66.54 0.0107422l-1.9502 26
c-40.6797 -22.79 -90.0898 -34 -137.3 -34c-97.5801 0 -191.12 46.4199 -191.12 172.439v336.55h84.8799v-331.66c0 -78.29 46.6299 -110.75 117.84 -110.75c38.9102 0 78.2305 8.78027 109.311 23.5303v418.88h84.8799v-501z" />
    <glyph glyph-name="udieresismacron" unicode="&#x1d6;" horiz-adv-x="510" 
d="M377.66 730.34h-242.61v47.5098h242.61v-47.5098zM162.64 676.81c22.9004 0 40.96 -18.0703 40.96 -42.2402c0 -23.3203 -18.0596 -42.2305 -41.3799 -42.2305c-23.75 0 -42.6602 18.9102 -42.6602 42.2305c0 24.1699 18.9102 42.2402 43.0801 42.2402zM348.51 676.81
c22.8896 0 40.9609 -18.0703 40.9609 -42.2402c0 -23.3203 -18.0703 -42.2305 -41.3906 -42.2305c-23.7402 0 -42.6602 18.9102 -42.6602 42.2305c0 24.1699 18.9199 42.2402 43.0898 42.2402zM453.501 -0l-66.5303 0.0107422l-1.9502 26
c-40.6797 -22.79 -90.0898 -34 -137.3 -34c-97.5801 0 -191.13 46.4199 -191.13 172.439v336.55h84.8799v-331.66c0 -78.29 46.6396 -110.75 117.85 -110.75c38.9004 0 78.2305 8.78027 109.301 23.5303v418.88h84.8799v-501z" />
    <glyph glyph-name="ugrave" unicode="&#xf9;" horiz-adv-x="510" 
d="M322.79 580.83h-58.5693l-79.2402 119.17h83.29zM453.511 0l-66.54 0.0107422l-1.9502 26c-40.6797 -22.79 -90.0898 -34 -137.3 -34c-97.5801 0 -191.12 46.4199 -191.12 172.439v336.55h84.8799v-331.66c0 -78.29 46.6299 -110.75 117.84 -110.75
c38.9102 0 78.2305 8.78027 109.311 23.5303v418.88h84.8799v-501z" />
    <glyph glyph-name="uhungarumlaut" unicode="&#x171;" horiz-adv-x="510" 
d="M205.81 579.98h-55.29l50.6699 120.02h78.0898zM340.59 579.98h-55.29l50.6699 120.02h78.0898zM453.5 0l-66.54 0.0107422l-1.9502 26c-40.6797 -22.79 -90.0898 -34 -137.3 -34c-97.5801 0 -191.12 46.4199 -191.12 172.439v336.55h84.8799v-331.66
c0 -78.29 46.6299 -110.75 117.84 -110.75c38.9102 0 78.2305 8.78027 109.311 23.5303v418.88h84.8799v-501z" />
    <glyph glyph-name="umacron" unicode="&#x16b;" horiz-adv-x="510" 
d="M376.64 604.25h-242.61v47.5098h242.61v-47.5098zM453.499 0l-66.5303 0.0107422l-1.9502 26c-40.6797 -22.79 -90.0898 -34 -137.3 -34c-97.5801 0 -191.13 46.4199 -191.13 172.439v336.55h84.8799v-331.66c0 -78.29 46.6396 -110.75 117.85 -110.75
c38.9004 0 78.2305 8.78027 109.301 23.5303v418.88h84.8799v-501z" />
    <glyph glyph-name="uogonek" unicode="&#x173;" horiz-adv-x="510" 
d="M453.5 -2l-19.6504 -3c-55.1797 -47.7197 -62.8594 -82.5293 -62.8594 -103.239c0 -35.4102 23.7305 -50.7998 52.6904 -50.7998c28.6396 0 50.7793 16.8301 69.2197 44.0498l35.8896 -16c-27.0596 -45 -69.8691 -72 -122.52 -72c-40.4004 0 -94.6807 21 -94.6807 87
c0 23 8.83008 66 75.3799 114l-1.9502 28c-40.6797 -22.79 -90.0898 -34 -137.3 -34c-97.5801 0 -191.13 46.4199 -191.13 172.439v336.55h84.8799v-331.66c0 -78.29 46.6396 -110.75 117.85 -110.75c38.9004 0 78.2305 8.78027 109.301 23.5303v418.88h84.8799v-503z" />
    <glyph glyph-name="uring" unicode="&#x16f;" horiz-adv-x="510" 
d="M257.02 753.91c62.96 0 117.39 -53.4297 117.39 -117.17c0 -62.7695 -53.9102 -117.18 -117.391 -117.18c-63.5098 0 -117.39 54.8799 -117.39 117.18c0 63.2598 54.4102 117.17 117.391 117.17zM257.02 708.411c-40.2598 0 -72.0303 -31.4199 -72.0303 -71.6699
c0 -40.0098 31.8799 -72.2402 72.0303 -72.2402c39.5801 0 71.46 32.2305 71.46 72.2402c0 40.25 -31.7695 71.6699 -71.46 71.6699zM453.499 0.000976562l-66.5303 0.0107422l-1.9502 26c-40.6797 -22.79 -90.0898 -34 -137.3 -34
c-97.5801 0 -191.13 46.4297 -191.13 172.439v336.56h84.8799v-331.66c0 -78.2998 46.6396 -110.76 117.85 -110.76c38.9004 0 78.2305 8.79004 109.301 23.5303v418.88h84.8799v-501z" />
    <glyph glyph-name="v" unicode="v" horiz-adv-x="471" 
d="M282.63 0.0400391h-94.2197l-171.92 500.91h86.2998l132.45 -403.49l133.02 403.49h86.0801z" />
    <glyph glyph-name="w" unicode="w" horiz-adv-x="713" 
d="M536.95 0.0400391h-87.8486l-92.7197 335.02l-92.1504 -335.02h-87.2803l-160.46 500.91h88.8203l114.39 -387.84l99.7002 387.84h73.3799l100.27 -387.26l114.96 387.26h88.8896z" />
    <glyph glyph-name="wacute" unicode="&#x1e83;" horiz-adv-x="713" 
d="M382.02 580.83h-58.5811l54.5303 119.17h83.3604zM536.948 0.0400391h-87.8486l-92.7197 335.02l-92.1504 -335.02h-87.2803l-160.46 500.91h88.8203l114.39 -387.84l99.7002 387.84h73.3799l100.27 -387.26l114.96 387.26h88.8896z" />
    <glyph glyph-name="wcircumflex" unicode="&#x175;" horiz-adv-x="713" 
d="M524.87 572.41h-73.4004l-92.0703 101.11l-94.7197 -101.11h-73.1299l127.48 139.52h81.5195zM536.96 0.0400391h-87.8486l-92.7197 335.02l-92.1504 -335.02h-87.2803l-160.46 500.91h88.8203l114.39 -387.84l99.7002 387.84h73.3799l100.27 -387.26l114.96 387.26
h88.8896z" />
    <glyph glyph-name="wdieresis" unicode="&#x1e85;" horiz-adv-x="713" 
d="M267.31 675.1c22.8896 0 40.9609 -18.0596 40.9609 -42.2295c0 -23.3203 -18.0703 -42.2402 -41.3906 -42.2402c-23.7402 0 -42.6602 18.9199 -42.6602 42.2402c0 24.1699 18.9199 42.2295 43.0898 42.2295zM453.171 675.1c22.9004 0 40.96 -18.0596 40.96 -42.2295
c0 -23.3203 -18.0596 -42.2402 -41.3799 -42.2402c-23.75 0 -42.6602 18.9199 -42.6602 42.2402c0 24.1699 18.9102 42.2295 43.0801 42.2295zM536.951 0.0400391h-87.8486l-92.7197 335.01l-92.1504 -335.01h-87.2803l-160.46 500.91h88.8301l114.39 -387.84
l99.6904 387.84h73.3896l100.26 -387.27l114.97 387.27h88.8799z" />
    <glyph glyph-name="wgrave" unicode="&#x1e81;" horiz-adv-x="713" 
d="M399.85 580.83h-58.5801l-79.2402 119.17h83.29zM536.949 0.0400391h-87.8486l-92.7197 335.02l-92.1504 -335.02h-87.2803l-160.46 500.91h88.8203l114.39 -387.84l99.7002 387.84h73.3799l100.27 -387.26l114.96 387.26h88.8896z" />
    <glyph glyph-name="x" unicode="x" horiz-adv-x="435" 
d="M273.66 249.99l143.58 -249.95h-90.5898l-106.75 189.7l-111.29 -189.7h-92.1201l151.79 251.04l-145.36 249.87h92.8896l105.08 -194.1l103.41 194.1h91.6904z" />
    <glyph glyph-name="y" unicode="y" horiz-adv-x="515" 
d="M453.5 501l-0.00878906 -526.012c0 -117 -75.0303 -170 -173.53 -170c-62.4902 0 -126.03 19 -178.58 53l33.7305 49c37.3203 -22.2695 80.7207 -37.0391 124.74 -37.0391c64.1904 0 107.29 25.4697 108.76 97.04v58.6201
c-34.1201 -16.1699 -82.8301 -25.6201 -128.561 -25.6201c-96.1602 0.429688 -183.46 44.1094 -183.46 172.02v328.99h84.8799v-324.77c0 -83.46 45.4902 -113.05 114.98 -113.05c41.7695 0 84.5391 9.94043 112.169 21.8105v416.01h84.8799z" />
    <glyph glyph-name="yacute" unicode="&#xfd;" horiz-adv-x="515" 
d="M271.86 580.83h-58.5801l54.5195 119.17h83.3701zM453.511 501l-0.00878906 -526c0 -117 -75.0303 -170 -173.53 -170c-62.4902 0 -126.04 19 -178.58 53l33.7197 49c37.3203 -22.2803 80.7305 -37.0498 124.75 -37.0498c64.1797 0 107.279 25.4697 108.76 97.0498
v58.6104c-34.1299 -16.1699 -82.8301 -25.6104 -128.561 -25.6104c-96.1602 0.419922 -183.47 44.0996 -183.47 172.02v328.98h84.8799v-324.76c0 -83.4697 45.4902 -113.05 114.98 -113.05c41.7803 0 84.5498 9.92969 112.18 21.7998v416.01h84.8799z" />
    <glyph glyph-name="ycircumflex" unicode="&#x177;" horiz-adv-x="515" 
d="M428.16 572.41h-73.3896l-92.0801 101.11l-94.71 -101.11h-73.1396l127.49 139.52h81.5195zM453.511 501l-0.00878906 -526.012c0 -117 -75.0303 -170 -173.53 -170c-62.4902 0 -126.03 19 -178.58 53l33.7305 49c37.3203 -22.2695 80.7207 -37.0391 124.74 -37.0391
c64.1904 0 107.29 25.4697 108.76 97.04v58.6201c-34.1201 -16.1699 -82.8301 -25.6201 -128.561 -25.6201c-96.1602 0.429688 -183.46 44.1094 -183.46 172.02v328.99h84.8799v-324.77c0 -83.46 45.4902 -113.05 114.98 -113.05c41.7695 0 84.5391 9.94043 112.169 21.8105
v416.01h84.8799z" />
    <glyph glyph-name="ydieresis" unicode="&#xff;" horiz-adv-x="515" 
d="M170.6 675.1c22.9004 0 40.96 -18.0596 40.96 -42.2295c0 -23.3203 -18.0596 -42.2402 -41.3799 -42.2402c-23.75 0 -42.6602 18.9199 -42.6602 42.2402c0 24.1699 18.9102 42.2295 43.0801 42.2295zM356.47 675.1c22.8896 0 40.9609 -18.0596 40.9609 -42.2295
c0 -23.3203 -18.0703 -42.2402 -41.3906 -42.2402c-23.7402 0 -42.6602 18.9199 -42.6602 42.2402c0 24.1699 18.9199 42.2295 43.0898 42.2295zM453.511 501l-0.00878906 -526.012c0 -117 -75.0303 -170 -173.53 -170c-62.4902 0 -126.04 19 -178.58 53l33.7197 49
c37.3203 -22.2695 80.7305 -37.0391 124.75 -37.0391c64.1797 0 107.279 25.4697 108.76 97.04v58.6201c-34.1299 -16.1699 -82.8301 -25.6201 -128.561 -25.6201c-96.1602 0.429688 -183.47 44.1094 -183.47 172.02v328.99h84.8799v-324.77
c0 -83.46 45.4902 -113.05 114.98 -113.05c41.7803 0 84.5498 9.94043 112.18 21.8105v416.01h84.8799z" />
    <glyph glyph-name="ygrave" unicode="&#x1ef3;" horiz-adv-x="515" 
d="M326.06 580.83h-58.5693l-79.2402 119.17h83.29zM453.51 501l-0.00878906 -526c0 -117 -75.0303 -170 -173.53 -170c-62.4902 0 -126.04 19 -178.58 53l33.7197 49c37.3203 -22.2803 80.7305 -37.0498 124.75 -37.0498c64.1797 0 107.279 25.4697 108.76 97.0498v58.6104
c-34.1299 -16.1699 -82.8301 -25.6104 -128.561 -25.6104c-96.1602 0.419922 -183.47 44.0996 -183.47 172.02v328.98h84.8799v-324.76c0 -83.4697 45.4902 -113.05 114.98 -113.05c41.7803 0 84.5498 9.92969 112.18 21.7998v416.01h84.8799z" />
    <glyph glyph-name="z" unicode="z" horiz-adv-x="434" 
d="M389.53 448.78l-248.909 -379.03h255.18v-69.71h-360.7v52.4404l248.81 378.77h-231.55v69.71h337.17v-52.1797z" />
    <glyph glyph-name="zacute" unicode="&#x17a;" horiz-adv-x="434" 
d="M233.07 580.83h-58.5703l54.5195 119.17h83.3604zM389.53 448.78l-248.899 -379.03h255.18v-69.71h-360.7v52.4404l248.8 378.77h-231.55v69.71h337.17v-52.1797z" />
    <glyph glyph-name="zcaron" unicode="&#x17e;" horiz-adv-x="434" 
d="M265.54 574.71h-81.5293l-127.48 139.52h73.1299l94.7197 -101.11l92.0703 101.11h73.4102zM389.521 448.78l-248.899 -379.04h255.18v-69.7002h-360.7v52.4297l248.8 378.78h-231.55v69.7002h337.17v-52.1699z" />
    <glyph glyph-name="zdotaccent" unicode="&#x17c;" horiz-adv-x="434" 
d="M214.92 679.58c22.8896 0 40.9609 -18.0596 40.9609 -42.2295c0 -23.3203 -18.0703 -42.2402 -41.3906 -42.2402c-23.7402 0 -42.6602 18.9199 -42.6602 42.2402c0 24.1699 18.9199 42.2295 43.0898 42.2295zM389.531 448.78l-248.909 -379.03h255.18v-69.71h-360.7
v52.4404l248.81 378.77h-231.55v69.71h337.17v-52.1797z" />
    <glyph glyph-name="T_h" horiz-adv-x="1018" 
d="M650.53 700l0.00878906 -218.051c36.8604 18.2002 81.3506 27.1201 124.061 27.1201c93.2803 0 187.971 -42.5195 187.971 -172.51v-336.56h-84.8799v331.66c0 78.8701 -45.4902 111.33 -116.13 111.33c-39.4805 0 -79.3701 -9.36035 -111.021 -24.1104v-418.88h-84.8799
v621.2h-262.6v-621.2h-88.25v621.2h-179.7v78.7998h615.42z" />
    <glyph glyph-name="c_h" horiz-adv-x="965" 
d="M45.8496 195.04l-0.0078125 110.659c0 130.54 75.0596 190.47 164.6 199.41c11.1299 1.48047 22.4395 2.18066 33.7998 2.18066c21.8604 0 43.8906 -2.61035 65.0303 -7.32031c-9.33984 17.2305 -14.4502 36.7109 -14.4502 57.2812
c0 32.6904 12.9102 68.1309 42.2803 101.661c33.0498 37.5898 81.1299 59.2695 133.06 59.2695c54.4297 0 98.1699 -24.7002 127.29 -55.3604v-180.87c36.8604 18.2002 81.3506 27.1201 124.061 27.1201c93.29 0 187.97 -42.5195 187.97 -172.51v-336.56h-84.8799v331.66
c0 78.8701 -45.4805 111.33 -116.12 111.33c-39.4805 0 -79.3809 -9.36035 -111.031 -24.1104v-418.88h-84.8799v637.15c-14.1504 6.86035 -29.9004 10.21 -45.6309 10.21c-28.3496 0 -56.6592 -10.8896 -75.5596 -31.7695
c-20.1201 -20.2002 -31.1006 -47.9307 -31.1006 -77.2607c0 -39.9502 23.9805 -69.2803 43.7002 -105.5l-66.0498 -29.5c-26.3096 24.46 -57.9199 36.7998 -92.2197 36.7998c-68.1396 0 -114.979 -41.6104 -114.979 -134.44v-110.66
c0 -92.8203 46.8398 -134.44 114.979 -134.44c34.2998 0 65.9102 12.3398 92.2197 36.7998l66.0498 -29.5c-33.7598 -46.9004 -84.3301 -76.8906 -158.271 -76.8906c-121.97 0 -199.859 72.21 -199.859 204.04z" />
    <glyph glyph-name="c_t" horiz-adv-x="782" 
d="M43.7197 195.3l0.00976562 110.593c0 127.15 70.4902 195.141 182.21 202.351c25.7803 1.08984 53.1299 -1.66992 81.2197 -8.08008c-9.71973 17.6699 -14.8193 37.4395 -14.8193 57.999c0 36.5996 16.1504 75.71 51.0801 109.92
c32.6104 32.3496 77.1299 50.2793 124.63 50.2793c71.4102 0 106.23 -34.9297 127.29 -55.5098v-161.93h122.91v-69.7402h-122.91v-232.57c0 -73.54 28.04 -119.54 87.0898 -134.54c12.4004 -3.17969 26.7002 -4.83984 43.2305 -4.83984
c6.24023 0 12.7998 0.240234 19.6895 0.720703v-68.9502c-9.65039 -0.830078 -19.3301 -1.31055 -28.9805 -1.31055c-13.6396 0 -27.1992 0.969727 -40.4688 3.30957c-90.8604 12.79 -165.45 68.9805 -165.45 191.631v452.71
c-14.4297 6.66992 -29.8301 9.86035 -45.0605 9.86035c-27.04 0 -53.54 -10.0498 -73.0996 -28.46c-21.5303 -20.2305 -34.6504 -48.8809 -34.6504 -80.2412c0 -40.21 26.0303 -67.9297 44.2207 -105.399l-66.0498 -29.5098
c-26.3096 24.46 -57.9297 36.7998 -92.2295 36.7998c-68.1396 0 -114.979 -41.6104 -114.979 -134.44v-110.66c0 -92.8203 46.8398 -134.44 114.979 -134.44c34.2998 0 65.9199 12.3398 92.2295 36.7998l66.0498 -29.5
c-33.7695 -46.9004 -84.3398 -77.1504 -158.28 -77.1504c-121.96 0 -199.86 72.4697 -199.86 204.3z" />
    <glyph glyph-name="f_b" horiz-adv-x="800" 
d="M64.46 0l0.00878906 542.549c0 113.44 74.8799 168.91 176.36 168.91c122.62 0 201.62 -51.3096 201.62 -51.3096v-177.05c35.1699 14.7803 82.5498 25.9707 127.01 25.9707c91.2402 0 185.021 -41.5996 185.021 -174.239v-171.49
c0 -127.38 -97.8301 -171.34 -192.18 -171.34c-48.04 0 -97.5703 11.1201 -136.24 34l-1.9502 -26h-66.54v618.55c-37.2598 14.7402 -73.1699 22.5801 -111.979 22.5801c-40.0801 0 -96.1104 -18.4404 -96.25 -107.521v-32.6104h122.91v-66.0303h-122.91v-434.97h-84.8799z
M669.599 162.429l0.0107422 166.931c0 83.4697 -45.4902 113.05 -114.98 113.05c-41.7695 0 -84.5498 -9.92969 -112.18 -21.7998v-338.07c30.6797 -14.9004 69.1396 -23.54 107.62 -23.54c71.2998 0 119.109 33.3398 119.529 103.43z" />
    <glyph glyph-name="f_h" horiz-adv-x="811" 
d="M64.46 0l0.0078125 542.539c0 113.44 74.8896 168.91 176.37 168.91c122.61 0 201.61 -51.3096 201.61 -51.3096v-178.19c36.8604 18.2002 81.3506 27.1201 124.061 27.1201c93.2803 0 187.971 -42.5195 187.971 -172.51v-336.56h-84.8799v331.66
c0 78.8701 -45.4902 111.33 -116.13 111.33c-39.4805 0 -79.3701 -9.36035 -111.021 -24.1104v-418.88h-84.8799v618.54c-37.2598 14.75 -73.1699 22.5898 -111.979 22.5898c-39.9502 0 -96.0898 -18.2998 -96.25 -107.3v-32.8301h122.91v-66.0303h-122.91v-434.97h-84.8799
z" />
    <glyph glyph-name="f_i" horiz-adv-x="504" 
d="M64.4697 0v542.55c0 113.43 74.8799 168.91 176.36 168.91c77.4199 0 138.25 -25.1396 156.8 -31.8496v-62.2305s-60.2598 23.75 -139.2 23.75c-50.79 0 -108.66 -16.2305 -109.08 -108.57v-31.5596h293.1v-501h-84.8799v434.97h-208.22v-434.97h-84.8799z" />
    <glyph glyph-name="f_j" horiz-adv-x="504" 
d="M64.46 0v542.55c0 113.43 74.8896 168.91 176.37 168.91c77.4102 0 138.25 -25.1396 156.8 -31.8496v-62.2305s-60.2598 23.75 -139.2 23.75c-48.6201 0 -108.061 -14.96 -109.08 -105.55v-34.5801h293.1v-550c0 -78 -49.5996 -123 -114.109 -138
c-14.8301 -5 -31.1396 -8 -49.5996 -9l-1.71973 69c17.3701 2 30.9805 5 41.9902 10c33.1396 17 38.5596 50 38.5596 82v469.97h-208.23v-434.97h-84.8799z" />
    <glyph glyph-name="f_k" horiz-adv-x="800" 
d="M66.5898 0l0.00976562 542.549c0 113.43 74.8799 168.91 176.36 168.91c122.62 0 201.62 -51.3096 201.62 -51.3096v-362.84l206 210.9h102.87l-192.32 -205.92l222.34 -302.29h-95.5898l-176.69 243.82l-66.6104 -63v-180.82h-84.8799v618.54
c-37.2598 14.75 -73.1699 22.5898 -111.979 22.5898c-39.4902 0 -96 -17.8203 -96.25 -106.54v-33.5898h122.91v-66.0303h-122.91v-434.97h-84.8799z" />
    <glyph glyph-name="f_l" horiz-adv-x="501" 
d="M64.4697 0l-0.00195312 542.539c0 113.44 74.8799 168.91 176.36 168.91c122.62 0 201.62 -51.3096 201.62 -51.3096v-660.14h-84.8799v618.54c-37.25 14.75 -73.1699 22.5898 -111.979 22.5898c-39.8896 0 -96.0693 -18.25 -96.2393 -107.22v-32.9102h122.9v-66.0303
h-122.9v-434.97h-84.8799z" />
    <glyph glyph-name="s_p" horiz-adv-x="961" 
d="M33.4004 137.46l82.7891 -0.00976562c4.21973 -41.9199 35.3994 -80.1104 107.77 -80.1104c62.9004 0 102.42 33.9805 102.42 79.7305c0 55.9902 -53.8203 71.29 -118.271 88.6904c-84.2803 20.8799 -162.58 46.8604 -162.58 141.471
c0 74.04 47.4697 143.22 168.64 143.22c19.3496 0 37.5498 -1.9502 56.3799 -5.48047c-7.2998 16.8896 -11.1699 35.3799 -11.1699 54.54c0 82.5801 71.3896 151.34 160.33 151.34c93.6797 0 167.949 -77.4199 168.359 -167.55v-68.1699
c38.6797 22.8799 87.5693 33.4297 135.609 33.4297c96.5596 0 192.189 -45.2803 192.189 -171.49v-171.5c0 -131.65 -92.4004 -173.591 -184.61 -174.591c-44.5801 0 -92.1396 11.4502 -127.409 26.3301v-218.33h-84.8896v744.32
c-0.459961 55.1201 -47.4697 97.7998 -99.2393 97.7998c-54.3799 0 -98.6299 -44.2402 -98.6299 -98.6201c0 -25.3398 10.2402 -47.7803 26.4199 -63.4805c37.8604 -26.5898 54.8506 -67.0898 54.8506 -112.08h-81.7197
c0.0703125 34.4502 -25.4297 74.8906 -95.9199 74.8906c-70.3604 0 -95.9199 -40.2998 -95.9199 -74.71c0 -42.3496 43.4199 -60.6396 109.9 -77.7197c98.5703 -23.1699 173.301 -57.4902 173.301 -152.5c0 -78.29 -57.2998 -148.88 -182 -148.88
c-128.97 0 -193.729 64.5596 -196.6 149.46zM830.989 171.05l-0.0107422 166.921c-0.419922 70.0996 -48.2295 103.439 -119.529 103.439c-38.4805 0 -76.9502 -8.65039 -107.62 -23.5508v-338.06c27.6299 -11.8701 70.3994 -21.7998 112.18 -21.7998
c69.4902 0 114.98 29.5801 114.98 113.05z" />
    <glyph glyph-name="s_t" horiz-adv-x="759" 
d="M37.46 137.73l82.79 -0.000976562c4.21973 -41.9199 35.3994 -80.1104 107.77 -80.1104c62.9004 0 102.42 33.9805 102.42 79.7305c0 56.1904 -54.2305 71.4102 -118.891 88.8701c-84.0703 20.8203 -161.96 46.8701 -161.96 141.29
c0 73.8398 47.8096 142.359 171.069 142.359c18.6797 0 37.25 -1.7998 60.7402 -4.99023c-7.62988 15.9102 -11.8301 33.8799 -11.8301 52.8096c0 34.7002 14.0996 72.6504 47.0498 107.19c32.9502 34.5498 79.0303 54.0303 128.45 54.0303
c70.5596 0 113.369 -45.0498 127.189 -55.5303v-161.91h122.9v-69.75h-122.9v-232.57c0 -75.4902 29.9297 -121.79 91.6797 -135.59c10.9404 -2.54004 23.46 -3.87988 37.8799 -3.87988c6.42969 0 13.2393 0.269531 20.4492 0.80957v-69.5
c-9.66992 -0.900391 -19.4297 -1.40039 -29.1797 -1.40039c-11.9404 0 -23.8701 0.740234 -35.6299 2.39062c-93.5801 11.6299 -170.08 68.5801 -170.08 193.19v452.71c-14.3896 7.25 -30.1797 10.9404 -45.96 10.9404c-24.1602 0 -48.29 -8.67969 -67.3096 -26.5693
c-24.4805 -19.6797 -39.4404 -49.9492 -39.4404 -83.1992c0 -26.8398 9.23047 -50.04 26.9707 -67.6299c30.2998 -27.46 44.7803 -64.4502 44.7803 -104.22h-81.7197c0.0703125 34.4502 -25.4297 74.8799 -95.9199 74.8799c-70.3604 0 -95.9199 -40.29 -95.9199 -74.7002
c0 -42.3604 43.4199 -60.6406 109.9 -77.7305c98.5703 -23.1699 173.301 -57.4902 173.301 -152.49c0 -78.2998 -57.2998 -149.16 -182 -149.16c-128.97 0 -193.729 64.8301 -196.6 149.73z" />
    <glyph glyph-name="ordfeminine" unicode="&#xaa;" horiz-adv-x="336" 
d="M90.4902 589.17l-31.6104 34.6289c22.2002 22.3203 58.8203 35.7207 102.34 35.7207c112.9 0 133.21 -64.8604 133.21 -135.57v-174.98h-47.2598l-1.12012 13.6797c-23.75 -11.96 -52.8301 -18.6396 -81.2998 -18.6396c-65.29 1.15039 -123.26 26.6309 -123.26 102.841
c0 78.8799 65.29 98.6699 130.66 98.6699c19.4102 0 44 -2.55957 66.4902 -5.75977c-3.07031 41.0498 -16.4502 69.1699 -78.9805 69.1699c-25.25 0 -49.96 -4.75977 -69.1699 -19.7598zM239.62 408.029l-0.000976562 92.0205
c-15.5098 1.71973 -40.25 6.33984 -59.46 6.33984c-42.7598 0 -83.2793 -10.4502 -83.2793 -56.75c0 -44.5801 34.7402 -57.3398 76.9707 -57.3398c24.4199 0 50.8398 8.25977 65.7695 15.7295z" />
    <glyph glyph-name="ordmasculine" unicode="&#xba;" horiz-adv-x="328" 
d="M41.4902 467.7l-0.00878906 68.1602c0 70.9697 39.0303 124.14 123.36 124.14c83.7197 0 122.149 -55.75 122.149 -124.3v-68.1504c0 -61.75 -33.8799 -123.57 -122.78 -123.57c-87.7402 0 -122.721 62.0703 -122.721 123.721zM228.571 465.25l0.000976562 72.7607
c0 40.1699 -21.9404 69.46 -63.7705 69.46c-42.9805 0 -64.3203 -27.3203 -64.3203 -69.3105v-72.7598c0 -35 17.9102 -68.8799 63.7598 -68.8799c46.4297 0 64.3301 33.6299 64.3301 68.7295z" />
    <glyph glyph-name="uni0419" unicode="&#x419;" horiz-adv-x="633" 
d="M413.38 915.55h42.2793c0 -77.46 -60.9697 -133.32 -138.96 -133.32c-77.9805 0 -138.961 55.8604 -138.961 133.32h42.2803c2.98047 -48.9102 44.3809 -85.2402 96.6807 -85.2402c51.7197 0 93.7002 36.3301 96.6807 85.2402zM556.659 -0h-88.2393v522.97
l-299.75 -522.97h-92.0703v700h88.2598v-531.75l303.95 531.75h87.8496v-700z" />
    <glyph glyph-name="uni0410" unicode="&#x410;" 
d="M586.01 0h-92.4102l-71.4697 220.35h-231.53l-72.04 -220.35h-91.3301l236.49 700h85.29zM212.1 299.15h188.539l-94.2695 289.6z" />
    <glyph glyph-name="uni0411" unicode="&#x411;" horiz-adv-x="603" 
d="M505.85 620.58h-335.869v-224.19h199.34c116.9 0 183.5 -65.9404 183.5 -198.2s-66.5996 -198.189 -183.5 -198.189h-287.65v700.04h424.18v-79.46zM169.921 317.83v-239.27h180.2c74.2402 0 114.601 41.0801 114.601 119.64c0 78.5498 -40.3604 119.63 -114.601 119.63
h-180.2z" />
    <glyph glyph-name="uni0412" unicode="&#x412;" horiz-adv-x="604" 
d="M81.5898 700.03l271.659 0.00195312c116.86 0 182.391 -83.4502 182.391 -180.311c0 -82.5303 -30.0596 -139.311 -86.0898 -167.101c67.2002 -26.2305 103.49 -89.9707 103.49 -161.641c0 -123 -66.9004 -190.98 -183.79 -190.98h-287.66v700.03zM169.929 621.152
l-0.000976562 -231.34h162.84c74.2305 0 114.591 41.0801 114.591 119.63c0 61.2598 -39.6396 111.71 -113.149 111.71h-164.28zM169.848 309.902l-0.00195312 -231.34h180.2c74.2305 0 114.591 41.0801 114.591 119.63c0 61.2598 -39.6396 111.71 -113.149 111.71h-181.64z
" />
    <glyph glyph-name="uni0413" unicode="&#x413;" horiz-adv-x="522" 
d="M505.77 620.58h-335.859v-620.58h-88.3203v700.04h424.18v-79.46z" />
    <glyph glyph-name="uni0414" unicode="&#x414;" horiz-adv-x="711" 
d="M592.11 77.7305h81.9111v-228.73h-82.4102v151.43h-472.15v-151.43h-82.4004v228.73h66.2002c34.5195 26.4404 54.9199 68.8506 54.9199 126.2v496.5h433.93v-622.7zM246.432 621.58v-416.399c0 -53.9697 -14.0195 -96.3701 -38.9199 -127.45h296.25v543.85h-257.33z" />
    <glyph glyph-name="uni0415" unicode="&#x415;" horiz-adv-x="567" 
d="M519.1 621.2l-349.249 -0.000976562v-232.26h322.79v-78.7998h-322.79v-231.34h354.72v-78.7998h-442.98v700h437.51v-78.7998z" />
    <glyph glyph-name="uni0416" unicode="&#x416;" horiz-adv-x="964" 
d="M619.86 368.77l316.911 -368.77h-104.76l-305.86 364.03v-364.03h-88.3203v364.03l-305.85 -364.03h-104.76l316.92 368.77l-270.79 331.23h101.77l262.72 -333.17v333.17h88.3203v-333.17l262.71 333.17h101.77z" />
    <glyph glyph-name="uni0417" unicode="&#x417;" horiz-adv-x="517" 
d="M132.64 561.93l-75.2188 31.0176c21.54 52.6699 83.5801 117.74 178.94 117.74c107.64 0 194.659 -74.2695 194.659 -188.59c0 -75.2803 -47.4297 -125.75 -92.5293 -147.9c58.0195 -23.7197 117.34 -84.6797 117.34 -175.399
c0 -130.77 -95.9404 -210.81 -220.04 -210.81c-99.5596 0 -165.77 55.2402 -196.43 102.84l66.1396 43.1699c25.6699 -39.6699 74.4395 -66.7197 130.289 -66.7197c76.7695 0 134.369 57.0303 134.369 133.23c0 74.4697 -65.6699 135.239 -142.25 135.239h-51v71.04h51
c64.2998 0 119.109 48.1797 119.109 111.91c0 64.8701 -46.9297 113.521 -110.66 113.521c-56.5195 0 -91.0791 -39.2695 -103.719 -70.2891z" />
    <glyph glyph-name="uni0418" unicode="&#x418;" horiz-adv-x="633" 
d="M556.65 0h-88.2393v522.97l-299.75 -522.97h-92.0703v700h88.2598v-531.75l303.95 531.75h87.8496v-700z" />
    <glyph glyph-name="uni041A" unicode="&#x41a;" horiz-adv-x="616" 
d="M263.61 368.77l316.91 -368.77h-104.76l-305.85 364.03v-364.03h-88.3203v700h88.3203v-333.17l262.71 333.17h101.77z" />
    <glyph glyph-name="uni041B" unicode="&#x41b;" horiz-adv-x="660" 
d="M587.85 0l-88.3311 0.000976562v621.16h-257.35v-432.49c0 -139.57 -89.7002 -198.67 -209.36 -198.67v77.0996c61.9004 0 121.101 30.0498 121.101 120.319v512.58h433.94v-700z" />
    <glyph glyph-name="uni041C" unicode="&#x41c;" horiz-adv-x="748" 
d="M669.23 0h-87.3496v496.3l-175.49 -456.71h-65.2402l-174.34 456.71v-496.3h-87.3496v700h89.1396l205.75 -529.96l205.74 529.96h89.1396v-700z" />
    <glyph glyph-name="uni041D" unicode="&#x41d;" horiz-adv-x="652" 
d="M570.3 0h-88.2598v310.14h-312.19v-310.14h-88.2598v700h88.2598v-311.06h312.19v311.06h88.2598v-700z" />
    <glyph glyph-name="uni041E" unicode="&#x41e;" horiz-adv-x="620" 
d="M65.8496 215.33l-0.00976562 260.89c0 158.66 100.71 238.71 246.18 238.71c156.06 0 242.529 -95.5801 242.529 -239.62v-259.98c0 -169.52 -131.17 -227.329 -243.439 -227.329c-111.16 0 -245.26 57.5996 -245.26 227.33zM466.29 215.34l0.00195312 259.969
c0 102.76 -52.7305 160.83 -154.271 160.83c-98.4805 0 -157.921 -49.0098 -157.921 -159.92v-260.88c0 -111.38 78.8301 -148.06 157.01 -148.06c78.8799 0 155.18 36.4404 155.18 148.061z" />
    <glyph glyph-name="uni041F" unicode="&#x41f;" horiz-adv-x="652" 
d="M570.3 0h-88.3398v621.16h-312.05v-621.16h-88.3203v700h488.71v-700z" />
    <glyph glyph-name="uni0420" unicode="&#x420;" horiz-adv-x="602" 
d="M81.5898 700h259.26c134.44 0 207.78 -94.6797 207.78 -200.56c0 -133.58 -76.2002 -211.061 -209.61 -211.011h-169.17v-288.43h-88.2598v700zM169.85 621.21l0.000976562 -253.76h168.21c81.4199 0 125.689 45.0596 125.689 131.229
c0 67.1904 -43.4805 122.53 -124.11 122.53h-169.79z" />
    <glyph glyph-name="uni0421" unicode="&#x421;" horiz-adv-x="563" 
d="M65.8496 228.14l-0.0107422 249.109c0 158.65 102.11 238.71 244.46 238.71c104.3 0 176.42 -46.3496 210.25 -120.649l-65.0703 -31.0596c-25.3896 47.2002 -76.2393 72.9199 -138.609 72.9199c-94.1797 0 -162.76 -52.2305 -162.76 -159.921v-249.11
c0 -107.69 68.5801 -159.921 162.76 -159.921c62.3701 0 113.22 25.7197 138.62 72.9102l65.0703 -31.0596c-33.8301 -74.2998 -105.95 -121.069 -210.25 -121.069c-142.35 0 -244.46 80.4805 -244.46 239.141z" />
    <glyph glyph-name="uni0422" unicode="&#x422;" horiz-adv-x="530" 
d="M489.15 621.2h-186.09v-621.2h-88.2598v621.2h-179.7v78.7998h454.05v-78.7998z" />
    <glyph glyph-name="uni0423" unicode="&#x423;" horiz-adv-x="628" 
d="M579.04 700l-254.39 -594.939c-28.3799 -66.6104 -74.4395 -119.061 -154.34 -119.061h-72.2998v79.0801h57.4102c52.71 0 83.2598 31.5498 104.25 83.5l23.8203 56.71l-228.28 494.71h92.0195l177.47 -395.9l163.74 395.9h90.5996z" />
    <glyph glyph-name="uni0424" unicode="&#x424;" horiz-adv-x="763" 
d="M425.83 631.53l27.998 -0.000976562c139.65 0 245.851 -64.6396 245.851 -281.529c0 -217.26 -106.25 -281.58 -246.63 -281.64h-27.2197v-68.3604h-88.3096v68.4199h-27.21c-142.63 0 -246.59 65.46 -246.59 281.58c0 217.35 106.7 281.56 246.851 281.64h27.0098
v68.3604h88.25v-68.4697zM337.519 552.839h-26.7793c-103.61 -1.37012 -158.761 -45.4697 -158.761 -202.84c0 -157.36 55.5498 -201.4 158.79 -202.771h26.75v405.61zM425.879 147.358l27.2197 0.000976562c102.87 1.40039 158.32 45.5303 158.32 202.63
c0 157.14 -55.0703 201.33 -158.32 202.85h-27.2197v-405.48z" />
    <glyph glyph-name="uni0425" unicode="&#x425;" horiz-adv-x="628" 
d="M374.75 362.75l225.84 -362.75h-103.53l-183.41 293.23l-181.76 -293.23h-104.66l226.86 362.78l-209.49 337.22h101.76l167.16 -279.28l167.15 279.28h103.59z" />
    <glyph glyph-name="uni0427" unicode="&#x427;" horiz-adv-x="615" 
d="M148.25 700.42l0.000976562 -252.891c0 -69.6201 37.8496 -98.9199 104.52 -98.9199c44.8799 0 170.97 21.3701 193.319 25.4805v325.91h87.8203v-700h-87.8203v295.37c-47.9004 -7.15039 -162.67 -27.8906 -219.28 -27.8906c-98.9297 0 -167.35 56.5 -167.35 159.2
v273.74h88.79z" />
    <glyph glyph-name="uni0426" unicode="&#x426;" horiz-adv-x="690" 
d="M569.94 76.96h83.7207v-227.96h-82.4004v150h-490.03v700.65h88.3398v-621.16h312.05v621.16h88.3203v-622.69z" />
    <glyph glyph-name="uni0428" unicode="&#x428;" horiz-adv-x="948" 
d="M867.07 0h-785.311v699.79h88.3398v-621.16h260.16v621.16h88.3398v-621.16h260.15v621.16h88.3203v-699.79z" />
    <glyph glyph-name="uni0429" unicode="&#x429;" horiz-adv-x="988" 
d="M867.07 77.0996l83.71 -0.00976562v-228.1h-82.4004v151h-786.62v699.8h88.3398v-621.16h260.16v621.16h88.3398v-621.16h260.15v621.16h88.3203v-622.69z" />
    <glyph glyph-name="uni042F" unicode="&#x42f;" horiz-adv-x="603" 
d="M521.34 0h-88.2578v293.73h-110.15l-179.42 -293.73h-103.07l192.06 305.7l-28.6904 1.78027c-96.4102 16.6504 -149.521 84.3301 -149.521 194.47c0 104.6 73.3398 198.05 207.79 198.05h259.26v-700zM433.082 621.21l-169.789 0.000976562
c-80.6396 0.0498047 -124.12 -54.1104 -124.12 -119.86c0 -84.3301 44.2695 -128.61 125.699 -128.61h168.21v248.47z" />
    <glyph glyph-name="uni042C" unicode="&#x42c;" horiz-adv-x="595" 
d="M170.01 396.39h199.311c116.9 0 183.5 -65.9404 183.5 -198.2s-66.5996 -198.189 -183.5 -198.189h-287.65v700.01h88.3398v-303.62zM169.92 317.83v-239.27h180.2c74.2402 0 114.601 41.0801 114.601 119.63c0 78.5596 -40.3604 119.64 -114.601 119.64h-180.2z" />
    <glyph glyph-name="uni042A" unicode="&#x42a;" horiz-adv-x="665" 
d="M239.69 396.39h199.31c116.9 0 183.5 -65.9404 183.5 -198.2s-66.5996 -198.189 -183.5 -198.189h-287.65v622.71h-147.1v77.2998h235.44v-303.62zM239.6 317.83v-239.27h180.2c74.2402 0 114.601 41.0801 114.601 119.63c0 78.5596 -40.3604 119.64 -114.601 119.64
h-180.2z" />
    <glyph glyph-name="uni042B" unicode="&#x42b;" horiz-adv-x="826" 
d="M169.93 396.39l199.32 -0.0107422c116.89 0 183.5 -65.9297 183.5 -198.189c0 -132.27 -66.6104 -198.199 -183.5 -198.199h-287.66v700.02h88.3398v-303.62zM744.86 -0.0107422h-87.8398v700.01h87.8398v-700.01zM169.851 317.829v-239.27h180.2
c74.2305 0 114.591 41.0801 114.591 119.63c0 78.5596 -40.3604 119.64 -114.591 119.64h-180.2z" />
    <glyph glyph-name="uni042D" unicode="&#x42d;" horiz-adv-x="563" 
d="M107.3 563.55l-65.0703 31.0596c33.8301 74.2998 105.95 120.64 210.25 120.64c142.35 0 244.449 -80.0498 244.449 -238.71v-249.11c0 -158.65 -102.1 -238.431 -244.449 -238.431c-104.3 0 -176.42 46.0703 -210.25 120.37l65.0703 31.0596
c25.3896 -47.2002 76.2393 -72.9199 138.609 -72.9199c94.1797 0 162.76 52.2305 162.76 159.921v89.1201h-244.24v70.8799h244.24v89.1104c0 107.69 -68.5801 159.921 -162.76 159.921c-62.3701 0 -113.22 -25.7197 -138.609 -72.9102z" />
    <glyph glyph-name="uni042E" unicode="&#x42e;" horiz-adv-x="868" 
d="M313.46 389.23l0.00976562 85.3887c0 158.66 100.7 238.71 246.17 238.71c156.06 0 242.529 -95.5801 242.529 -239.62v-259.98c0 -169.52 -131.17 -227.729 -243.439 -227.729c-111.17 0 -245.27 58 -245.27 227.73v96.7002h-144.11v-310.43h-87.7598v700h87.7598
v-310.77h144.11zM713.92 213.729l-0.0078125 259.979c0 102.75 -52.7305 160.82 -154.271 160.82c-98.4805 0 -157.921 -49.0098 -157.921 -159.91v-260.89c0 -111.38 78.8301 -148.05 157.01 -148.05c78.8896 0 155.189 36.4404 155.189 148.051z" />
    <glyph glyph-name="uni0430" unicode="&#x430;" horiz-adv-x="497" 
d="M111.93 409.76l-43.3125 43.1504c33.6797 31.0596 84.5 56.3896 160.98 56.3896c180.65 0 211.301 -101.89 211.301 -209.359v-301.95h-66.5303l-1.9502 26.2803c-38.6797 -22.8799 -88.1992 -34.2803 -136.239 -34.2803c-103.95 2 -196.07 45.3896 -196.07 173.26
c0 133.97 103.76 166.77 208.2 166.77c33.4102 0 71.4805 -3.92969 107.711 -8.92969c-1.16992 62.1797 -20.96 118.569 -134.63 118.569c-43.4805 0 -80.1602 -11.1396 -109.46 -29.8994zM356.018 82.5605l-0.0107422 179.151
c-31.4502 4.09961 -64.2705 7.51953 -95.04 7.51953c-77.2695 0 -142.229 -21.1904 -142.229 -105.98c0 -80.6904 58.8096 -105.99 131.29 -105.99c37.6104 0 76.5801 9.58008 105.99 25.2998z" />
    <glyph glyph-name="uni0431" unicode="&#x431;" horiz-adv-x="546" 
d="M412.83 699.99l0.00195312 -71.0195c-86.6104 -4.87988 -175.591 -8.70996 -228.171 -46.5996c-42.7197 -29.0898 -65.6699 -65.0498 -69.6699 -154.109c28.0596 45.8604 76.2695 71.0703 144.63 71.0703c118.96 0 185.51 -82.0303 185.51 -200.74v-110.98
c0 -97.9805 -52.1396 -198.61 -198.27 -198.61c-145.32 0 -201.011 99.6299 -201.001 198.61v125.85c0.169922 184.84 6.08008 262.43 82.9902 323.439c63.1299 53.2197 190.21 57.8799 283.979 63.0898zM360.252 187.61l0.000976562 110.971
c0 82.0303 -39.9004 131 -113.391 131c-77.9697 0 -116.13 -43.8604 -116.13 -131v-110.98c0 -68.5596 33.5195 -129.17 116.13 -129.17c82.1201 0 113.39 60.3799 113.39 129.18z" />
    <glyph glyph-name="uni0432" unicode="&#x432;" horiz-adv-x="501" 
d="M64.46 500.29h218.251c70.5303 0 153.46 -35.0303 153.46 -129.16c0 -90.2998 -70.9004 -113.939 -70.9004 -113.939s81.5498 -23.6201 81.5498 -119.561c0 -103.39 -84.0303 -137.63 -150.38 -137.63h-231.98v500.29zM149.181 284.38h121.54
c51.1201 0 83.79 25.0996 83.79 75.1494c0 48.1699 -32.5596 74.2002 -83.6299 74.2002h-121.7v-149.35zM149.181 66.96h129.34c30.5898 0 86.04 13.2197 86.04 80.6299c0 65.3096 -55.4502 80.3398 -85.8701 80.3398h-129.51v-160.97z" />
    <glyph glyph-name="uni0433" unicode="&#x433;" horiz-adv-x="415" 
d="M383.53 433.82h-234.19v-433.82h-84.8799v500.91h319.07v-67.0898z" />
    <glyph glyph-name="uni0434" unicode="&#x434;" horiz-adv-x="597" 
d="M497.37 67.7598h71.1104v-185.76h-78.0801v118.44h-383.7v-118.44h-78.0801v186.69c37.9902 0 58.71 2.08984 78.4902 18.2998c17.3096 14.0195 26.5195 35.8594 26.5195 66.3193v347.59h363.74v-433.14zM218.511 433.81v-276.479
c0 -42.6104 -12.6201 -70.4307 -29.2598 -89.5703h223.25v366.05h-193.99z" />
    <glyph glyph-name="uni0435" unicode="&#x435;" horiz-adv-x="473" 
d="M45.8496 161.16l-0.000976562 162.34c0 117.19 74.4004 186.381 199.591 186.381c125.92 0 187.12 -73.0703 187.12 -184.66v-104.61h-304.11v-69.04c0 -66.2305 48.4199 -97.3105 110.03 -97.3105c40.46 0 86.5303 14.1201 125.04 39.71l46.3203 -40
c-41.25 -38.5 -98.6602 -63.9697 -178.49 -63.9697c-124.64 0 -185.5 72.1797 -185.5 171.16zM352.778 276.64l0.0107422 51.29c0 86.0498 -53.6904 114.34 -108.801 114.34c-60.0996 0 -113.26 -30.1299 -113.26 -116.06v-49.5703h222.05z" />
    <glyph glyph-name="uni0436" unicode="&#x436;" horiz-adv-x="795" 
d="M438.22 262.9l220.54 238.01h96.29l-229.36 -237.83l246.75 -262.45h-98.3398l-235.88 258.23v-258.46h-81.1299v258.46l-235.89 -258.23h-98.3301l246.75 262.45l-229.36 237.83h96.2803l220.55 -238.01v239.27h81.1299v-239.27z" />
    <glyph glyph-name="uni0437" unicode="&#x437;" horiz-adv-x="459" 
d="M113.35 404.58l-66.0605 29.4795c33.7598 46.8896 82.7197 77.04 166.979 77.04c101.87 0 191.51 -39.1299 191.51 -133.439c0 -75.46 -61.0703 -106.97 -77.2402 -116.189c18.7305 -8.82031 87.8408 -39.3301 87.8408 -122.86
c0 -101.36 -113.9 -147.61 -212.341 -147.61c-79.6797 0 -132.56 23.7197 -163.189 67.7998l64.3203 30.0801c24.0098 -18.1504 61.7402 -28.1807 94.3398 -28.2305c48.1699 0 131.99 17.9902 131.99 84.0498c0 64.4199 -55.79 83.75 -104.09 83.75h-69.5596v56.6104
h69.4502c56.5898 0 93.6094 29.8203 93.6094 79.5703c0 49.7598 -42.2695 76.75 -111.75 76.75c-36.5801 0 -69.5 -12.3398 -95.8096 -36.7998z" />
    <glyph glyph-name="uni0438" unicode="&#x438;" horiz-adv-x="516" 
d="M452.57 0h-80.5596v349.25l-222.38 -349.25h-85.1602v500.91h80.5596v-348.09l222.71 348.09h84.8301v-500.91z" />
    <glyph glyph-name="uni0439" unicode="&#x439;" horiz-adv-x="516" 
d="M359.07 707.85h42.2793c0 -77.46 -60.9697 -133.32 -138.96 -133.32c-77.9805 0 -138.961 55.8604 -138.961 133.32h42.2803c2.98047 -48.9102 44.3809 -85.2402 96.6807 -85.2402c51.7197 0 93.7002 36.3301 96.6807 85.2402zM452.58 -0h-80.5703v349.25
l-222.38 -349.25h-85.1602v500.91h80.5703v-348.09l222.71 348.09h84.8301v-500.91z" />
    <glyph glyph-name="uni043A" unicode="&#x43a;" horiz-adv-x="503" 
d="M145.59 262.5l220.55 238.01h96.2803l-229.36 -237.82l246.75 -262.46h-98.3301l-235.89 258.23v-258.46h-81.1299v501.77h81.1299v-239.27z" />
    <glyph glyph-name="uni043B" unicode="&#x43b;" horiz-adv-x="559" 
d="M495.24 0h-84.8691v433.82h-193.99v-283.05c0 -61.7402 -21.8701 -103.29 -57.4902 -129.25c-28.6904 -20.1104 -69.7402 -32.5205 -118.78 -32.5205v73.1299c21.6299 0 45.5898 3.45996 63.71 17.6396c18.0195 13.9502 27.6699 35.9307 27.6699 66.9805v354.16h363.75
v-500.91z" />
    <glyph glyph-name="uni043C" unicode="&#x43c;" horiz-adv-x="623" 
d="M559.9 0h-80.5596v341.24l-132.67 -341.24h-68.9697l-132.67 341.24v-341.24h-80.5703v502.64h85.2695l162.45 -416.42l162.45 416.42h85.2695v-502.64z" />
    <glyph glyph-name="uni043D" unicode="&#x43d;" horiz-adv-x="516" 
d="M452.57 0h-84.8799v217.77h-218.35v-217.77h-84.8799v502.64h84.8799v-217.78h218.35v217.78h84.8799v-502.64z" />
    <glyph glyph-name="uni043E" unicode="&#x43e;" horiz-adv-x="491" 
d="M45.8496 189.88l0.000976562 120.419c0 126.45 69.7305 200.74 201.83 200.74c128.85 0 197.449 -79.96 197.449 -200.75v-120.41c0 -98 -52.0898 -198.88 -198.27 -198.88c-145.32 0 -201.011 99.9004 -201.011 198.881zM360.251 189.889l0.000976562 120.41
c0 82.0303 -39.9004 130.99 -113.391 130.99c-77.9004 0 -116.131 -43.9102 -116.131 -130.99v-120.41c0 -68.5703 33.5195 -129.17 116.13 -129.17c82.0703 0 113.391 60.3896 113.391 129.17z" />
    <glyph glyph-name="uni043F" unicode="&#x43f;" horiz-adv-x="516" 
d="M452.57 0h-84.8701v433.82h-218.35v-433.82h-84.8799v500.91h388.1v-500.91z" />
    <glyph glyph-name="uni0440" unicode="&#x440;" horiz-adv-x="509" 
d="M133.13 500.42l1.96094 -25.998c38.6699 22.8799 88.1895 34.1494 136.229 34.1494c96.5596 0 192.189 -45.2803 192.189 -171.49v-171.49c0 -131.65 -92.4004 -173.591 -184.62 -174.591c-44.5898 0 -92.1396 11.4404 -127.42 26.3203v-218.32h-84.8799v701.42h66.54z
M378.631 171.062l-0.0107422 166.92c-0.419922 70.0996 -48.2295 103.439 -119.529 103.439c-38.4805 0 -76.9404 -8.63965 -107.62 -23.5498v-338.06c27.6299 -11.8701 70.4102 -21.7998 112.18 -21.7998c69.4902 0 114.98 29.5801 114.98 113.05z" />
    <glyph glyph-name="uni0441" unicode="&#x441;" horiz-adv-x="446" 
d="M45.8496 195.04v110.651c0 131.83 77.8896 204.19 199.859 204.19c73.9404 0 124.511 -30.1504 158.28 -77.04l-66.0596 -29.5098c-26.3096 24.46 -57.9199 36.7998 -92.2295 36.7998c-68.1299 0 -114.979 -41.6104 -114.979 -134.44v-110.66
c0 -92.8203 46.8496 -134.44 114.979 -134.44c34.3096 0 65.9199 12.3398 92.2295 36.7998l66.0596 -29.5c-33.7695 -46.9004 -84.3398 -76.8906 -158.28 -76.8906c-121.97 0 -199.859 72.21 -199.859 204.04z" />
    <glyph glyph-name="uni0442" unicode="&#x442;" horiz-adv-x="461" 
d="M422.64 433.39h-149.57v-433.39h-84.8799v433.39h-149.58v67.5195h384.03v-67.5195z" />
    <glyph glyph-name="uni0443" unicode="&#x443;" horiz-adv-x="515" 
d="M453.5 501l0.000976562 -526.011c0 -114 -73.8799 -170 -172.33 -170c-64.7998 1 -126.29 19 -179.78 53l33.1602 50c44.3701 -26 90.5801 -40 129.65 -40c59.54 0 103.021 32 104.41 99v58.6201c-34.1201 -16.1699 -82.8301 -25.6201 -128.561 -25.6201
c-96.1602 0.429688 -183.46 44.1094 -183.46 172.02v328.99h84.8799v-324.77c0 -83.46 45.4902 -113.05 114.98 -113.05c41.7695 0 84.5391 9.94043 112.169 21.8105v416.01h84.8799z" />
    <glyph glyph-name="uni0444" unicode="&#x444;" horiz-adv-x="668" 
d="M376.45 505.59l16.1309 -0.0400391c140.39 -0.200195 229.6 -62.79 229.6 -251.71c0 -185.45 -65.5195 -259.84 -228.27 -259.84h-17.46v-195h-84.8799v195h-18.5596c-169.19 0 -227.171 84.2402 -227.171 259.8c0 188.97 87.7197 251.75 228.3 251.75l17.4297 0.0400391
v195.56h84.8799v-195.56zM291.581 435.72l-16.6992 -0.0507812c-79.9502 -0.5 -144.15 -30.3604 -144.15 -181.87c0 -141.68 42.6299 -190.189 143.59 -190.189l17.2598 -0.0400391v372.15zM376.462 63.5693l15.5 0.0400391c96.5 1 145.35 41.0996 145.35 190.109
c0 151.36 -65.3096 181.271 -144.819 181.95l-16.0303 0.0400391v-372.14z" />
    <glyph glyph-name="uni0445" unicode="&#x445;" horiz-adv-x="435" 
d="M273.66 249.99l143.58 -249.95h-90.5898l-106.75 189.7l-111.29 -189.7h-92.1201l151.79 251.04l-145.36 249.87h92.8896l105.08 -194.1l103.41 194.1h91.6904z" />
    <glyph glyph-name="uni0447" unicode="&#x447;" horiz-adv-x="500" 
d="M132.85 502.64l0.00195312 -164.011c0 -55.4902 28.5801 -80.96 83.3896 -80.96c41.1104 0 107.17 12.6904 134.939 18.1406v226.83h84.8799v-502.64h-84.8799v201.31c-30.8203 -6.16016 -104.62 -20 -162.601 -20c-79.4902 0 -140.61 46.5498 -140.61 136.47v184.86
h84.8799z" />
    <glyph glyph-name="uni0446" unicode="&#x446;" horiz-adv-x="552" 
d="M452.6 68.0596l71.1006 -0.000976562v-186.06h-78.0801v118.74h-381.15v500.34h84.9004v-433.25h218.35v433.25h84.8799v-433.02z" />
    <glyph glyph-name="uni0448" unicode="&#x448;" horiz-adv-x="754" 
d="M689.87 0h-625.41v500.91h84.8799v-434.08h185.4v434.08h84.8799v-434.08h185.37v434.08h84.8799v-500.91z" />
    <glyph glyph-name="uni0449" unicode="&#x449;" horiz-adv-x="789" 
d="M689.87 67.3203h71.0996v-185.32h-78.0801v118h-618.42v500.91h84.8799v-434.08h185.37v434.08h84.9004v-433.82h185.37v433.82h84.8799v-433.59z" />
    <glyph glyph-name="uni044C" unicode="&#x44c;" horiz-adv-x="487" 
d="M149.22 304.7l135.58 0.000976562c71.1699 0 162.02 -43.4004 162.02 -152.351s-91.2695 -152.351 -157.97 -152.351h-224.39v500.28h84.7598v-195.58zM149.21 237.031v-170.069h122.44c33.7402 0 92.8604 16.1904 92.8604 85.04s-59.1201 85.0293 -92.8604 85.0293
h-122.44z" />
    <glyph glyph-name="uni044A" unicode="&#x44a;" horiz-adv-x="546" 
d="M208.38 304.7l135.591 0.000976562c71.1699 0 162.02 -43.4004 162.02 -152.351s-91.2803 -152.351 -157.971 -152.351h-224.62v427.23h-117.02v73.0498h202v-195.58zM208.381 237.031v-170.069h122.44c33.7402 0 92.8604 16.1904 92.8604 85.04
s-59.1201 85.0293 -92.8604 85.0293h-122.44z" />
    <glyph glyph-name="uni044B" unicode="&#x44b;" horiz-adv-x="660" 
d="M149.22 304.7l135.58 0.000976562c71.1699 0 162.02 -43.4004 162.02 -152.351s-91.2695 -152.351 -157.97 -152.351h-224.39v500.28h84.7598v-195.58zM595.97 0.000976562h-84.7598v500.28h84.7598v-500.28zM149.21 237.031v-170.069h122.43
c33.75 0 92.8701 16.1904 92.8701 85.04s-59.1201 85.0293 -92.8701 85.0293h-122.43z" />
    <glyph glyph-name="uni044D" unicode="&#x44d;" horiz-adv-x="453" 
d="M112.19 413.05l-65.9375 29.4785c34.6699 44.7402 85.2295 73.1006 157.289 73.1006c121.97 0 199.859 -72.3604 199.859 -204.19v-117.55c0 -140.06 -80.6299 -196.89 -209.05 -196.89c-69.7598 0 -117.45 25.0801 -149.25 63.5l64.2197 30.0498
c24.6797 -15.5195 53.6201 -24.21 85.04 -24.21c76.5195 0 123.64 26.4805 124.17 123.711v38.6201h-163.3v54.8799h163.21v32.8896c-0.629883 89.1504 -48.04 129.44 -114.9 129.44c-33.1396 0 -64.3701 -11 -91.3506 -32.8301z" />
    <glyph glyph-name="uni044E" unicode="&#x44e;" horiz-adv-x="690" 
d="M245.43 284.33l0.000976562 35.4307c3.57031 121.08 73.29 191.11 201.47 191.11c128.85 0 197.449 -79.96 197.449 -200.74v-120.41c0 -98 -52.0996 -198.73 -198.279 -198.73c-139.82 0 -197.12 92.7402 -200.86 189.021v37.2197h-95.8701v-217.19h-84.8799v501.49
h84.8799v-217.2h96.0898zM559.471 189.721l0.000976562 120.41c0 82.0303 -39.9004 131 -113.391 131c-77.9004 0 -116.131 -43.9199 -116.131 -131v-120.41c0 -68.5596 33.5195 -129.17 116.13 -129.17c82.0703 0 113.391 60.3896 113.391 129.17z" />
    <glyph glyph-name="uni044F" unicode="&#x44f;" horiz-adv-x="513" 
d="M448.85 0l-84.75 -0.000976562v195.58h-105.85l-119.77 -195.58h-87.7998l132.27 210.7l-7.05957 2.58984c-40.96 13.4502 -109.4 45.6006 -109.4 134.641c0 108.95 91.2695 152.351 157.97 152.351h224.39v-500.28zM364.1 433.319l-122.44 -0.0117188
c-33.7402 0 -92.8604 -16.1797 -92.8604 -85.0293s59.1201 -85.0293 92.8604 -85.0293h122.44v170.07z" />
    <glyph glyph-name="Delta" unicode="&#x394;" horiz-adv-x="833" 
 />
    <glyph glyph-name="Omega" unicode="&#x3a9;" horiz-adv-x="833" 
 />
    <glyph glyph-name="mu" unicode="&#x3bc;" horiz-adv-x="833" 
 />
    <glyph glyph-name="pi" unicode="&#x3c0;" horiz-adv-x="127" 
 />
    <glyph glyph-name="zero" unicode="0" horiz-adv-x="573" 
d="M62.9805 196.25l-0.00976562 300.33c0 144.95 91.8604 218.22 225.19 218.22c142.8 0 221.649 -87.5498 221.649 -219.1v-299.45c0 -154.63 -119.01 -207.25 -222.54 -207.25c-101.63 0 -224.29 52.4297 -224.29 207.25zM424.94 198.8l-0.00878906 294.82
c0 90.5 -46.6904 142.39 -136.841 142.39c-87.4902 0 -140.25 -43.7002 -140.25 -141.54v-295.66c0 -98.2998 70.3799 -130.51 139.399 -130.51c69.6602 0 137.7 32.0303 137.7 130.5z" />
    <glyph glyph-name="one" unicode="1" horiz-adv-x="346" 
d="M264.93 0l-80.291 0.000976562v570.94c-15.0801 -17.2803 -33.4199 -29.9805 -53.3096 -39.7607c-26.6699 -12 -55.7695 -18.1504 -79.4297 -20.4102l-20.4102 80.54c32.5098 4.21973 64.2695 14.96 91.1494 31.25c31.6104 18.7197 56.6104 44.8193 71.0908 77.4395
h71.2002v-700z" />
    <glyph glyph-name="two" unicode="2" horiz-adv-x="485" 
d="M129.61 532.45l-82.7793 23.5713c30.96 93.7402 91.5801 154.66 207.94 154.66c112.52 0 191.46 -83.21 191.46 -190.75c0 -55.6797 -20.5801 -109.62 -58.8604 -155.57l-220.16 -286.46h279.02v-77.9004h-402.84v60.25l266.41 341.66
c37.2002 47 51.4902 85.7695 51.4902 120.88c0 63.2002 -45.2803 109.09 -106.521 109.09c-78.2305 0 -107.94 -42.5303 -125.16 -99.4307z" />
    <glyph glyph-name="three" unicode="3" horiz-adv-x="517" 
d="M132.64 561.93l-75.208 31.0176c21.54 52.6699 83.5703 117.74 178.931 117.74c107.64 0 194.659 -74.2695 194.659 -188.59c0 -75.2803 -47.4199 -125.75 -92.5303 -147.9c58.0195 -23.7197 117.34 -84.6797 117.34 -175.399
c0 -130.77 -95.9297 -210.81 -220.04 -210.81c-99.5498 0 -165.76 55.2402 -196.43 102.84l66.1396 43.1699c25.6699 -39.6699 74.4395 -66.7197 130.289 -66.7197c76.7695 0 134.369 57.0303 134.369 133.23c0 74.4697 -65.6699 135.239 -142.25 135.239h-51v71.04h51
c64.2998 0 119.109 48.1797 119.109 111.91c0 64.8701 -46.9297 113.521 -110.66 113.521c-56.5195 0 -91.0791 -39.2695 -103.719 -70.2891z" />
    <glyph glyph-name="four" unicode="4" horiz-adv-x="516" 
d="M414.25 252.65h58.1592v-75.2998h-58.1699v-177.36h-84.8701v177.36h-295.76v75.2998l290.94 447.56h89.7002v-447.56zM119.679 252.65h209.69v316.45z" />
    <glyph glyph-name="five" unicode="5" horiz-adv-x="524" 
d="M414.6 621.2l-225.6 -0.000976562l-20.1797 -182.06h78.04c116.75 -2.66992 224.27 -90.8203 224.27 -221.521c0 -131.86 -98.1699 -229.62 -234.189 -229.62c-94.8398 0 -166.32 56.3799 -196.42 105.13l66.1504 42.5996
c24.5195 -40.25 78.9297 -68.4297 130.27 -68.4297c90.2305 0 148.58 69.5898 149.271 146.91c-0.650391 75.5703 -56.6309 146.181 -148.121 146.181h-152.15l39.1104 339.86h289.55v-79.0498z" />
    <glyph glyph-name="six" unicode="6" horiz-adv-x="579" 
d="M67.2305 213.56v246.438c0 124.95 83.1699 250.36 255.39 250.36c88 0 151.97 -39.54 182.229 -65.5898l-51.4297 -59.1797c-25.9199 22.2598 -73.2803 45.9697 -132.92 45.9697c-127.66 0 -173 -93.4697 -173 -166.189v-110.07
c38.3203 62.71 101.69 82.8301 152.08 82.8301c126.5 0 224.41 -99.1904 224.41 -224.57s-101.03 -225.56 -228.67 -225.56s-228.09 100.19 -228.09 225.561zM295.32 359.258c-85.6797 0 -141.539 -63.2988 -143.229 -145.699c0 -81.2803 59.2197 -146.271 143.22 -146.271
c84.0098 0 143.8 64.3701 143.8 146.271c0 81.8896 -59.2402 145.699 -143.79 145.699z" />
    <glyph glyph-name="seven" unicode="7" horiz-adv-x="485" 
d="M447.66 641.61l-322.71 -641.61h-83.8701l311.87 620.62h-318.9v79.3799h413.61v-58.3896z" />
    <glyph glyph-name="eight" unicode="8" horiz-adv-x="563" 
d="M282.61 710.7c107.63 0 194.651 -74.2803 194.651 -188.601c0 -75.2803 -47.4199 -125.75 -92.5303 -147.9c58.0195 -23.7197 117.34 -84.6797 117.34 -175.399c0 -130.77 -95.9297 -210.81 -220.04 -210.81c-123.53 0 -221.19 80.04 -221.19 210.81
c0 91.2998 58.1699 152.83 118.49 175.98c-43.9502 22.7197 -91.9502 73.1895 -91.9502 147.319c0 114.32 87.0195 188.601 195.229 188.601zM282.612 632.22c-64.2998 0 -111.231 -48.6504 -111.231 -113.53c0 -63.1504 54.96 -108.931 110.65 -108.931
c57.9805 0 111.23 45.2002 111.23 108.931c0 64.8799 -46.9297 113.53 -110.649 113.53zM282.03 332.58c-74.4697 0 -135.529 -57.5996 -135.529 -132.08c0 -76.2002 59.3301 -133.22 135.53 -133.22c76.7695 0 134.369 57.0195 134.369 133.22
c0 74.4805 -63.9199 132.08 -134.37 132.08z" />
    <glyph glyph-name="nine" unicode="9" horiz-adv-x="579" 
d="M432.23 233.41v110.08c-38.3203 -62.7002 -101.69 -82.8301 -152.08 -82.8301c-126.5 0 -224.41 99.1904 -224.41 224.57s101.03 225.14 228.67 225.14s228.09 -99.7695 228.09 -225.14v-246.45c0 -124.94 -83.1699 -250.78 -255.39 -250.78
c-88 0 -151.97 39.9697 -182.229 66.0098l51.4297 59.1797c25.9199 -22.2598 73.2803 -45.9697 132.92 -45.9697c127.66 0 173 93.4805 173 166.19zM284.4 631.5c-84 0 -143.78 -64.3711 -143.78 -146.271c0 -81.8896 59.2402 -145.689 143.79 -145.689
c85.6797 0 141.52 63.29 143.21 145.69c0 81.2803 -59.21 146.271 -143.22 146.271z" />
    <glyph glyph-name="zero.lf" horiz-adv-x="573" 
d="M62.9805 196.25l-0.00976562 300.33c0 144.95 91.8604 218.22 225.19 218.22c142.8 0 221.649 -87.5498 221.649 -219.1v-299.45c0 -154.63 -119.01 -207.25 -222.54 -207.25c-101.63 0 -224.29 52.4297 -224.29 207.25zM424.94 198.8l-0.00878906 294.82
c0 90.5 -46.6904 142.39 -136.841 142.39c-87.4902 0 -140.25 -43.7002 -140.25 -141.54v-295.66c0 -98.2998 70.3799 -130.51 139.399 -130.51c69.6602 0 137.7 32.0303 137.7 130.5z" />
    <glyph glyph-name="one.lf" horiz-adv-x="346" 
d="M264.93 0l-80.2998 0.000976562v570.95c-15.2998 -17.5596 -34.0801 -30.3799 -54.4502 -40.1699c-26.4404 -11.6904 -55.0205 -17.7607 -78.29 -20.0107l-20.4102 80.5498c33.3896 4.26953 65.7998 15.4795 92.96 32.3799c30.6299 18.6104 54.96 44.2002 69.29 76.2998
h71.2002v-700z" />
    <glyph glyph-name="two.lf" horiz-adv-x="485" 
d="M129.61 532.45l-82.7793 23.5713c30.96 93.7402 91.5801 154.66 207.94 154.66c112.52 0 191.46 -83.21 191.46 -190.75c0 -55.6797 -20.5801 -109.62 -58.8604 -155.57l-220.16 -286.46h279.02v-77.9004h-402.84v60.25l266.41 341.66
c37.2002 47 51.4902 85.7695 51.4902 120.88c0 63.2002 -45.2803 109.09 -106.521 109.09c-78.2305 0 -107.94 -42.5303 -125.16 -99.4307z" />
    <glyph glyph-name="three.lf" horiz-adv-x="517" 
d="M132.64 561.93l-75.208 31.0176c21.54 52.6699 83.5703 117.74 178.931 117.74c107.64 0 194.659 -74.2695 194.659 -188.59c0 -75.2803 -47.4199 -125.75 -92.5303 -147.9c58.0195 -23.7197 117.34 -84.6797 117.34 -175.399
c0 -130.77 -95.9297 -210.81 -220.04 -210.81c-99.5498 0 -165.76 55.2402 -196.43 102.84l66.1396 43.1699c25.6699 -39.6699 74.4395 -66.7197 130.289 -66.7197c76.7695 0 134.369 57.0303 134.369 133.23c0 74.4697 -65.6699 135.239 -142.25 135.239h-51v71.04h51
c64.2998 0 119.109 48.1797 119.109 111.91c0 64.8701 -46.9297 113.521 -110.66 113.521c-56.5195 0 -91.0791 -39.2695 -103.719 -70.2891z" />
    <glyph glyph-name="four.lf" horiz-adv-x="516" 
d="M414.25 252.65h58.1592v-75.2998h-58.1699v-177.36h-84.8701v177.36h-295.76v75.2998l290.94 447.56h89.7002v-447.56zM119.679 252.65h209.69v316.45z" />
    <glyph glyph-name="five.lf" horiz-adv-x="524" 
d="M414.6 621.2l-225.6 -0.000976562l-20.1797 -182.06h78.04c116.75 -2.66992 224.27 -90.8203 224.27 -221.521c0 -131.86 -98.1699 -229.62 -234.189 -229.62c-94.8398 0 -166.32 56.3799 -196.42 105.13l66.1504 42.5996
c24.5195 -40.25 78.9297 -68.4297 130.27 -68.4297c90.2305 0 148.58 69.5898 149.271 146.91c-0.650391 75.5703 -56.6309 146.181 -148.121 146.181h-152.15l39.1104 339.86h289.55v-79.0498z" />
    <glyph glyph-name="six.lf" horiz-adv-x="600" 
d="M67.2305 213.56v246.438c0 124.95 83.1699 250.36 255.39 250.36c88 0 151.97 -39.54 182.229 -65.5898l-51.4297 -59.1797c-25.9199 22.2598 -73.2803 45.9697 -132.92 45.9697c-127.66 0 -173 -93.4697 -173 -166.189v-110.07
c38.3203 62.71 101.69 82.8301 152.08 82.8301c126.5 0 224.41 -99.1904 224.41 -224.57s-101.03 -225.56 -228.67 -225.56s-228.09 100.19 -228.09 225.561zM295.32 359.258c-85.6797 0 -141.539 -63.2988 -143.229 -145.699c0 -81.2803 59.2197 -146.271 143.22 -146.271
c84.0098 0 143.8 64.3701 143.8 146.271c0 81.8896 -59.2402 145.699 -143.79 145.699z" />
    <glyph glyph-name="seven.lf" horiz-adv-x="503" 
d="M447.66 641.61l-322.71 -641.61h-83.8701l311.87 620.62h-318.9v79.3799h413.61v-58.3896z" />
    <glyph glyph-name="eight.lf" horiz-adv-x="563" 
d="M282.61 710.7c107.63 0 194.651 -74.2803 194.651 -188.601c0 -75.2803 -47.4199 -125.75 -92.5303 -147.9c58.0195 -23.7197 117.34 -84.6797 117.34 -175.399c0 -130.77 -95.9297 -210.81 -220.04 -210.81c-123.53 0 -221.19 80.04 -221.19 210.81
c0 91.2998 58.1699 152.83 118.49 175.98c-43.9502 22.7197 -91.9502 73.1895 -91.9502 147.319c0 114.32 87.0195 188.601 195.229 188.601zM282.612 632.22c-64.2998 0 -111.231 -48.6504 -111.231 -113.53c0 -63.1504 54.96 -108.931 110.65 -108.931
c57.9805 0 111.23 45.2002 111.23 108.931c0 64.8799 -46.9297 113.53 -110.649 113.53zM282.03 332.58c-74.4697 0 -135.529 -57.5996 -135.529 -132.08c0 -76.2002 59.3301 -133.22 135.53 -133.22c76.7695 0 134.369 57.0195 134.369 133.22
c0 74.4805 -63.9199 132.08 -134.37 132.08z" />
    <glyph glyph-name="nine.lf" horiz-adv-x="579" 
d="M432.23 233.41v110.08c-38.3203 -62.7002 -101.69 -82.8301 -152.08 -82.8301c-126.5 0 -224.41 99.1904 -224.41 224.57s101.03 225.14 228.67 225.14s228.09 -99.7695 228.09 -225.14v-246.45c0 -124.94 -83.1699 -250.78 -255.39 -250.78
c-88 0 -151.97 39.9697 -182.229 66.0098l51.4297 59.1797c25.9199 -22.2598 73.2803 -45.9697 132.92 -45.9697c127.66 0 173 93.4805 173 166.19zM284.4 631.5c-84 0 -143.78 -64.3711 -143.78 -146.271c0 -81.8896 59.2402 -145.689 143.79 -145.689
c85.6797 0 141.52 63.29 143.21 145.69c0 81.2803 -59.21 146.271 -143.22 146.271z" />
    <glyph glyph-name="zero.osf" horiz-adv-x="573" 
d="M62.9805 196.25l-0.000976562 94.8301c0 144.96 91.8604 218.229 225.19 218.229c142.8 0 221.649 -87.5596 221.649 -219.109v-93.9502c0 -154.63 -119.02 -207.25 -222.539 -207.25c-101.64 0 -224.3 52.4199 -224.3 207.25zM424.949 198.811l0.000976562 89.3008
c0 90.5098 -46.7002 142.399 -136.851 142.399c-87.4902 0 -140.25 -43.7002 -140.25 -141.54v-90.1602c0 -98.2998 70.3799 -130.51 139.399 -130.51c69.6602 0 137.7 32.04 137.7 130.51z" />
    <glyph glyph-name="one.osf" horiz-adv-x="457" 
d="M285.47 74.96h109.449v-74.96h-306.16v74.96h119.19v305.96c-15.1699 -15.7695 -33.1299 -27.4199 -52.3203 -36.46c-23.2695 -10.1602 -47.5693 -16.0498 -67.5391 -18.3896l-17.8799 70.4004c28.3398 4.63965 56.5098 14.3799 80.8301 28.9697
c30.2998 17.7695 54.4199 42.6992 68.5596 74.1191h65.8701v-424.6z" />
    <glyph glyph-name="two.osf" horiz-adv-x="482" 
d="M129.14 343.46l-82.3193 22.5498c31.1699 85.2803 93.6201 142.92 204.93 142.92c103.26 0 191.46 -67.0098 191.46 -176.75c0 -57.8096 -38.1201 -114.76 -111.43 -161.77l-137.99 -94.8799h248.75v-75.5303h-402.17v59.6104l206.71 131.48
c61.4697 40.0098 111.189 94.0498 111.189 138.31c0 61.2998 -42.4297 103.8 -105.649 103.8c-75.8096 0 -109.5 -46.9004 -123.48 -89.7402z" />
    <glyph glyph-name="three.osf" horiz-adv-x="517" 
d="M132.64 360.51l-75.2188 30.5986c21.54 52.6699 83.5801 117.75 178.94 117.75c107.64 0 194.659 -74.2803 194.659 -188.601c0 -75.2695 -47.4297 -125.739 -92.5293 -147.89c58.0195 -23.7197 117.34 -84.6797 117.34 -174.38c0 -131 -95.9404 -211 -220.04 -211
c-99.5596 0 -165.77 55 -196.43 103l66.1396 43c25.6699 -40 74.4395 -67 130.289 -67c76.7695 0 134.369 57 134.369 133c0 74.5703 -65.6699 135.34 -142.25 135.34h-51v71.04h51c64.2998 0 119.109 48.1797 119.109 111.91c0 64.8701 -46.9297 113.521 -110.66 113.521
c-56.5195 0 -91.0791 -39.2695 -103.719 -70.2891z" />
    <glyph glyph-name="four.osf" horiz-adv-x="516" 
d="M414.25 53.1104h58.1592v-75.1104h-58.1699v-177h-84.8701v177h-295.76v75.1104l290.94 447.55h89.7002v-447.55zM119.679 53.1104h209.69v316.45z" />
    <glyph glyph-name="five.osf" horiz-adv-x="524" 
d="M414.6 422.59l-225.6 -0.00878906l-20.1797 -182.06h78.04c116.75 -2.66992 224.27 -90.8203 224.27 -221.521c0 -132 -98.1699 -229 -234.189 -229c-94.8398 0 -166.32 56 -196.42 104l66.1504 43c24.5195 -40 78.9297 -68 130.27 -68
c90.2305 0 148.58 69 149.271 146.3c-0.650391 75.5703 -56.6309 146.17 -148.121 146.17h-152.15l39.1104 340.1h289.55v-78.9805z" />
    <glyph glyph-name="six.osf" horiz-adv-x="600" 
d="M67.2305 213.56v246.438c0 124.95 83.1699 250.36 255.39 250.36c88 0 151.97 -39.54 182.229 -65.5898l-51.4297 -59.1797c-25.9199 22.2598 -73.2803 45.9697 -132.92 45.9697c-127.66 0 -173 -93.4697 -173 -166.189v-110.07
c38.3203 62.71 101.69 82.8301 152.08 82.8301c126.5 0 224.41 -99.1904 224.41 -224.57s-101.03 -225.56 -228.67 -225.56s-228.09 100.19 -228.09 225.561zM295.32 359.258c-85.6797 0 -141.539 -63.2988 -143.229 -145.699c0 -81.2803 59.2197 -146.271 143.22 -146.271
c84.0098 0 143.8 64.3701 143.8 146.271c0 81.8896 -59.2402 145.699 -143.79 145.699z" />
    <glyph glyph-name="seven.osf" horiz-adv-x="503" 
d="M447.66 442.61l-322.71 -641.61h-83.8701l311.87 620.62h-318.9v79.3799h413.61v-58.3896z" />
    <glyph glyph-name="eight.osf" horiz-adv-x="563" 
d="M282.61 710.7c107.63 0 194.651 -74.2803 194.651 -188.601c0 -75.2803 -47.4199 -125.75 -92.5303 -147.9c58.0195 -23.7197 117.34 -84.6797 117.34 -175.399c0 -130.77 -95.9297 -210.81 -220.04 -210.81c-123.53 0 -221.19 80.04 -221.19 210.81
c0 91.2998 58.1699 152.83 118.49 175.98c-43.9502 22.7197 -91.9502 73.1895 -91.9502 147.319c0 114.32 87.0195 188.601 195.229 188.601zM282.612 632.22c-64.2998 0 -111.231 -48.6504 -111.231 -113.53c0 -63.1504 54.96 -108.931 110.65 -108.931
c57.9805 0 111.23 45.2002 111.23 108.931c0 64.8799 -46.9297 113.53 -110.649 113.53zM282.03 332.58c-74.4697 0 -135.529 -57.5996 -135.529 -132.08c0 -76.2002 59.3301 -133.22 135.53 -133.22c76.7695 0 134.369 57.0195 134.369 133.22
c0 74.4805 -63.9199 132.08 -134.37 132.08z" />
    <glyph glyph-name="nine.osf" horiz-adv-x="580" 
d="M432.23 31.71v109.991c-38.3203 -62.7002 -101.69 -82.8203 -152.08 -82.8203c-126.5 0 -224.41 99.1797 -224.41 224.56s101.03 225.14 228.67 225.14c127.55 0 228.09 -99.75 228.09 -225.14v-246.44c0 -125 -83.1699 -250 -255.39 -250c-88 0 -151.97 39 -182.229 65
l51.4297 59c25.9199 -22 73.2803 -45 132.92 -45c127.66 0 173 93 173 165.71zM284.4 429.711c-84 0 -143.78 -64.3809 -143.78 -146.271c0 -81.9004 59.2402 -145.7 143.79 -145.7c85.6797 0 141.52 63.2998 143.21 145.7c0 81.29 -59.2998 146.271 -143.22 146.271z" />
    <glyph glyph-name="zero.tf" horiz-adv-x="573" 
d="M62.9805 196.25l-0.00976562 300.33c0 144.95 91.8604 218.22 225.19 218.22c142.8 0 221.649 -87.5498 221.649 -219.1v-299.45c0 -154.63 -119.01 -207.25 -222.54 -207.25c-101.63 0 -224.29 52.4297 -224.29 207.25zM424.94 198.8l-0.00878906 294.82
c0 90.5 -46.6904 142.39 -136.841 142.39c-87.4902 0 -140.25 -43.7002 -140.25 -141.54v-295.66c0 -98.2998 70.3799 -130.51 139.399 -130.51c69.6602 0 137.7 32.0303 137.7 130.5z" />
    <glyph glyph-name="one.tf" horiz-adv-x="551" 
d="M328.25 77.1396l118.45 -0.00195312v-77.1504h-326.29v77.1504h127.54v500.11c-15.5596 -17.8701 -34.8398 -30.7998 -55.75 -40.6094c-26.1504 -11.3496 -54.1602 -17.3398 -76.9902 -19.5596l-20.4102 80.54c31.8301 4.17969 63.0703 14.5498 89.7207 30.3701
c32.3896 18.79 57.9395 45.29 72.5391 78.3203h71.1904v-629.17z" />
    <glyph glyph-name="two.tf" horiz-adv-x="560" 
d="M129.61 532.45l-82.7793 23.5713c30.96 93.7402 91.5801 154.66 207.94 154.66c112.52 0 191.46 -83.21 191.46 -190.75c0 -55.6797 -20.5801 -109.62 -58.8604 -155.57l-220.16 -286.46h279.02v-77.9004h-402.84v60.25l266.41 341.66
c37.2002 47 51.4902 85.7695 51.4902 120.88c0 63.2002 -45.2803 109.09 -106.521 109.09c-78.2305 0 -107.94 -42.5303 -125.16 -99.4307z" />
    <glyph glyph-name="three.tf" horiz-adv-x="556" 
d="M132.64 561.93l-75.208 31.0176c21.54 52.6699 83.5703 117.74 178.931 117.74c107.64 0 194.659 -74.2695 194.659 -188.59c0 -75.2803 -47.4199 -125.75 -92.5303 -147.9c58.0195 -23.7197 117.34 -84.6797 117.34 -175.399
c0 -130.77 -95.9297 -210.81 -220.04 -210.81c-99.5498 0 -165.76 55.2402 -196.43 102.84l66.1396 43.1699c25.6699 -39.6699 74.4395 -66.7197 130.289 -66.7197c76.7695 0 134.369 57.0303 134.369 133.23c0 74.4697 -65.6699 135.239 -142.25 135.239h-51v71.04h51
c64.2998 0 119.109 48.1797 119.109 111.91c0 64.8701 -46.9297 113.521 -110.66 113.521c-56.5195 0 -91.0791 -39.2695 -103.719 -70.2891z" />
    <glyph glyph-name="four.tf" horiz-adv-x="564" 
d="M414.25 252.65h58.1592v-75.2998h-58.1699v-177.36h-84.8701v177.36h-295.76v75.2998l290.94 447.56h89.7002v-447.56zM119.679 252.65h209.69v316.45z" />
    <glyph glyph-name="five.tf" horiz-adv-x="564" 
d="M414.6 621.2l-225.6 -0.000976562l-20.1797 -182.06h78.04c116.75 -2.66992 224.27 -90.8203 224.27 -221.521c0 -131.86 -98.1699 -229.62 -234.189 -229.62c-94.8398 0 -166.32 56.3799 -196.42 105.13l66.1504 42.5996
c24.5195 -40.25 78.9297 -68.4297 130.27 -68.4297c90.2305 0 148.58 69.5898 149.271 146.91c-0.650391 75.5703 -56.6309 146.181 -148.121 146.181h-152.15l39.1104 339.86h289.55v-79.0498z" />
    <glyph glyph-name="six.tf" horiz-adv-x="588" 
d="M67.2305 213.56v246.438c0 124.95 83.1699 250.36 255.39 250.36c88 0 151.97 -39.54 182.229 -65.5898l-51.4297 -59.1797c-25.9199 22.2598 -73.2803 45.9697 -132.92 45.9697c-127.66 0 -173 -93.4697 -173 -166.189v-110.07
c38.3203 62.71 101.69 82.8301 152.08 82.8301c126.5 0 224.41 -99.1904 224.41 -224.57s-101.03 -225.56 -228.67 -225.56s-228.09 100.19 -228.09 225.561zM295.32 359.258c-85.6797 0 -141.539 -63.2988 -143.229 -145.699c0 -81.2803 59.2197 -146.271 143.22 -146.271
c84.0098 0 143.8 64.3701 143.8 146.271c0 81.8896 -59.2402 145.699 -143.79 145.699z" />
    <glyph glyph-name="seven.tf" horiz-adv-x="546" 
d="M447.66 641.61l-322.71 -641.61h-83.8701l311.87 620.62h-318.9v79.3799h413.61v-58.3896z" />
    <glyph glyph-name="eight.tf" horiz-adv-x="566" 
d="M282.61 710.7c107.63 0 194.651 -74.2803 194.651 -188.601c0 -75.2803 -47.4199 -125.75 -92.5303 -147.9c58.0195 -23.7197 117.34 -84.6797 117.34 -175.399c0 -130.77 -95.9297 -210.81 -220.04 -210.81c-123.53 0 -221.19 80.04 -221.19 210.81
c0 91.2998 58.1699 152.83 118.49 175.98c-43.9502 22.7197 -91.9502 73.1895 -91.9502 147.319c0 114.32 87.0195 188.601 195.229 188.601zM282.612 632.22c-64.2998 0 -111.231 -48.6504 -111.231 -113.53c0 -63.1504 54.96 -108.931 110.65 -108.931
c57.9805 0 111.23 45.2002 111.23 108.931c0 64.8799 -46.9297 113.53 -110.649 113.53zM282.03 332.58c-74.4697 0 -135.529 -57.5996 -135.529 -132.08c0 -76.2002 59.3301 -133.22 135.53 -133.22c76.7695 0 134.369 57.0195 134.369 133.22
c0 74.4805 -63.9199 132.08 -134.37 132.08z" />
    <glyph glyph-name="nine.tf" horiz-adv-x="588" 
d="M432.23 233.41v110.08c-38.3203 -62.7002 -101.69 -82.8301 -152.08 -82.8301c-126.5 0 -224.41 99.1904 -224.41 224.57s101.03 225.14 228.67 225.14s228.09 -99.7695 228.09 -225.14v-246.45c0 -124.94 -83.1699 -250.78 -255.39 -250.78
c-88 0 -151.97 39.9697 -182.229 66.0098l51.4297 59.1797c25.9199 -22.2598 73.2803 -45.9697 132.92 -45.9697c127.66 0 173 93.4805 173 166.19zM284.4 631.5c-84 0 -143.78 -64.3711 -143.78 -146.271c0 -81.8896 59.2402 -145.689 143.79 -145.689
c85.6797 0 141.52 63.29 143.21 145.69c0 81.2803 -59.21 146.271 -143.22 146.271z" />
    <glyph glyph-name="zero.tosf" horiz-adv-x="573" 
d="M63.0703 196.25l-0.000976562 94.8301c0 144.96 91.8604 218.229 225.19 218.229c142.8 0 221.649 -87.5596 221.649 -219.109v-93.9502c0 -154.63 -119.02 -207.25 -222.539 -207.25c-101.64 0 -224.3 52.4199 -224.3 207.25zM425.039 198.811l0.000976562 89.3008
c0 90.5098 -46.7002 142.399 -136.851 142.399c-87.4902 0 -140.25 -43.7002 -140.25 -141.54v-90.1602c0 -98.2998 70.3799 -130.51 139.399 -130.51c69.6602 0 137.7 32.04 137.7 130.51z" />
    <glyph glyph-name="one.tosf" horiz-adv-x="529" 
d="M317.42 74.96l109.449 -0.0107422v-74.96h-306.16v74.96h119.19v305.96c-15.0996 -15.7002 -32.9395 -27.3301 -52.0098 -36.3604c-23.3496 -10.2197 -47.7695 -16.1396 -67.8594 -18.4795l-17.8701 70.4004c27.8896 4.58984 55.71 14.0996 79.8496 28.3896
c30.8398 17.8096 55.3203 43 69.54 74.7002h65.8701v-424.6z" />
    <glyph glyph-name="two.tosf" horiz-adv-x="589" 
d="M166.4 343.46l-82.3193 22.54c31.1699 85.2803 93.6201 142.92 204.92 142.92c103.27 0 191.46 -67.0098 191.46 -176.75c0 -57.7998 -38.1201 -114.76 -111.43 -161.77l-137.99 -94.8799h248.75v-75.5303h-402.17v59.6104l206.71 131.48
c61.4697 40.0098 111.2 94.0596 111.2 138.319c0 61.2998 -42.4404 103.8 -105.66 103.8c-75.7998 0 -109.49 -46.9004 -123.471 -89.7402z" />
    <glyph glyph-name="three.tosf" horiz-adv-x="556" 
d="M158.99 360.3l-75.2188 30.8906c21.54 52.6699 83.5703 117.75 178.931 117.75c107.64 0 194.659 -74.2803 194.659 -188.601c0 -75.2695 -47.4199 -125.739 -92.5303 -147.89c58.0195 -23.7305 117.34 -84.6807 117.34 -174.45c0 -131 -95.9297 -211 -220.04 -211
c-99.5498 0 -165.76 55 -196.43 103l66.1504 43c25.6699 -40 74.4395 -67 130.279 -67c76.7803 0 134.38 57 134.38 133c0 74.3701 -65.6797 135.13 -142.25 135.13h-51v71.04h51c64.2998 0 119.1 48.1797 119.1 111.899c0 64.8799 -46.9199 113.53 -110.65 113.53
c-56.5303 0 -91.0801 -39.2803 -103.72 -70.2998z" />
    <glyph glyph-name="four.tosf" horiz-adv-x="564" 
d="M441.25 53.1104h58.1689v-75.1104h-58.1699v-177h-84.8701v177h-295.77v75.1104l290.94 447.55h89.7002v-447.55zM146.688 53.1104h209.69v316.45z" />
    <glyph glyph-name="five.tosf" horiz-adv-x="564" 
d="M438.15 422.59l-225.601 -0.00878906l-20.1797 -182.06h78.04c116.75 -2.66992 224.26 -90.8203 224.26 -221.521c0 -132 -98.1699 -229 -234.18 -229c-94.8398 0 -166.32 56 -196.42 104l66.1504 43c24.5195 -40 78.9297 -68 130.27 -68
c90.2305 0 148.58 69 149.271 146.3c-0.650391 75.5703 -56.6309 146.17 -148.131 146.17h-152.14l39.1104 340.1h289.55v-78.9805z" />
    <glyph glyph-name="six.tosf" horiz-adv-x="589" 
d="M72.9805 213.56l-0.00292969 246.438c0 124.95 83.1602 250.36 255.391 250.36c87.9902 0 151.971 -39.54 182.23 -65.5898l-51.4404 -59.1797c-25.9199 22.2598 -73.2803 45.9697 -132.92 45.9697c-127.65 0 -172.99 -93.4697 -172.99 -166.189v-110.07
c38.3203 62.71 101.681 82.8301 152.081 82.8301c126.49 0 224.4 -99.1904 224.4 -224.57s-101.02 -225.56 -228.659 -225.56s-228.09 100.19 -228.09 225.561zM301.058 359.258c-85.6797 0 -141.529 -63.2988 -143.22 -145.699c0 -81.2803 59.21 -146.271 143.22 -146.271
c84 0 143.79 64.3701 143.79 146.271c0 81.8896 -59.2402 145.699 -143.79 145.699z" />
    <glyph glyph-name="seven.tosf" horiz-adv-x="546" 
d="M487.87 442.61l-322.71 -641.61h-83.8701l311.87 620.62h-318.9v79.3799h413.61v-58.3896z" />
    <glyph glyph-name="eight.tosf" horiz-adv-x="566" 
d="M281.47 710.7c107.64 0 194.65 -74.2803 194.65 -188.601c0 -75.2803 -47.4297 -125.75 -92.5293 -147.9c58.0195 -23.7197 117.34 -84.6797 117.34 -175.399c0 -130.77 -95.9404 -210.81 -220.04 -210.81c-123.53 0 -221.19 80.04 -221.19 210.81
c0 91.2998 58.1699 152.83 118.49 175.98c-43.96 22.7197 -91.96 73.1895 -91.96 147.319c0 114.32 87.0195 188.601 195.239 188.601zM281.461 632.22c-64.2998 0 -111.231 -48.6504 -111.231 -113.53c0 -63.1504 54.96 -108.931 110.65 -108.931
c57.9805 0 111.23 45.2002 111.23 108.931c0 64.8799 -46.9297 113.53 -110.649 113.53zM280.879 332.58c-74.4697 0 -135.529 -57.5996 -135.529 -132.08c0 -76.2002 59.3301 -133.22 135.53 -133.22c76.7695 0 134.369 57.0195 134.369 133.22
c0 74.4805 -63.9199 132.08 -134.37 132.08z" />
    <glyph glyph-name="nine.tosf" horiz-adv-x="589" 
d="M441.99 31.71l0.00292969 109.991c-38.3203 -62.7002 -101.681 -82.8203 -152.081 -82.8203c-126.49 0 -224.4 99.1797 -224.4 224.56s101.02 225.14 228.659 225.14c127.55 0 228.09 -99.75 228.09 -225.14v-246.44c0 -125 -83.1602 -250 -255.391 -250
c-87.9902 0 -151.971 39 -182.23 65l51.4404 59c25.9199 -22 73.2803 -45 132.92 -45c127.65 0 172.99 93 172.99 165.71zM294.173 429.711c-84 0 -143.78 -64.3809 -143.78 -146.271c0 -81.9004 59.2402 -145.7 143.79 -145.7c85.6797 0 141.52 63.2998 143.21 145.7
c0 81.29 -59.2998 146.271 -143.22 146.271z" />
    <glyph glyph-name="fraction" unicode="&#x2044;" horiz-adv-x="399" 
d="M116.24 0h-76.2402l243 700h76.2402z" />
    <glyph glyph-name="onehalf" unicode="&#xbd;" horiz-adv-x="772" 
d="M196.49 279h-62.2998v322.42c-9.13965 -8.32031 -21.2598 -15.2207 -34.3594 -20.1611c-14.7197 -5.05957 -29.9199 -8.04004 -42.5596 -8.41016l-15.7803 61.4404c14.8799 1.37988 34.3398 6.95996 52.1494 16.1396c21.1299 10.1904 40.0596 26.9209 48.3398 49.5713
h54.5098v-421zM272.45 0h-76.2402l243 700h76.2402zM545.979 313.29l-61.3584 16.7285c18.75 56.5801 54.6504 97.0605 128.25 97.0605c70.0596 0 117.89 -51.6699 117.89 -117.66c0 -32.29 -11.1797 -65.7998 -35.6699 -94.4502l-122.4 -156.95h158.07v-58.0195h-247.56
v44.2402l156.97 200.87c22.75 28.0498 27.7197 49.4102 27.7197 65.9199c0 31.21 -21.0703 57.6504 -55.0205 57.6504c-40.1602 0 -57.0605 -22.5 -66.8906 -55.3896z" />
    <glyph glyph-name="onequarter" unicode="&#xbc;" horiz-adv-x="741" 
d="M196.49 279l-62.2988 -0.00976562v322.42c-8.75 -7.9502 -19.9404 -14.6699 -32.2207 -19.6104c-15.29 -5.4502 -31.5 -8.61035 -44.71 -8.95996l-15.7803 61.4404c15.3896 1.36035 35.6396 7.2207 53.8799 16.9805c20.3896 10.2695 38.46 26.7197 46.6201 48.7393
h54.5098v-421zM267.331 -0.00976562h-76.2402l243 700h76.2402zM666.4 161.42l33.5293 -0.000976562v-58.5898h-33.5303v-102.84h-64v102.84h-171.85v52.4805l172.66 265.73h63.1904v-259.62zM495.149 161.419h109.96v170.76z" />
    <glyph glyph-name="threequarters" unicode="&#xbe;" horiz-adv-x="807" 
d="M108.45 611.3l-57.1523 23.0771c17.9102 44.3701 61.3506 74.8203 111.501 74.8203c61.6201 0 114.44 -44.5996 114.44 -114.13c0 -39.5 -19.1104 -65.0498 -45.04 -81.2295c45.1396 -22.9199 67.6592 -62.7002 67.6592 -108.17
c0 -76.5303 -60.25 -130.46 -137.63 -130.46c-53.0195 0 -95.7393 26.6602 -120.749 64.6797l50.4102 32.4199c13.5 -21.7998 40.1699 -36.4395 69.6201 -36.4395c43.5195 0 74.8896 30.5801 74.8896 74.6104c0 42.9404 -33.75 74.6807 -74.1602 74.6807h-35.1299v53.1299
h32.8301c30.5303 0 55.4307 23.6904 55.4307 54.7207c0 31.6904 -23.4902 55.5801 -54.2402 55.5801c-24.9697 0 -44.2197 -14.71 -52.6797 -37.29zM333.798 -0.00292969h-76.2402l243 700h76.2402zM732.857 161.427l33.5293 -0.000976562v-58.5898h-33.5303v-102.84h-64
v102.84h-171.85v52.4805l172.66 265.73h63.1904v-259.62zM561.606 161.426h109.96v170.76z" />
    <glyph glyph-name="oneeighth" unicode="&#x215b;" horiz-adv-x="774" 
d="M196.49 279h-62.29v322.42c-8.65039 -7.84961 -19.6309 -14.5195 -31.6904 -19.4492c-15.4199 -5.57031 -31.9004 -8.77051 -45.2402 -9.11035l-15.7803 61.4404c15.0303 1.37012 34.7305 7.03027 52.6709 16.3799c20.9102 10.2197 39.5801 26.8594 47.8203 49.3193
h54.5098v-421zM272.45 0h-76.2402l243 700h76.2402zM599.81 427.5c65.7002 0 118.071 -45.8613 118.071 -114.472c0 -53.7695 -36.1904 -78.1494 -51.1807 -87.7393c18.8799 -10.3896 65.8701 -41.0293 65.8701 -104.489c0 -78.5098 -60.2305 -127.8 -133.11 -127.8
s-133.78 47.9404 -133.78 127.811c0 64.7998 47.1104 94.75 66.54 104.97c-14.7598 9.74023 -50.8398 35.6104 -50.8398 87.25c0 66.46 52.5996 114.47 118.43 114.47zM599.791 370.038c-34.5596 0 -58 -28.8184 -58 -59.6982c0 -30.8701 28.0098 -56.9902 57.6602 -56.9902
s57.9902 23.6396 57.9902 56.9893c0 33.3096 -22.9902 59.6992 -57.6504 59.6992zM599.451 195.6c-45.1797 0 -73.6504 -37.8408 -73.6504 -71.7109c0 -33.8799 26.6201 -72.3896 73.6396 -72.3896c47.0303 0 72.9707 37.2803 72.9707 72.3906s-30.8604 71.71 -72.96 71.71z
" />
    <glyph glyph-name="threeeighths" unicode="&#x215c;" horiz-adv-x="825" 
d="M108.45 611.3l-57.1523 23.0771c17.9102 44.3701 61.3506 74.8203 111.501 74.8203c61.6201 0 114.44 -44.5996 114.44 -114.13c0 -39.5 -19.1104 -65.0498 -45.04 -81.2295c45.1396 -22.9199 67.6592 -62.7002 67.6592 -108.17
c0 -76.5303 -60.25 -130.46 -137.63 -130.46c-53.0195 0 -95.7393 26.6602 -120.749 64.6797l50.4102 32.4199c13.5 -21.7998 40.1699 -36.4395 69.6201 -36.4395c43.5195 0 74.8896 30.5801 74.8896 74.6104c0 42.9404 -33.75 74.6807 -74.1602 74.6807h-35.1299v53.1299
h32.8301c30.5303 0 55.4307 23.6904 55.4307 54.7207c0 31.6904 -23.4902 55.5801 -54.2402 55.5801c-24.9697 0 -44.2197 -14.71 -52.6797 -37.29zM335.958 -0.00292969h-76.2402l243 700h76.2402zM651.348 427.497c65.8203 0 118.081 -45.9023 118.081 -114.473
c0 -53.7695 -36.1904 -78.1494 -51.1807 -87.7393c18.8799 -10.3896 65.8701 -41.0293 65.8701 -104.489c0 -78.5098 -60.2305 -127.8 -133.11 -127.8s-133.78 47.9404 -133.78 127.811c0 64.7998 47.1104 94.75 66.54 104.97
c-14.7598 9.74023 -50.8398 35.6104 -50.8398 87.25c0 66.4805 52.4502 114.471 118.42 114.471zM651.339 370.034c-34.4102 0 -57.9912 -28.8389 -57.9912 -59.6992c0 -30.8701 28.0098 -56.9902 57.6602 -56.9902s57.9902 23.6396 57.9902 56.9893
c0 33.3604 -23.0996 59.7002 -57.6592 59.7002zM651.008 195.605c-45.1797 0 -73.6387 -37.8408 -73.6387 -71.7207s26.6201 -72.3896 73.6396 -72.3896s72.9697 37.2803 72.9697 72.3906c0 35.1602 -30.9805 71.7197 -72.9707 71.7197z" />
    <glyph glyph-name="fiveeighths" unicode="&#x215d;" horiz-adv-x="825" 
d="M263.92 641.57l-132.65 -0.0107422l-10.2803 -93.6797h41.9902c68.5801 -1.23047 134.15 -49.4902 134.15 -134.71c0 -96.5703 -77.4102 -140.88 -143.71 -140.88c-57.5996 0 -102.06 35.1396 -120.55 64.3799l50.4502 32.3398
c12.9297 -21.3203 42.3594 -38.29 70.0996 -38.29c49.3301 0 79.8896 40.3301 80.25 80.5303c-0.389648 40.8701 -30.9092 78.4902 -79.5693 78.4902h-97.04l24.2197 210.26h182.64v-58.4297zM335.43 -0.0107422h-76.2402l243 700h76.2402zM651.369 427.489
c65.8203 0 118.079 -45.9023 118.079 -114.473c0 -53.7695 -36.1904 -78.1494 -51.1807 -87.7393c18.8701 -10.3896 65.8604 -41.0293 65.8604 -104.489c0 -78.5098 -60.2197 -127.8 -133.1 -127.8s-133.79 47.9404 -133.79 127.811c0 64.7998 47.1201 94.75 66.5498 104.97
c-14.7598 9.74023 -50.8496 35.6104 -50.8496 87.25c0 66.4805 52.4502 114.471 118.431 114.471zM651.358 370.026c-34.4004 0 -57.9902 -28.8389 -57.9902 -59.6992c0 -30.8701 28.0098 -56.9902 57.6494 -56.9902c29.6504 0 58 23.6396 58 56.9893
c0 33.3604 -23.0996 59.7002 -57.6592 59.7002zM651.019 195.598c-45.1699 0 -73.6309 -37.8408 -73.6309 -71.7207s26.6104 -72.3896 73.6299 -72.3896c47.0303 0 72.9707 37.2803 72.9707 72.3906c0 35.1602 -30.9697 71.7197 -72.9697 71.7197z" />
    <glyph glyph-name="seveneighths" unicode="&#x215e;" horiz-adv-x="732" 
d="M286.96 656.29l-186.44 -369.75h-64.5898l178.38 354.82h-181.05v58.6396h253.7v-43.71zM238.27 0h-76.2402l243 700h76.2402zM558.359 427.5c65.8203 0 118.08 -45.9023 118.08 -114.473c0 -53.7695 -36.1904 -78.1494 -51.1807 -87.7393
c18.8799 -10.3896 65.8701 -41.0293 65.8701 -104.489c0 -78.5098 -60.2305 -127.8 -133.11 -127.8s-133.79 47.9404 -133.79 127.811c0 64.7998 47.1201 94.75 66.5498 104.97c-14.7598 9.74023 -50.8496 35.6104 -50.8496 87.25
c0 66.4805 52.4502 114.471 118.431 114.471zM558.35 370.037c-34.4102 0 -57.9912 -28.8389 -57.9912 -59.6992c0 -30.8701 28.0098 -56.9902 57.6602 -56.9902s57.9902 23.6396 57.9902 56.9893c0 33.3604 -23.0996 59.7002 -57.6592 59.7002zM558.019 195.608
c-45.1797 0 -73.6387 -37.8408 -73.6387 -71.7207s26.6201 -72.3896 73.6396 -72.3896s72.9697 37.2803 72.9697 72.3906c0 35.1602 -30.9805 71.7197 -72.9707 71.7197z" />
    <glyph glyph-name="zero.dnom" horiz-adv-x="362" 
d="M41.4902 130.48l-0.000976562 160.39c0 73.0195 41.9004 136.529 140.591 136.529c98.6602 0 138.51 -66.8896 138.51 -137.05v-160.39c0 -72.9902 -41.9297 -136.96 -140.59 -136.96s-138.51 67.3203 -138.51 137.48zM255.02 127.351v165.619
c0 38.8398 -19.6504 76.21 -72.9707 76.21c-53.3301 0 -74.9902 -33.6396 -74.9902 -75.6992v-165.63c0 -38.8398 19.6602 -76.2002 72.9805 -76.2002s74.9805 33.6299 74.9805 75.7002z" />
    <glyph glyph-name="one.dnom" horiz-adv-x="217" 
d="M175.4 0l-62.291 -0.0107422v322.42c-8.67969 -7.88965 -19.7393 -14.5693 -31.8789 -19.499c-15.3799 -5.53027 -31.7598 -8.7207 -45.0498 -9.06055l-15.7803 61.4404c15.3604 1.36035 35.5703 7.20996 53.79 16.9404c20.4199 10.2598 38.5303 26.7197 46.6904 48.7695
h54.5195v-421z" />
    <glyph glyph-name="two.dnom" horiz-adv-x="309" 
d="M94.8096 313.29l-61.3662 16.7285c18.7598 56.5801 54.6494 97.0605 128.249 97.0605c70.0596 0 117.899 -51.6699 117.899 -117.66c0 -32.29 -11.1797 -65.7998 -35.6699 -94.4502l-122.4 -156.95h158.07v-58.0195h-247.57v44.2402l156.97 200.87
c22.7598 28.0498 27.7197 49.4102 27.7197 65.9199c0 31.21 -21.0703 57.6504 -55.0205 57.6504c-40.1504 0 -57.0605 -22.5 -66.8809 -55.3896z" />
    <glyph glyph-name="three.dnom" horiz-adv-x="329" 
d="M102.54 329.51l-57.1426 23.0771c17.9102 44.3701 61.3506 74.8203 111.501 74.8203c61.6201 0 114.44 -44.5996 114.44 -114.13c0 -39.5 -19.1104 -65.0498 -45.0508 -81.2295c45.2402 -22.9902 67.6602 -62.71 67.6602 -108.17
c0 -76.5303 -60.25 -130.88 -137.63 -130.88c-53.0195 0 -95.7393 27.0801 -120.749 65.0996l50.4102 32.4199c13.5 -21.7998 40.1699 -36.4395 69.6201 -36.4395c43.5195 0 74.8896 30.5801 74.8896 74.6104c0 42.9404 -33.75 74.6807 -74.1602 74.6807h-35.1299v53.1299
h32.8301c30.5303 0 55.4307 23.6904 55.4307 54.7207c0 31.6904 -23.4902 55.5801 -54.2402 55.5801c-24.9697 0 -44.2197 -14.71 -52.6797 -37.29z" />
    <glyph glyph-name="four.dnom" horiz-adv-x="324" 
d="M260.1 161.43l33.5293 -0.000976562v-58.5898h-33.5303v-102.84h-64v102.84h-171.85v52.4805l172.66 265.73h63.1904v-259.62zM88.8486 161.429h109.96v170.76z" />
    <glyph glyph-name="five.dnom" horiz-adv-x="329" 
d="M263.92 362.7h-132.66l-10.2803 -93.6699h41.6299c68.7803 0 134.521 -49.3799 134.521 -134.72c0 -96.5801 -77.4199 -141.311 -143.71 -141.311c-57.5996 0 -102.06 35.5596 -120.55 64.7998l50.4502 32.3398c12.9297 -21.3203 42.3594 -38.29 70.0996 -38.29
c49.3301 0 79.8896 40.3398 80.25 80.5303c-0.389648 40.8701 -30.9092 78.4902 -79.5693 78.4902h-97.04l24.2197 210.26h182.64v-58.4297z" />
    <glyph glyph-name="six.dnom" horiz-adv-x="355" 
d="M41.4902 130.3l-0.0117188 142.039c0 87.0703 61.0498 153.311 156.25 153.311c61.2002 0 98.5098 -29.1104 110.91 -39.9199l-37.96 -43.5703c-15.2598 13.0801 -40.0596 24.8105 -74.1494 24.8105c-56.3896 0 -93.4893 -38.7402 -95.1094 -88.0898v-53.2305
c12.4102 13.4404 38.71 39.5 82.7197 39.5c74.2002 0 138.181 -58.4004 138.181 -134.851c0 -78.2803 -63.6299 -138.3 -140.58 -138.3c-76.8896 0 -140.25 59.9805 -140.25 138.301zM181.729 206.819c-47.96 0 -76.8301 -36.3896 -76.8301 -78.2295
c0 -41.7998 29.79 -78.5596 76.8203 -78.5596c47.1504 0 77.1699 36.5898 77.1699 78.5596s-28.9805 78.2295 -77.1602 78.2295z" />
    <glyph glyph-name="seven.dnom" horiz-adv-x="316" 
d="M286.96 369.75l-186.44 -369.76h-64.5898l178.38 354.83h-181.05v58.6299h253.7v-43.7002z" />
    <glyph glyph-name="eight.dnom" horiz-adv-x="338" 
d="M169.87 427.5c65.8203 0 118.071 -45.9004 118.071 -114.48c0 -53.7598 -36.1904 -78.1396 -51.1807 -87.7393c18.8799 -10.3799 65.8701 -41.0303 65.8701 -104.48c0 -78.5195 -60.2305 -127.8 -133.11 -127.8s-133.78 47.9297 -133.78 127.8
c0 64.8096 47.1104 94.7598 66.54 104.979c-14.7598 9.73047 -50.8398 35.6006 -50.8398 87.251c0 66.4502 52.5996 114.47 118.43 114.47zM169.852 370.029c-34.5596 0 -57.9902 -28.8193 -57.9902 -59.6895c0 -30.8799 28.0098 -57 57.6602 -57
c29.6396 0 57.9893 23.6396 57.9893 57c0 33.3496 -23.0996 59.6895 -57.6592 59.6895zM169.511 195.601c-45.1699 0 -73.6406 -37.8418 -73.6406 -71.7217s26.6104 -72.3896 73.6406 -72.3896c47.0195 0 72.9697 37.2803 72.9697 72.3906
s-30.8701 71.7207 -72.9697 71.7207z" />
    <glyph glyph-name="nine.dnom" horiz-adv-x="355" 
d="M253.77 140.54l0.0117188 52.9814c-12.4102 -13.4404 -38.71 -39.5 -82.7197 -39.5c-74.21 0 -138.19 58.4004 -138.19 134.86c0 78.2402 63.7002 138.59 140.59 138.59s140.25 -60.2803 140.25 -138.601v-142.04c0 -87.0703 -61.0498 -153.84 -156.25 -153.84
c-61.1602 0 -98.4004 29.5596 -110.91 40.4492l37.96 43.5703c15.2598 -13.0801 40.0596 -24.8105 74.1494 -24.8105c56.5 0 93.7695 38.9199 95.1094 88.3398zM173.461 369.142c-47.0703 0 -77.1699 -36.6084 -77.1699 -78.5586
c0 -41.9902 29.1797 -78.2207 77.1699 -78.2207c47.9502 0 76.8203 36.3799 76.8203 78.2197c0 41.7998 -29.7803 78.5596 -76.8203 78.5596z" />
    <glyph glyph-name="zero.numr" horiz-adv-x="362" 
d="M41.4902 412.02l-0.00195312 160.39c0 73.0195 41.9004 136.529 140.591 136.529c98.7002 0 138.65 -66.9902 138.511 -137.05v-160.39c0 -72.9902 -41.9297 -136.54 -140.59 -136.54s-138.51 66.9004 -138.51 137.061zM255.008 408.89l0.00976562 165.63
c0 38.8496 -19.79 76.1992 -72.9805 76.1992c-53.3203 0 -74.9805 -33.6396 -74.9805 -75.6992v-165.63c0 -38.8398 19.6504 -76.2002 72.9707 -76.2002s74.9805 33.6299 74.9805 75.7002z" />
    <glyph glyph-name="one.numr" horiz-adv-x="217" 
d="M175.4 279l-62.2998 -0.00878906v322.42c-8.67969 -7.87988 -19.7197 -14.5703 -31.8496 -19.5c-15.3799 -5.53027 -31.7803 -8.7207 -45.0801 -9.06055l-15.7803 61.4404c16.1104 1.33008 37.5 7.62012 56.2695 18.2598c19.3203 10.29 36.2402 26.3096 44.2207 47.4492
h54.5195v-421z" />
    <glyph glyph-name="two.numr" horiz-adv-x="309" 
d="M94.8096 591.81l-61.3662 16.7285c18.7598 56.5801 54.6494 97.0605 128.249 97.0605c70.0596 0 117.899 -51.6699 117.899 -117.67c0 -32.2803 -11.1797 -65.79 -35.6699 -94.4404l-122.4 -156.95h158.07v-58.0195h-247.57v44.2402l156.97 200.87
c22.7598 28.0498 27.7197 49.4102 27.7197 65.9199c0 31.21 -21.0703 57.6504 -55.0205 57.6504c-40.1504 0 -57.0605 -22.5 -66.8809 -55.3896z" />
    <glyph glyph-name="three.numr" horiz-adv-x="329" 
d="M101.97 611.3l-57.1514 23.0771c17.9102 44.3701 61.3506 74.8203 111.501 74.8203c61.6104 0 114.431 -44.5996 114.431 -114.13c0 -39.5 -19.0996 -65.0498 -45.04 -81.2295c45.1396 -22.9199 67.6592 -62.7002 67.6592 -108.17
c0 -76.5303 -60.25 -130.46 -137.63 -130.46c-53.0195 0 -95.7393 26.6602 -120.739 64.6797l50.4102 32.4199c13.4902 -21.7998 40.1699 -36.4395 69.6201 -36.4395c43.5098 0 74.8799 30.5801 74.8799 74.6104c0 42.9404 -33.75 74.6807 -74.1602 74.6807h-35.1201
v53.1299h32.8301c30.5195 0 55.4199 23.6904 55.4199 54.7207c0 31.6904 -23.4805 55.5801 -54.2402 55.5801c-24.96 0 -44.21 -14.71 -52.6699 -37.29z" />
    <glyph glyph-name="four.numr" horiz-adv-x="324" 
d="M260.1 440.49l33.5293 -0.000976562v-58.5898h-33.5303v-102.84h-64v102.84h-171.85v52.4805l172.66 265.73h63.1904v-259.62zM88.8486 440.489h109.96v170.76z" />
    <glyph glyph-name="five.numr" horiz-adv-x="329" 
d="M263.92 641.57l-132.65 -0.000976562l-10.29 -93.6602h41.4004c68.9102 0 134.75 -49.3096 134.75 -134.739c0 -96.5703 -77.4102 -140.88 -143.71 -140.88c-57.5996 0 -102.06 35.1396 -120.55 64.3799l50.4502 32.3398c12.9297 -21.3203 42.3594 -38.29 70.0996 -38.29
c49.3301 0 79.8896 40.3301 80.25 80.5303c-0.389648 40.8701 -30.9092 78.4902 -79.5693 78.4902h-97.04l24.2197 210.26h182.64v-58.4297z" />
    <glyph glyph-name="six.numr" horiz-adv-x="355" 
d="M41.4902 413.18v142.04c0 87.0703 61.04 153.311 156.24 153.311c61.21 0 98.5195 -29.1104 110.909 -39.9199l-37.96 -43.5703c-15.25 13.0801 -40.0596 24.8105 -74.1494 24.8105c-56.6504 0 -93.96 -39.1699 -95.1104 -88.6797v-52.6299
c12.4102 13.4297 38.71 39.4893 82.7197 39.4893c74.2002 0 138.181 -58.3896 138.181 -134.85c0 -78.2803 -63.6299 -138.601 -140.58 -138.601c-76.8896 0 -140.25 60.29 -140.25 138.6zM181.73 489.7c-47.9502 0 -76.8203 -36.3896 -76.8203 -78.2295
c0 -41.7998 29.7803 -78.5596 76.8203 -78.5596c47.1504 0 77.1602 36.5898 77.1602 78.5596s-28.9697 78.2295 -77.1602 78.2295z" />
    <glyph glyph-name="seven.numr" horiz-adv-x="316" 
d="M286.96 656.29l-186.44 -369.75h-64.5898l178.38 354.82h-181.05v58.6396h253.7v-43.71z" />
    <glyph glyph-name="eight.numr" horiz-adv-x="338" 
d="M169.87 708.73c65.8301 0 118.071 -45.8896 118.071 -114.46c0 -53.7695 -36.1904 -78.1494 -51.1807 -87.749c18.8799 -10.3799 65.8701 -41.0303 65.8701 -104.48c0 -78.5195 -60.2305 -127.38 -133.11 -127.38s-133.78 47.5098 -133.78 127.38
c0 64.7998 47.1104 94.75 66.54 104.97c-14.7598 9.73047 -50.8398 35.6104 -50.8398 87.25c0 66.46 52.5996 114.47 118.43 114.47zM169.852 651.28c-34.5596 0 -57.9912 -28.8193 -57.9912 -59.6992c0 -30.8701 28.0098 -56.9902 57.6602 -56.9902
s57.9902 23.6396 57.9902 56.9893c0 33.3604 -23.0996 59.7002 -57.6592 59.7002zM169.521 476.841c-45.1699 0 -73.6406 -37.8418 -73.6406 -71.7217s26.6104 -72.3896 73.6299 -72.3896c47.0303 0 72.9707 37.2803 72.9707 72.3906s-30.8701 71.7207 -72.96 71.7207z" />
    <glyph glyph-name="nine.numr" horiz-adv-x="355" 
d="M253.77 422.46l0.0117188 52.1211c-12.4102 -13.4404 -38.71 -39.5 -82.7197 -39.5c-74.21 0 -138.19 58.4004 -138.19 134.86c0 78.2402 63.7002 138.59 140.59 138.59s140.25 -60.2803 140.25 -138.601v-142.04c0 -87.0703 -61.0498 -153.41 -156.25 -153.41
c-61.1602 0 -98.4004 29.1299 -110.91 40.0195l37.96 43.5703c15.2598 -13.0801 40.0596 -24.8105 74.1494 -24.8105c56.8896 0 94.3398 39.5703 95.1094 89.2002zM173.461 650.201c-47.0703 0 -77.1602 -36.6084 -77.1602 -78.5586
c0 -41.9902 29.1797 -78.2207 77.1602 -78.2207c47.9502 0 76.8203 36.3799 76.8203 78.2197c0 41.7998 -29.7803 78.5596 -76.8203 78.5596z" />
    <glyph glyph-name="onesuperior" unicode="&#xb9;" horiz-adv-x="212" 
d="M175.4 279h-62.2988v322.42c-8.90039 -8.08984 -20.4502 -14.8896 -33.0605 -19.8301c-15.0801 -5.2998 -30.8799 -8.37988 -43.8604 -8.74023l-15.7803 61.4404c16.3701 1.32031 38.21 7.78027 57.1602 18.7705c18.9102 10.29 35.4102 26.1396 43.3203 46.9395h54.5195
v-421z" />
    <glyph glyph-name="twosuperior" unicode="&#xb2;" horiz-adv-x="309" 
d="M94.8096 591.81l-61.3662 16.7285c18.7598 56.5801 54.6494 97.0605 128.249 97.0605c70.0596 0 117.899 -51.6699 117.899 -117.67c0 -32.2803 -11.1797 -65.79 -35.6699 -94.4404l-122.4 -156.95h158.07v-58.0195h-247.57v44.2402l156.97 200.87
c22.7598 28.0498 27.7197 49.4102 27.7197 65.9199c0 31.21 -21.0703 57.6504 -55.0205 57.6504c-40.1504 0 -57.0605 -22.5 -66.8809 -55.3896z" />
    <glyph glyph-name="threesuperior" unicode="&#xb3;" horiz-adv-x="333" 
d="M101.97 611.3l-57.1514 23.0771c17.9102 44.3701 61.3506 74.8203 111.501 74.8203c61.6104 0 114.431 -44.5996 114.431 -114.13c0 -39.5 -19.0996 -65.0498 -45.04 -81.2295c45.1396 -22.9199 67.6592 -62.7002 67.6592 -108.17
c0 -76.5498 -57.7998 -130.46 -137.63 -130.46c-53.0195 0 -95.7393 26.6602 -120.739 64.6797l50.4102 32.4199c13.4902 -21.7998 40.1699 -36.4395 69.6201 -36.4395c43.5098 0 74.8799 30.5801 74.8799 74.6104c0 42.9404 -33.75 74.6807 -74.1602 74.6807h-35.1201
v53.1299h32.8301c30.5195 0 55.4199 23.6904 55.4199 54.7207c0 31.6904 -23.4805 55.5801 -54.2402 55.5801c-24.96 0 -44.21 -14.71 -52.6699 -37.29z" />
    <glyph glyph-name="asterisk" unicode="*" horiz-adv-x="424" 
d="M241.26 568.27l125.021 49.3213l19.9004 -59.9004l-126.92 -39.5703l82.7998 -102.43l-51.46 -37.6797l-74.4297 107.89l-72.9102 -108.83l-50.79 36.6602l78.1201 102.54l-126.34 40.0303l20.0596 59.8496l121.43 -48.9805l-4.05957 132.83h63.5596z" />
    <glyph glyph-name="backslash" unicode="\" horiz-adv-x="402" 
d="M367.55 0h-84.5693l-242.98 700h84.5801z" />
    <glyph glyph-name="bullet" unicode="&#x2022;" horiz-adv-x="330" 
d="M165.32 444.15c67.0195 0 121.64 -54.6201 121.64 -121.64s-54.6201 -121.06 -121.64 -121.06s-121.069 54.04 -121.069 121.06s54.0498 121.64 121.069 121.64z" />
    <glyph glyph-name="colon" unicode=":" horiz-adv-x="163" 
d="M84.4502 447.1c26.7305 0 49.0508 -22.3203 49.0508 -49.0508c0 -26.7197 -22.3203 -49.0293 -49.0508 -49.0293c-26.7197 0 -49.1299 22.3096 -49.1299 49.0293c0 26.7305 22.4102 49.0508 49.1299 49.0508zM84.5205 93.3896c26.7305 0 49.0508 -22.3203 49.0508 -49.04
c0 -26.7305 -22.3203 -49.3506 -49.0508 -49.3506c-26.7197 0 -49.1299 22.6201 -49.1299 49.3506c0 26.7197 22.4102 49.04 49.1299 49.04z" />
    <glyph glyph-name="comma" unicode="," horiz-adv-x="166" 
d="M32.1699 -68l24.9102 74.25c-11.4102 8.80957 -18.96 22.7393 -18.96 38.0996c0 26.7197 22.3203 49.04 49.0508 49.04c26.7197 0 49.04 -22.3203 49.04 -49.04c0 -8.16992 -2.08008 -15.9297 -5.74023 -22.75l-42.3604 -89.5996h-55.9404z" />
    </font>
</defs>
</svg>
